<svg width="338" height="30" viewBox="0 0 338 30" fill="none" xmlns="http://www.w3.org/2000/svg">
<g clip-path="url(#clip0_51_10)">
<rect width="338" height="30" rx="15" fill="white"/>
<rect x="-1" y="-1" width="340" height="32.4309" rx="16.2154" fill="#2742D0" stroke="#FF0101" stroke-width="2"/>
<path d="M36.3587 22V10.3636H40.7223C41.6162 10.3636 42.3662 10.5303 42.9723 10.8636C43.5822 11.197 44.0424 11.6553 44.353 12.2386C44.6674 12.8182 44.8246 13.4773 44.8246 14.2159C44.8246 14.9621 44.6674 15.625 44.353 16.2045C44.0386 16.7841 43.5746 17.2405 42.9609 17.5739C42.3473 17.9034 41.5916 18.0682 40.6939 18.0682H37.8018V16.3352H40.4098C40.9325 16.3352 41.3606 16.2443 41.6939 16.0625C42.0272 15.8807 42.2734 15.6307 42.4325 15.3125C42.5954 14.9943 42.6768 14.6288 42.6768 14.2159C42.6768 13.803 42.5954 13.4394 42.4325 13.125C42.2734 12.8106 42.0253 12.5663 41.6882 12.392C41.3549 12.214 40.925 12.125 40.3984 12.125H38.4666V22H36.3587ZM79.8999 22H77.6499L81.7464 10.3636H84.3487L88.451 22H86.201L83.093 12.75H83.0021L79.8999 22ZM79.9737 17.4375H86.1101V19.1307H79.9737V17.4375ZM125.702 22V10.3636H130.066C130.96 10.3636 131.71 10.5189 132.316 10.8295C132.926 11.1402 133.386 11.5758 133.697 12.1364C134.011 12.6932 134.168 13.3428 134.168 14.0852C134.168 14.8314 134.009 15.4792 133.691 16.0284C133.377 16.5739 132.913 16.9962 132.299 17.2955C131.685 17.5909 130.932 17.7386 130.038 17.7386H126.93V15.9886H129.754C130.276 15.9886 130.704 15.9167 131.038 15.7727C131.371 15.625 131.617 15.411 131.776 15.1307C131.939 14.8466 132.021 14.4981 132.021 14.0852C132.021 13.6723 131.939 13.3201 131.776 13.0284C131.613 12.733 131.365 12.5095 131.032 12.358C130.699 12.2027 130.269 12.125 129.742 12.125H127.81V22H125.702ZM131.714 16.7273L134.594 22H132.242L129.413 16.7273H131.714ZM179.739 22H175.796V10.3636H179.819C180.974 10.3636 181.967 10.5966 182.796 11.0625C183.629 11.5246 184.27 12.1894 184.717 13.0568C185.164 13.9242 185.387 14.9621 185.387 16.1705C185.387 17.3826 185.162 18.4242 184.711 19.2955C184.264 20.1667 183.618 20.8352 182.773 21.3011C181.933 21.767 180.921 22 179.739 22ZM177.904 20.1761H179.637C180.448 20.1761 181.124 20.0284 181.665 19.733C182.207 19.4337 182.614 18.9886 182.887 18.3977C183.16 17.803 183.296 17.0606 183.296 16.1705C183.296 15.2803 183.16 14.5417 182.887 13.9545C182.614 13.3636 182.211 12.9223 181.677 12.6307C181.147 12.3352 180.487 12.1875 179.7 12.1875H177.904V20.1761ZM224.603 22H222.353L226.45 10.3636H229.052L233.154 22H230.904L227.796 12.75H227.705L224.603 22ZM224.677 17.4375H230.813V19.1307H224.677V17.4375ZM268.545 10.3636V22H266.437V10.3636H268.545ZM312.87 13.5625C312.817 13.0663 312.594 12.6799 312.2 12.4034C311.809 12.1269 311.302 11.9886 310.677 11.9886C310.237 11.9886 309.861 12.0549 309.546 12.1875C309.232 12.3201 308.991 12.5 308.825 12.7273C308.658 12.9545 308.573 13.214 308.569 13.5057C308.569 13.7481 308.624 13.9583 308.734 14.1364C308.847 14.3144 309.001 14.4659 309.194 14.5909C309.387 14.7121 309.601 14.8144 309.836 14.8977C310.071 14.9811 310.308 15.0511 310.546 15.108L311.637 15.3807C312.076 15.483 312.499 15.6212 312.904 15.7955C313.313 15.9697 313.679 16.1894 314.001 16.4545C314.326 16.7197 314.584 17.0398 314.773 17.4148C314.963 17.7898 315.058 18.2292 315.058 18.733C315.058 19.4148 314.883 20.0152 314.535 20.5341C314.186 21.0492 313.683 21.4527 313.023 21.7443C312.368 22.0322 311.575 22.1761 310.643 22.1761C309.737 22.1761 308.951 22.036 308.285 21.7557C307.622 21.4754 307.103 21.0663 306.728 20.5284C306.357 19.9905 306.156 19.3352 306.126 18.5625H308.2C308.23 18.9678 308.355 19.3049 308.575 19.5739C308.794 19.8428 309.08 20.0436 309.433 20.1761C309.789 20.3087 310.186 20.375 310.626 20.375C311.084 20.375 311.486 20.3068 311.83 20.1705C312.179 20.0303 312.451 19.8371 312.648 19.5909C312.845 19.3409 312.946 19.0492 312.95 18.7159C312.946 18.4129 312.857 18.1629 312.683 17.9659C312.508 17.7652 312.264 17.5985 311.95 17.4659C311.639 17.3295 311.275 17.2083 310.859 17.1023L309.535 16.7614C308.576 16.5152 307.819 16.142 307.262 15.642C306.709 15.1383 306.433 14.4697 306.433 13.6364C306.433 12.9508 306.618 12.3504 306.989 11.8352C307.364 11.3201 307.874 10.9205 308.518 10.6364C309.162 10.3485 309.891 10.2045 310.705 10.2045C311.531 10.2045 312.254 10.3485 312.876 10.6364C313.501 10.9205 313.991 11.3163 314.347 11.8239C314.703 12.3277 314.887 12.9072 314.898 13.5625H312.87Z" fill="#FFB801"/>
</g>
<defs>
<clipPath id="clip0_51_10">
<rect width="338" height="30" rx="15" fill="white"/>
</clipPath>
</defs>
</svg>
