<svg width="312" height="312" viewBox="0 0 312 312" fill="none" xmlns="http://www.w3.org/2000/svg">
<g clip-path="url(#clip0_12_2)">
<rect width="312" height="312" rx="156" fill="white"/>
<circle cx="156.5" cy="154.5" r="156" fill="#5EB1ED" stroke="#97887B" stroke-width="3"/>
<circle cx="156" cy="155" r="148.5" fill="#010101" stroke="#97887B" stroke-width="3"/>
<path d="M122 164.5C122 194 30.5 182.5 30.5 182.5C9.03103 181.923 77.4895 91.8047 87 114.5C96.3322 136.77 97.4179 136.918 111.196 145.971C114.11 144.722 122 144.692 122 164.5Z" fill="#D9D9D9"/>
<path d="M30.5 182.5C30.5 182.5 122 194 122 164.5C122 135 104.5 149.5 112 146.5M30.5 182.5C9.03103 181.923 77.4895 91.8047 87 114.5C96.5105 137.195 97.4564 136.916 112 146.5M30.5 182.5C69.4999 170 76.4942 166.911 112 146.5" stroke="#97887B"/>
<path d="M91 185C91 185 91.1567 202.643 97 211.5C102.527 219.878 117.5 227 117.5 227C117.5 227 156.5 244.5 170.5 244.5" stroke="#97887B" stroke-width="3"/>
<path d="M112 146C112 146 135.718 137.396 145.6 130.943C155.482 124.491 166.682 119.472 168 108" stroke="#97887B"/>
<path d="M143.749 104.397C139.312 113.557 138.45 113.704 131.874 118.681C125.299 123.658 116.215 124.212 114 118.681C112.685 115.943 117.66 108.341 125.874 104.397C134.089 100.452 148.185 95.2367 143.749 104.397Z" fill="#D9D9D9"/>
<path d="M76 111.144C76 111.144 80.3033 66.9046 102 48.6444C129.5 25.5 194 53.5 194 53.5C194 53.5 218 67.5 224.5 75C231 82.5 235.5 99.2887 240.5 111.144C245.5 123 270.5 163.5 267 199C263.5 234.5 229.5 248.5 165.5 244.5M114 191C237 175.5 217.5 107 217.5 107" stroke="#97887B" stroke-width="3"/>
<path d="M199.202 115.602C174.004 65.023 117.782 97.8846 117.782 97.8846C117.782 97.8846 109.503 103.277 109.744 105.727" stroke="#5EB1ED" stroke-width="2"/>
<ellipse cx="122" cy="115.5" rx="2" ry="2.5" fill="#807D6D"/>
</g>
<defs>
<clipPath id="clip0_12_2">
<rect width="312" height="312" rx="156" fill="white"/>
</clipPath>
</defs>
</svg>
