<svg width="400" height="400" viewBox="0 0 400 400" fill="none" xmlns="http://www.w3.org/2000/svg">
<rect width="400" height="400" fill="white"/>
<circle cx="201" cy="206" r="120" fill="#010101"/>
<circle cx="201" cy="206" r="110" fill="white"/>
<circle cx="201" cy="130.5" r="37.5" fill="#010101"/>
<circle cx="124" cy="206.5" r="37.5" fill="#010101"/>
<circle cx="201" cy="280.5" r="37.5" fill="#010101"/>
<circle cx="278" cy="206.5" r="37.5" fill="#010101"/>
<circle cx="201" cy="206" r="52.5" fill="#010101"/>
<circle cx="201" cy="206" r="37.5" fill="white"/>
<circle cx="278" cy="205.5" r="22.5" fill="white"/>
<circle cx="124" cy="205.5" r="22.5" fill="white"/>
<circle cx="201" cy="282" r="22.5" fill="white"/>
<circle cx="201" cy="130.5" r="22.5" fill="white"/>
<g filter="url(#filter0_b_44_131)">
<path d="M174.562 210V201.273H178.33C178.977 201.273 179.544 201.401 180.03 201.656C180.516 201.912 180.893 202.271 181.163 202.734C181.433 203.197 181.568 203.739 181.568 204.358C181.568 204.983 181.429 205.524 181.151 205.982C180.875 206.439 180.487 206.791 179.987 207.038C179.49 207.286 178.909 207.409 178.244 207.409H175.994V205.568H177.767C178.045 205.568 178.283 205.52 178.479 205.423C178.678 205.324 178.83 205.183 178.935 205.001C179.043 204.82 179.097 204.605 179.097 204.358C179.097 204.108 179.043 203.895 178.935 203.719C178.83 203.54 178.678 203.403 178.479 203.31C178.283 203.213 178.045 203.165 177.767 203.165H176.932V210H174.562ZM183.615 210H181.058L183.939 201.273H187.177L190.058 210H187.501L185.592 203.676H185.524L183.615 210ZM183.137 206.557H187.944V208.33H183.137V206.557ZM190.898 210V201.273H194.665C195.313 201.273 195.88 201.391 196.366 201.626C196.852 201.862 197.229 202.202 197.499 202.645C197.769 203.088 197.904 203.619 197.904 204.239C197.904 204.864 197.765 205.391 197.487 205.82C197.211 206.249 196.823 206.572 196.323 206.791C195.826 207.01 195.245 207.119 194.58 207.119H192.33V205.278H194.103C194.381 205.278 194.619 205.244 194.815 205.176C195.013 205.105 195.165 204.993 195.271 204.839C195.379 204.686 195.433 204.486 195.433 204.239C195.433 203.989 195.379 203.786 195.271 203.629C195.165 203.47 195.013 203.354 194.815 203.28C194.619 203.203 194.381 203.165 194.103 203.165H193.268V210H190.898ZM196.012 205.994L198.194 210H195.62L193.489 205.994H196.012ZM202.272 210H198.914V201.273H202.238C203.136 201.273 203.911 201.447 204.565 201.797C205.221 202.143 205.727 202.643 206.082 203.297C206.44 203.947 206.619 204.727 206.619 205.636C206.619 206.545 206.441 207.327 206.086 207.98C205.731 208.631 205.228 209.131 204.577 209.48C203.927 209.827 203.158 210 202.272 210ZM201.283 207.989H202.187C202.619 207.989 202.987 207.919 203.29 207.78C203.597 207.641 203.83 207.401 203.989 207.06C204.151 206.719 204.232 206.244 204.232 205.636C204.232 205.028 204.15 204.554 203.985 204.213C203.823 203.872 203.585 203.632 203.269 203.493C202.957 203.354 202.573 203.284 202.119 203.284H201.283V207.989ZM209.431 210H206.874L209.755 201.273H212.994L215.874 210H213.317L211.408 203.676H211.34L209.431 210ZM208.954 206.557H213.761V208.33H208.954V206.557ZM219.084 201.273V210H216.715V201.273H219.084ZM224.912 204C224.889 203.716 224.782 203.494 224.592 203.335C224.404 203.176 224.119 203.097 223.735 203.097C223.491 203.097 223.291 203.126 223.135 203.186C222.981 203.243 222.868 203.321 222.794 203.42C222.72 203.52 222.681 203.634 222.679 203.761C222.673 203.866 222.691 203.962 222.734 204.047C222.779 204.129 222.85 204.205 222.947 204.273C223.044 204.338 223.167 204.398 223.318 204.452C223.468 204.506 223.647 204.554 223.855 204.597L224.571 204.75C225.054 204.852 225.467 204.987 225.811 205.155C226.154 205.322 226.436 205.52 226.654 205.747C226.873 205.972 227.034 206.224 227.136 206.506C227.241 206.787 227.295 207.094 227.298 207.426C227.295 208 227.152 208.486 226.868 208.884C226.583 209.281 226.177 209.584 225.649 209.791C225.123 209.999 224.491 210.102 223.752 210.102C222.994 210.102 222.332 209.99 221.767 209.766C221.204 209.541 220.767 209.196 220.454 208.73C220.145 208.261 219.988 207.662 219.985 206.932H222.235C222.25 207.199 222.316 207.423 222.436 207.605C222.555 207.787 222.723 207.925 222.939 208.018C223.157 208.112 223.417 208.159 223.718 208.159C223.971 208.159 224.183 208.128 224.353 208.065C224.524 208.003 224.653 207.916 224.741 207.805C224.829 207.695 224.875 207.568 224.877 207.426C224.875 207.293 224.831 207.176 224.745 207.077C224.663 206.974 224.527 206.884 224.336 206.804C224.146 206.722 223.889 206.645 223.565 206.574L222.696 206.386C221.923 206.219 221.314 205.939 220.868 205.547C220.424 205.152 220.204 204.614 220.207 203.932C220.204 203.378 220.352 202.893 220.65 202.479C220.951 202.061 221.368 201.736 221.899 201.503C222.433 201.27 223.045 201.153 223.735 201.153C224.44 201.153 225.049 201.271 225.564 201.507C226.078 201.743 226.474 202.075 226.752 202.504C227.034 202.93 227.176 203.429 227.179 204H224.912Z" fill="#FFB801"/>
</g>
<path d="M254.411 124.239L254.858 123.802L257.91 126.921L257.463 127.358L256.184 126.05L252.472 129.683L251.979 129.179L255.691 125.547L254.411 124.239ZM255.221 132.621C254.926 132.321 254.739 131.997 254.658 131.649C254.581 131.301 254.604 130.951 254.728 130.599C254.855 130.247 255.078 129.914 255.398 129.602C255.717 129.289 256.056 129.072 256.413 128.95C256.774 128.828 257.125 128.805 257.467 128.881C257.811 128.957 258.122 129.136 258.397 129.417C258.556 129.58 258.686 129.767 258.787 129.978C258.888 130.189 258.941 130.42 258.946 130.669C258.953 130.917 258.894 131.176 258.771 131.448C258.647 131.72 258.44 131.999 258.149 132.283L257.946 132.482L255.594 130.078L256.008 129.673L257.883 131.589C258.059 131.417 258.182 131.228 258.251 131.023C258.322 130.819 258.334 130.613 258.288 130.406C258.243 130.201 258.136 130.012 257.967 129.838C257.78 129.648 257.571 129.529 257.34 129.482C257.111 129.435 256.885 129.448 256.662 129.521C256.439 129.594 256.242 129.714 256.07 129.882L255.794 130.152C255.558 130.383 255.398 130.619 255.314 130.86C255.232 131.102 255.22 131.338 255.278 131.567C255.337 131.796 255.462 132.007 255.651 132.2C255.774 132.326 255.903 132.422 256.038 132.49C256.175 132.557 256.316 132.592 256.46 132.597C256.606 132.599 256.753 132.568 256.901 132.503L257.224 133.093C257.02 133.198 256.801 133.251 256.57 133.253C256.339 133.253 256.108 133.201 255.876 133.096C255.646 132.991 255.427 132.832 255.221 132.621ZM258.437 135.909C258.151 135.616 257.974 135.297 257.905 134.951C257.837 134.604 257.868 134.256 257.999 133.905C258.13 133.554 258.351 133.226 258.663 132.922C258.979 132.612 259.316 132.396 259.672 132.276C260.031 132.155 260.381 132.133 260.723 132.209C261.068 132.285 261.378 132.464 261.654 132.745C261.868 132.964 262.021 133.202 262.112 133.457C262.203 133.713 262.231 133.968 262.194 134.224C262.158 134.479 262.056 134.716 261.887 134.933L261.418 134.454C261.525 134.279 261.571 134.074 261.558 133.841C261.547 133.608 261.438 133.386 261.231 133.174C261.049 132.988 260.84 132.872 260.604 132.826C260.372 132.781 260.129 132.805 259.876 132.899C259.626 132.992 259.383 133.154 259.148 133.385C258.907 133.621 258.734 133.864 258.63 134.115C258.526 134.367 258.494 134.611 258.531 134.847C258.57 135.084 258.682 135.298 258.868 135.487C258.99 135.612 259.122 135.704 259.265 135.763C259.407 135.822 259.554 135.847 259.704 135.838C259.854 135.829 260 135.784 260.143 135.702L260.612 136.181C260.402 136.334 260.17 136.43 259.918 136.467C259.669 136.504 259.415 136.478 259.157 136.388C258.903 136.299 258.663 136.139 258.437 135.909ZM262.733 136.415L260.857 138.251L260.388 137.772L263.507 134.72L263.96 135.183L263.473 135.66L263.512 135.7C263.742 135.618 263.978 135.605 264.22 135.66C264.463 135.713 264.7 135.858 264.93 136.093C265.137 136.304 265.275 136.532 265.343 136.775C265.413 137.017 265.403 137.267 265.315 137.526C265.227 137.783 265.051 138.042 264.786 138.302L262.804 140.241L262.335 139.762L264.285 137.854C264.53 137.614 264.658 137.364 264.67 137.103C264.684 136.841 264.582 136.598 264.365 136.376C264.215 136.224 264.048 136.119 263.864 136.064C263.681 136.009 263.492 136.01 263.297 136.066C263.103 136.121 262.915 136.238 262.733 136.415ZM264.836 142.447C264.561 142.166 264.386 141.853 264.312 141.509C264.239 141.167 264.265 140.818 264.389 140.463C264.515 140.11 264.739 139.775 265.061 139.46C265.386 139.142 265.727 138.924 266.085 138.804C266.444 138.686 266.793 138.667 267.134 138.747C267.476 138.829 267.785 139.01 268.06 139.292C268.336 139.573 268.51 139.885 268.583 140.228C268.657 140.571 268.63 140.92 268.503 141.275C268.377 141.632 268.152 141.969 267.827 142.287C267.505 142.602 267.165 142.818 266.808 142.934C266.451 143.052 266.102 143.071 265.76 142.989C265.42 142.909 265.112 142.729 264.836 142.447ZM265.267 142.026C265.476 142.24 265.703 142.362 265.948 142.393C266.192 142.424 266.437 142.385 266.68 142.276C266.924 142.168 267.15 142.011 267.358 141.807C267.567 141.603 267.728 141.38 267.844 141.138C267.959 140.895 268.004 140.65 267.98 140.404C267.956 140.157 267.839 139.927 267.63 139.713C267.421 139.499 267.193 139.377 266.947 139.348C266.701 139.319 266.455 139.359 266.21 139.469C265.965 139.578 265.739 139.735 265.53 139.939C265.322 140.143 265.161 140.366 265.047 140.607C264.933 140.848 264.889 141.092 264.914 141.337C264.94 141.582 265.057 141.812 265.267 142.026ZM271.627 140.938L267.469 145.007L267 144.528L271.158 140.459L271.627 140.938ZM269.502 147.216C269.227 146.934 269.052 146.621 268.978 146.278C268.906 145.935 268.931 145.587 269.056 145.232C269.182 144.878 269.405 144.544 269.728 144.229C270.053 143.911 270.394 143.692 270.751 143.573C271.11 143.455 271.46 143.436 271.801 143.516C272.143 143.597 272.451 143.779 272.727 144.06C273.002 144.342 273.176 144.654 273.249 144.996C273.323 145.34 273.296 145.689 273.169 146.044C273.044 146.4 272.818 146.737 272.494 147.055C272.171 147.37 271.832 147.586 271.474 147.703C271.118 147.821 270.769 147.839 270.427 147.758C270.086 147.678 269.778 147.497 269.502 147.216ZM269.933 146.794C270.142 147.008 270.369 147.13 270.614 147.161C270.859 147.192 271.103 147.153 271.347 147.045C271.59 146.936 271.816 146.78 272.025 146.576C272.233 146.372 272.395 146.149 272.51 145.906C272.625 145.664 272.671 145.419 272.646 145.172C272.622 144.926 272.506 144.695 272.296 144.481C272.087 144.268 271.859 144.146 271.613 144.116C271.367 144.087 271.122 144.127 270.877 144.237C270.632 144.347 270.405 144.504 270.197 144.708C269.988 144.912 269.827 145.134 269.713 145.376C269.599 145.617 269.555 145.86 269.581 146.105C269.606 146.351 269.724 146.58 269.933 146.794ZM271.664 151.764C271.437 151.532 271.272 151.304 271.169 151.079C271.064 150.856 271.005 150.641 270.993 150.436C270.98 150.234 270.996 150.047 271.041 149.876L271.683 149.996C271.668 150.095 271.657 150.213 271.649 150.351C271.639 150.49 271.664 150.644 271.722 150.812C271.781 150.983 271.902 151.162 272.086 151.35C272.332 151.602 272.597 151.75 272.879 151.795C273.161 151.839 273.432 151.734 273.692 151.48L274.325 150.86L274.285 150.82C274.194 150.84 274.075 150.859 273.927 150.876C273.782 150.893 273.619 150.873 273.436 150.816C273.256 150.76 273.066 150.63 272.867 150.427C272.621 150.175 272.459 149.89 272.382 149.574C272.307 149.258 272.326 148.931 272.439 148.592C272.554 148.254 272.774 147.926 273.099 147.608C273.418 147.296 273.751 147.08 274.098 146.96C274.446 146.84 274.783 146.816 275.109 146.889C275.437 146.961 275.729 147.128 275.986 147.391C276.185 147.594 276.308 147.788 276.357 147.973C276.409 148.159 276.423 148.325 276.4 148.472C276.38 148.619 276.36 148.737 276.34 148.825L276.388 148.874L276.883 148.389L277.336 148.852L274.128 151.991C273.86 152.253 273.583 152.406 273.296 152.448C273.008 152.493 272.726 152.452 272.447 152.324C272.169 152.2 271.907 152.013 271.664 151.764ZM273.361 150.07C273.55 150.262 273.753 150.382 273.97 150.428C274.188 150.475 274.413 150.452 274.646 150.359C274.879 150.267 275.11 150.108 275.34 149.883C275.565 149.663 275.73 149.435 275.836 149.199C275.942 148.963 275.978 148.731 275.946 148.503C275.913 148.275 275.802 148.064 275.611 147.869C275.412 147.666 275.195 147.547 274.96 147.512C274.726 147.479 274.489 147.513 274.25 147.615C274.012 147.718 273.787 147.873 273.576 148.08C273.359 148.292 273.201 148.513 273.101 148.744C273.003 148.974 272.972 149.203 273.009 149.43C273.048 149.656 273.165 149.87 273.361 150.07ZM275.076 152.781L278.195 149.729L278.664 150.208L275.545 153.26L275.076 152.781ZM278.953 149.464C278.861 149.37 278.814 149.259 278.812 149.129C278.811 149 278.855 148.892 278.944 148.805C279.033 148.717 279.142 148.676 279.271 148.68C279.401 148.685 279.511 148.735 279.603 148.828C279.694 148.921 279.74 149.032 279.742 149.161C279.744 149.291 279.701 149.4 279.612 149.487C279.522 149.574 279.413 149.615 279.283 149.61C279.154 149.606 279.044 149.557 278.953 149.464ZM277.229 155.127C277.035 154.929 276.897 154.713 276.814 154.48C276.732 154.244 276.716 154.01 276.765 153.776C276.816 153.541 276.943 153.324 277.146 153.125C277.325 152.95 277.504 152.844 277.684 152.805C277.865 152.766 278.045 152.774 278.224 152.829C278.403 152.885 278.577 152.968 278.748 153.08C278.92 153.192 279.087 153.311 279.248 153.437C279.458 153.603 279.626 153.739 279.754 153.844C279.884 153.95 279.991 154.015 280.075 154.039C280.161 154.064 280.242 154.038 280.319 153.963L280.335 153.947C280.536 153.751 280.638 153.544 280.641 153.326C280.646 153.109 280.541 152.89 280.325 152.669C280.101 152.441 279.876 152.31 279.648 152.278C279.421 152.246 279.224 152.26 279.059 152.318L278.776 151.704C279.045 151.6 279.299 151.564 279.537 151.596C279.778 151.628 279.998 151.704 280.198 151.824C280.4 151.944 280.578 152.083 280.731 152.24C280.829 152.34 280.93 152.467 281.033 152.621C281.138 152.775 281.214 152.948 281.26 153.141C281.307 153.336 281.297 153.546 281.229 153.772C281.161 153.998 281.003 154.232 280.755 154.474L278.701 156.485L278.232 156.006L278.654 155.592L278.63 155.568C278.531 155.602 278.405 155.618 278.254 155.618C278.103 155.618 277.938 155.581 277.761 155.508C277.584 155.435 277.406 155.308 277.229 155.127ZM277.731 154.779C277.916 154.968 278.11 155.092 278.311 155.149C278.514 155.207 278.707 155.212 278.89 155.163C279.074 155.115 279.231 155.028 279.361 154.901L279.799 154.472C279.755 154.475 279.689 154.452 279.601 154.403C279.516 154.354 279.422 154.292 279.32 154.217C279.22 154.143 279.124 154.069 279.031 153.995C278.941 153.922 278.867 153.863 278.81 153.818C278.672 153.709 278.531 153.619 278.389 153.546C278.249 153.474 278.111 153.44 277.974 153.443C277.84 153.447 277.712 153.509 277.59 153.628C277.424 153.791 277.358 153.976 277.394 154.182C277.432 154.389 277.544 154.588 277.731 154.779Z" fill="#010101"/>
<path d="M188.409 128.182V134H187.705V128.182H188.409ZM190.401 131.375V134H189.731V129.636H190.379V130.318H190.435C190.538 130.097 190.693 129.919 190.901 129.784C191.11 129.648 191.379 129.58 191.708 129.58C192.004 129.58 192.262 129.64 192.484 129.761C192.705 129.881 192.878 130.062 193.001 130.307C193.124 130.549 193.185 130.856 193.185 131.227V134H192.515V131.273C192.515 130.93 192.426 130.663 192.248 130.472C192.07 130.278 191.826 130.182 191.515 130.182C191.301 130.182 191.11 130.228 190.941 130.321C190.774 130.414 190.643 130.549 190.546 130.727C190.45 130.905 190.401 131.121 190.401 131.375ZM196.308 129.636V130.205H194.047V129.636H196.308ZM194.706 128.591H195.376V132.75C195.376 132.939 195.404 133.081 195.459 133.176C195.516 133.269 195.588 133.331 195.675 133.364C195.764 133.394 195.857 133.409 195.956 133.409C196.03 133.409 196.09 133.405 196.138 133.398C196.185 133.388 196.223 133.381 196.251 133.375L196.388 133.977C196.342 133.994 196.279 134.011 196.197 134.028C196.116 134.047 196.013 134.057 195.888 134.057C195.698 134.057 195.513 134.016 195.331 133.935C195.151 133.853 195.001 133.729 194.882 133.562C194.765 133.396 194.706 133.186 194.706 132.932V128.591ZM199.099 134.091C198.679 134.091 198.316 133.998 198.011 133.812C197.708 133.625 197.474 133.364 197.31 133.028C197.147 132.691 197.065 132.299 197.065 131.852C197.065 131.405 197.147 131.011 197.31 130.67C197.474 130.328 197.704 130.061 197.997 129.869C198.293 129.676 198.637 129.58 199.031 129.58C199.259 129.58 199.483 129.617 199.705 129.693C199.926 129.769 200.128 129.892 200.31 130.062C200.491 130.231 200.636 130.455 200.744 130.733C200.852 131.011 200.906 131.354 200.906 131.761V132.045H197.543V131.466H200.224C200.224 131.22 200.175 131 200.077 130.807C199.98 130.614 199.842 130.461 199.662 130.349C199.484 130.238 199.274 130.182 199.031 130.182C198.764 130.182 198.533 130.248 198.338 130.381C198.145 130.511 197.996 130.682 197.892 130.892C197.788 131.102 197.736 131.328 197.736 131.568V131.955C197.736 132.284 197.793 132.563 197.906 132.793C198.022 133.02 198.182 133.193 198.386 133.312C198.591 133.43 198.829 133.489 199.099 133.489C199.276 133.489 199.435 133.464 199.577 133.415C199.721 133.364 199.845 133.288 199.949 133.188C200.053 133.085 200.134 132.958 200.19 132.807L200.838 132.989C200.77 133.208 200.655 133.402 200.494 133.568C200.333 133.733 200.134 133.862 199.898 133.955C199.661 134.045 199.395 134.091 199.099 134.091ZM203.688 135.727C203.364 135.727 203.085 135.686 202.852 135.602C202.619 135.521 202.425 135.413 202.27 135.278C202.116 135.146 201.994 135.004 201.903 134.852L202.438 134.477C202.498 134.557 202.575 134.648 202.668 134.75C202.76 134.854 202.887 134.944 203.048 135.02C203.211 135.098 203.424 135.136 203.688 135.136C204.04 135.136 204.33 135.051 204.56 134.881C204.789 134.71 204.903 134.443 204.903 134.08V133.193H204.847C204.797 133.273 204.727 133.371 204.636 133.489C204.547 133.604 204.419 133.707 204.25 133.798C204.083 133.887 203.858 133.932 203.574 133.932C203.222 133.932 202.905 133.848 202.625 133.682C202.347 133.515 202.126 133.273 201.963 132.955C201.802 132.636 201.722 132.25 201.722 131.795C201.722 131.348 201.8 130.959 201.957 130.628C202.115 130.295 202.333 130.037 202.614 129.855C202.894 129.671 203.218 129.58 203.585 129.58C203.869 129.58 204.095 129.627 204.261 129.722C204.43 129.814 204.559 129.92 204.648 130.04C204.739 130.157 204.809 130.254 204.858 130.33H204.926V129.636H205.574V134.125C205.574 134.5 205.489 134.805 205.318 135.04C205.15 135.277 204.922 135.45 204.636 135.56C204.352 135.671 204.036 135.727 203.688 135.727ZM203.665 133.33C203.934 133.33 204.161 133.268 204.347 133.145C204.532 133.022 204.673 132.845 204.77 132.614C204.866 132.383 204.915 132.106 204.915 131.784C204.915 131.47 204.867 131.192 204.773 130.952C204.678 130.711 204.538 130.523 204.352 130.386C204.167 130.25 203.938 130.182 203.665 130.182C203.381 130.182 203.144 130.254 202.955 130.398C202.767 130.542 202.626 130.735 202.531 130.977C202.438 131.22 202.392 131.489 202.392 131.784C202.392 132.087 202.439 132.355 202.534 132.588C202.631 132.819 202.773 133.001 202.96 133.134C203.15 133.264 203.384 133.33 203.665 133.33ZM206.801 134V129.636H207.449V130.295H207.494C207.574 130.08 207.718 129.904 207.926 129.77C208.134 129.635 208.369 129.568 208.631 129.568C208.68 129.568 208.741 129.569 208.815 129.571C208.889 129.573 208.945 129.576 208.983 129.58V130.261C208.96 130.256 208.908 130.247 208.827 130.236C208.747 130.223 208.663 130.216 208.574 130.216C208.362 130.216 208.172 130.26 208.006 130.349C207.841 130.437 207.71 130.558 207.614 130.713C207.519 130.866 207.472 131.042 207.472 131.239V134H206.801ZM211.062 134.102C210.785 134.102 210.534 134.05 210.309 133.946C210.084 133.84 209.905 133.688 209.772 133.489C209.639 133.288 209.573 133.045 209.573 132.761C209.573 132.511 209.622 132.309 209.721 132.153C209.819 131.996 209.951 131.873 210.116 131.784C210.281 131.695 210.462 131.629 210.661 131.585C210.862 131.54 211.064 131.504 211.266 131.477C211.531 131.443 211.746 131.418 211.911 131.401C212.078 131.382 212.199 131.35 212.275 131.307C212.353 131.263 212.391 131.187 212.391 131.08V131.057C212.391 130.777 212.315 130.559 212.161 130.403C212.01 130.248 211.78 130.17 211.471 130.17C211.151 130.17 210.9 130.241 210.718 130.381C210.536 130.521 210.408 130.67 210.335 130.83L209.698 130.602C209.812 130.337 209.963 130.131 210.153 129.983C210.344 129.833 210.552 129.729 210.778 129.67C211.005 129.61 211.228 129.58 211.448 129.58C211.588 129.58 211.749 129.597 211.931 129.631C212.115 129.663 212.292 129.73 212.462 129.832C212.635 129.935 212.778 130.089 212.891 130.295C213.005 130.502 213.062 130.778 213.062 131.125V134H212.391V133.409H212.357C212.312 133.504 212.236 133.605 212.13 133.713C212.024 133.821 211.883 133.913 211.707 133.989C211.531 134.064 211.316 134.102 211.062 134.102ZM211.164 133.5C211.429 133.5 211.653 133.448 211.835 133.344C212.018 133.24 212.156 133.105 212.249 132.94C212.344 132.776 212.391 132.602 212.391 132.42V131.807C212.363 131.841 212.3 131.872 212.204 131.901C212.109 131.927 211.999 131.951 211.874 131.972C211.751 131.991 211.631 132.008 211.513 132.023C211.398 132.036 211.304 132.047 211.232 132.057C211.058 132.08 210.895 132.116 210.744 132.168C210.594 132.217 210.473 132.292 210.38 132.392C210.289 132.491 210.244 132.625 210.244 132.795C210.244 133.028 210.33 133.205 210.502 133.324C210.676 133.441 210.897 133.5 211.164 133.5Z" fill="#2742D0"/>
<path d="M125.637 142.819L125.139 143.317C124.966 143.203 124.789 143.129 124.607 143.094C124.426 143.058 124.246 143.055 124.068 143.086C123.89 143.114 123.719 143.172 123.556 143.261C123.393 143.349 123.243 143.462 123.106 143.598C122.857 143.847 122.694 144.136 122.618 144.464C122.543 144.791 122.568 145.136 122.694 145.5C122.821 145.863 123.063 146.223 123.419 146.579C123.776 146.935 124.135 147.177 124.498 147.304C124.862 147.43 125.208 147.456 125.535 147.381C125.863 147.304 126.151 147.142 126.401 146.893C126.537 146.756 126.65 146.606 126.738 146.443C126.826 146.279 126.885 146.109 126.915 145.932C126.944 145.753 126.941 145.573 126.905 145.392C126.869 145.209 126.794 145.031 126.682 144.86L127.18 144.361C127.353 144.609 127.473 144.866 127.54 145.131C127.606 145.396 127.625 145.661 127.594 145.924C127.562 146.187 127.484 146.44 127.361 146.684C127.239 146.926 127.074 147.151 126.867 147.359C126.516 147.71 126.118 147.936 125.673 148.038C125.229 148.139 124.77 148.111 124.297 147.951C123.825 147.792 123.371 147.495 122.937 147.061C122.503 146.627 122.207 146.174 122.047 145.701C121.888 145.229 121.859 144.77 121.961 144.325C122.063 143.881 122.289 143.483 122.64 143.132C122.848 142.925 123.073 142.76 123.315 142.638C123.559 142.515 123.812 142.438 124.076 142.407C124.339 142.375 124.603 142.392 124.868 142.459C125.132 142.525 125.388 142.645 125.637 142.819ZM129.206 144.906L126.121 141.821L126.595 141.347L129.68 144.432L129.206 144.906ZM125.848 141.066C125.755 141.158 125.644 141.206 125.514 141.21C125.386 141.213 125.277 141.17 125.189 141.082C125.1 140.993 125.057 140.885 125.06 140.756C125.064 140.626 125.112 140.515 125.205 140.423C125.297 140.33 125.408 140.283 125.536 140.28C125.666 140.276 125.775 140.318 125.864 140.407C125.952 140.495 125.994 140.604 125.99 140.734C125.988 140.863 125.94 140.973 125.848 141.066ZM131.907 142.335C131.609 142.632 131.287 142.823 130.94 142.907C130.594 142.989 130.243 142.969 129.89 142.849C129.536 142.726 129.201 142.506 128.885 142.19C128.569 141.874 128.348 141.538 128.223 141.182C128.097 140.823 128.07 140.472 128.142 140.129C128.214 139.783 128.39 139.471 128.668 139.193C128.829 139.032 129.015 138.9 129.225 138.797C129.435 138.694 129.665 138.638 129.914 138.63C130.162 138.621 130.422 138.677 130.695 138.797C130.969 138.918 131.249 139.122 131.537 139.41L131.738 139.611L129.36 141.989L128.95 141.579L130.846 139.683C130.672 139.509 130.482 139.388 130.276 139.321C130.071 139.253 129.865 139.243 129.659 139.291C129.454 139.338 129.266 139.447 129.094 139.619C128.906 139.807 128.789 140.018 128.745 140.249C128.701 140.478 128.716 140.704 128.791 140.926C128.866 141.149 128.989 141.345 129.159 141.515L129.432 141.788C129.665 142.021 129.903 142.179 130.145 142.26C130.387 142.339 130.623 142.349 130.852 142.288C131.08 142.227 131.289 142.1 131.481 141.909C131.605 141.784 131.7 141.654 131.766 141.519C131.832 141.381 131.866 141.24 131.869 141.095C131.87 140.949 131.837 140.803 131.77 140.655L132.357 140.326C132.464 140.529 132.519 140.747 132.523 140.979C132.526 141.209 132.477 141.441 132.375 141.674C132.272 141.905 132.116 142.126 131.907 142.335ZM128.733 138.47L127.752 138.325L127.897 139.305L127.447 139.755L127.415 139.723L127.23 138.237L127.664 137.803L129.151 137.987L129.183 138.02L128.733 138.47ZM132.459 137.941L134.315 139.797L133.841 140.272L130.756 137.186L131.214 136.728L131.696 137.21L131.736 137.17C131.652 136.941 131.636 136.705 131.688 136.463C131.739 136.219 131.881 135.981 132.114 135.748C132.323 135.539 132.548 135.399 132.791 135.328C133.032 135.255 133.282 135.262 133.542 135.348C133.8 135.432 134.061 135.606 134.323 135.868L136.284 137.829L135.81 138.303L133.881 136.374C133.639 136.132 133.387 136.006 133.126 135.997C132.864 135.986 132.623 136.09 132.403 136.31C132.252 136.461 132.149 136.63 132.096 136.814C132.043 136.998 132.046 137.187 132.104 137.381C132.161 137.575 132.28 137.762 132.459 137.941ZM138.468 135.773C138.179 136.063 137.861 136.243 137.516 136.316C137.17 136.388 136.821 136.36 136.469 136.233C136.117 136.106 135.787 135.888 135.479 135.58C135.166 135.267 134.947 134.933 134.822 134.578C134.697 134.22 134.671 133.87 134.744 133.527C134.816 133.182 134.991 132.87 135.27 132.591C135.487 132.374 135.723 132.219 135.977 132.125C136.232 132.031 136.487 132.001 136.742 132.035C136.998 132.068 137.236 132.168 137.456 132.334L136.982 132.808C136.805 132.704 136.6 132.66 136.367 132.676C136.134 132.689 135.913 132.8 135.704 133.009C135.519 133.194 135.405 133.404 135.362 133.64C135.32 133.873 135.346 134.115 135.443 134.367C135.539 134.616 135.704 134.857 135.937 135.09C136.175 135.329 136.42 135.499 136.672 135.6C136.925 135.701 137.17 135.731 137.405 135.691C137.642 135.649 137.855 135.535 138.042 135.347C138.165 135.224 138.256 135.091 138.313 134.948C138.371 134.804 138.394 134.658 138.384 134.508C138.373 134.358 138.326 134.212 138.243 134.07L138.717 133.596C138.872 133.805 138.97 134.035 139.01 134.287C139.051 134.536 139.027 134.79 138.94 135.048C138.853 135.304 138.696 135.546 138.468 135.773ZM140.31 133.803L137.225 130.717L137.699 130.243L140.784 133.329L140.31 133.803ZM136.951 129.962C136.859 130.054 136.748 130.102 136.618 130.106C136.489 130.109 136.381 130.066 136.292 129.978C136.204 129.889 136.161 129.781 136.164 129.652C136.168 129.522 136.216 129.411 136.309 129.319C136.401 129.226 136.511 129.179 136.64 129.176C136.77 129.172 136.879 129.214 136.967 129.303C137.056 129.391 137.098 129.5 137.094 129.63C137.091 129.759 137.044 129.869 136.951 129.962ZM142.633 131.625C142.437 131.82 142.223 131.961 141.99 132.046C141.756 132.131 141.521 132.149 141.287 132.103C141.051 132.054 140.833 131.93 140.632 131.729C140.455 131.552 140.347 131.374 140.307 131.195C140.265 131.014 140.271 130.834 140.325 130.654C140.378 130.475 140.46 130.299 140.57 130.128C140.68 129.954 140.797 129.786 140.921 129.624C141.085 129.412 141.219 129.242 141.323 129.113C141.428 128.982 141.491 128.874 141.514 128.79C141.538 128.704 141.512 128.623 141.436 128.547L141.42 128.531C141.221 128.333 141.013 128.233 140.795 128.232C140.578 128.229 140.36 128.337 140.142 128.555C139.916 128.781 139.788 129.008 139.758 129.236C139.729 129.464 139.744 129.66 139.804 129.825L139.194 130.114C139.087 129.846 139.048 129.593 139.077 129.355C139.107 129.113 139.18 128.893 139.298 128.692C139.416 128.488 139.553 128.309 139.708 128.153C139.807 128.054 139.933 127.952 140.086 127.848C140.238 127.741 140.411 127.663 140.604 127.615C140.798 127.565 141.008 127.573 141.235 127.639C141.461 127.705 141.697 127.86 141.942 128.105L143.975 130.138L143.501 130.612L143.083 130.194L143.059 130.218C143.094 130.317 143.112 130.443 143.113 130.594C143.114 130.745 143.079 130.91 143.008 131.088C142.938 131.266 142.812 131.445 142.633 131.625ZM142.279 131.126C142.467 130.939 142.588 130.744 142.643 130.542C142.699 130.338 142.702 130.145 142.651 129.963C142.601 129.78 142.512 129.624 142.384 129.495L141.95 129.061C141.954 129.105 141.932 129.172 141.884 129.26C141.835 129.346 141.774 129.44 141.701 129.543C141.627 129.644 141.554 129.741 141.482 129.835C141.409 129.926 141.351 130 141.307 130.058C141.2 130.197 141.111 130.338 141.04 130.481C140.969 130.622 140.936 130.761 140.941 130.897C140.947 131.031 141.01 131.158 141.13 131.279C141.295 131.444 141.48 131.507 141.687 131.47C141.893 131.43 142.09 131.315 142.279 131.126Z" fill="#010101"/>
<path d="M112.705 209V203.182H116.216V203.807H113.409V205.773H116.034V206.398H113.409V208.375H116.261V209H112.705ZM119.043 209.091C118.679 209.091 118.358 208.999 118.08 208.815C117.801 208.63 117.583 208.368 117.426 208.031C117.269 207.692 117.19 207.292 117.19 206.83C117.19 206.371 117.269 205.973 117.426 205.636C117.583 205.299 117.802 205.039 118.082 204.855C118.363 204.671 118.687 204.58 119.054 204.58C119.338 204.58 119.563 204.627 119.727 204.722C119.894 204.814 120.021 204.92 120.108 205.04C120.197 205.157 120.266 205.254 120.315 205.33H120.372V203.182H121.043V209H120.395V208.33H120.315C120.266 208.409 120.196 208.509 120.105 208.631C120.014 208.75 119.884 208.857 119.716 208.952C119.547 209.045 119.323 209.091 119.043 209.091ZM119.134 208.489C119.402 208.489 119.63 208.419 119.815 208.278C120.001 208.136 120.142 207.94 120.239 207.69C120.335 207.438 120.384 207.148 120.384 206.818C120.384 206.492 120.336 206.207 120.241 205.963C120.147 205.717 120.007 205.526 119.821 205.389C119.635 205.251 119.406 205.182 119.134 205.182C118.849 205.182 118.613 205.255 118.423 205.401C118.236 205.545 118.095 205.741 118 205.989C117.907 206.235 117.861 206.511 117.861 206.818C117.861 207.129 117.908 207.411 118.003 207.665C118.099 207.917 118.241 208.117 118.429 208.267C118.618 208.415 118.853 208.489 119.134 208.489ZM125.114 207.216V204.636H125.784V209H125.114V208.261H125.068C124.966 208.483 124.807 208.671 124.591 208.827C124.375 208.98 124.102 209.057 123.773 209.057C123.5 209.057 123.258 208.997 123.045 208.878C122.833 208.757 122.667 208.575 122.545 208.332C122.424 208.088 122.364 207.78 122.364 207.409V204.636H123.034V207.364C123.034 207.682 123.123 207.936 123.301 208.125C123.481 208.314 123.71 208.409 123.989 208.409C124.155 208.409 124.325 208.366 124.497 208.281C124.671 208.196 124.817 208.065 124.935 207.889C125.054 207.713 125.114 207.489 125.114 207.216ZM128.785 209.091C128.376 209.091 128.023 208.994 127.728 208.801C127.433 208.608 127.205 208.342 127.046 208.003C126.887 207.664 126.808 207.277 126.808 206.841C126.808 206.398 126.889 206.007 127.052 205.668C127.217 205.327 127.446 205.061 127.739 204.869C128.035 204.676 128.379 204.58 128.773 204.58C129.08 204.58 129.357 204.636 129.603 204.75C129.849 204.864 130.051 205.023 130.208 205.227C130.365 205.432 130.463 205.67 130.501 205.943H129.83C129.779 205.744 129.665 205.568 129.489 205.415C129.315 205.259 129.08 205.182 128.785 205.182C128.523 205.182 128.294 205.25 128.097 205.386C127.902 205.521 127.75 205.711 127.64 205.957C127.532 206.202 127.478 206.489 127.478 206.818C127.478 207.155 127.531 207.449 127.637 207.699C127.745 207.949 127.897 208.143 128.092 208.281C128.289 208.42 128.52 208.489 128.785 208.489C128.959 208.489 129.117 208.458 129.259 208.398C129.401 208.337 129.522 208.25 129.62 208.136C129.719 208.023 129.789 207.886 129.83 207.727H130.501C130.463 207.985 130.369 208.217 130.219 208.423C130.072 208.628 129.876 208.791 129.631 208.912C129.389 209.031 129.107 209.091 128.785 209.091ZM132.765 209.102C132.488 209.102 132.237 209.05 132.012 208.946C131.787 208.84 131.608 208.688 131.475 208.489C131.343 208.288 131.276 208.045 131.276 207.761C131.276 207.511 131.326 207.309 131.424 207.153C131.522 206.996 131.654 206.873 131.819 206.784C131.984 206.695 132.165 206.629 132.364 206.585C132.565 206.54 132.767 206.504 132.969 206.477C133.235 206.443 133.45 206.418 133.614 206.401C133.781 206.382 133.902 206.35 133.978 206.307C134.056 206.263 134.094 206.187 134.094 206.08V206.057C134.094 205.777 134.018 205.559 133.864 205.403C133.713 205.248 133.483 205.17 133.174 205.17C132.854 205.17 132.603 205.241 132.421 205.381C132.239 205.521 132.112 205.67 132.038 205.83L131.401 205.602C131.515 205.337 131.666 205.131 131.856 204.983C132.047 204.833 132.255 204.729 132.481 204.67C132.708 204.61 132.932 204.58 133.151 204.58C133.291 204.58 133.452 204.597 133.634 204.631C133.818 204.663 133.995 204.73 134.165 204.832C134.338 204.935 134.481 205.089 134.594 205.295C134.708 205.502 134.765 205.778 134.765 206.125V209H134.094V208.409H134.06C134.015 208.504 133.939 208.605 133.833 208.713C133.727 208.821 133.586 208.913 133.41 208.989C133.234 209.064 133.019 209.102 132.765 209.102ZM132.867 208.5C133.132 208.5 133.356 208.448 133.538 208.344C133.721 208.24 133.86 208.105 133.952 207.94C134.047 207.776 134.094 207.602 134.094 207.42V206.807C134.066 206.841 134.004 206.872 133.907 206.901C133.812 206.927 133.702 206.951 133.577 206.972C133.454 206.991 133.334 207.008 133.217 207.023C133.101 207.036 133.007 207.047 132.935 207.057C132.761 207.08 132.598 207.116 132.447 207.168C132.297 207.217 132.176 207.292 132.083 207.392C131.992 207.491 131.947 207.625 131.947 207.795C131.947 208.028 132.033 208.205 132.205 208.324C132.379 208.441 132.6 208.5 132.867 208.5Z" fill="#2742D0"/>
<path d="M256.386 203.807V203.182H260.75V203.807H258.92V209H258.216V203.807H256.386ZM261.293 209V204.636H261.941V205.295H261.987C262.066 205.08 262.21 204.904 262.418 204.77C262.627 204.635 262.862 204.568 263.123 204.568C263.172 204.568 263.234 204.569 263.308 204.571C263.381 204.573 263.437 204.576 263.475 204.58V205.261C263.452 205.256 263.4 205.247 263.319 205.236C263.239 205.223 263.155 205.216 263.066 205.216C262.854 205.216 262.665 205.26 262.498 205.349C262.333 205.437 262.202 205.558 262.106 205.713C262.011 205.866 261.964 206.042 261.964 206.239V209H261.293ZM265.554 209.102C265.277 209.102 265.027 209.05 264.801 208.946C264.576 208.84 264.397 208.688 264.264 208.489C264.132 208.288 264.065 208.045 264.065 207.761C264.065 207.511 264.115 207.309 264.213 207.153C264.312 206.996 264.443 206.873 264.608 206.784C264.773 206.695 264.955 206.629 265.153 206.585C265.354 206.54 265.556 206.504 265.759 206.477C266.024 206.443 266.239 206.418 266.403 206.401C266.57 206.382 266.691 206.35 266.767 206.307C266.845 206.263 266.884 206.187 266.884 206.08V206.057C266.884 205.777 266.807 205.559 266.653 205.403C266.502 205.248 266.272 205.17 265.963 205.17C265.643 205.17 265.392 205.241 265.21 205.381C265.028 205.521 264.901 205.67 264.827 205.83L264.19 205.602C264.304 205.337 264.455 205.131 264.645 204.983C264.836 204.833 265.045 204.729 265.27 204.67C265.497 204.61 265.721 204.58 265.94 204.58C266.08 204.58 266.241 204.597 266.423 204.631C266.607 204.663 266.784 204.73 266.955 204.832C267.127 204.935 267.27 205.089 267.384 205.295C267.497 205.502 267.554 205.778 267.554 206.125V209H266.884V208.409H266.849C266.804 208.504 266.728 208.605 266.622 208.713C266.516 208.821 266.375 208.913 266.199 208.989C266.023 209.064 265.808 209.102 265.554 209.102ZM265.656 208.5C265.921 208.5 266.145 208.448 266.327 208.344C266.51 208.24 266.649 208.105 266.741 207.94C266.836 207.776 266.884 207.602 266.884 207.42V206.807C266.855 206.841 266.793 206.872 266.696 206.901C266.601 206.927 266.491 206.951 266.366 206.972C266.243 206.991 266.123 207.008 266.006 207.023C265.89 207.036 265.796 207.047 265.724 207.057C265.55 207.08 265.387 207.116 265.236 207.168C265.086 207.217 264.965 207.292 264.872 207.392C264.781 207.491 264.736 207.625 264.736 207.795C264.736 208.028 264.822 208.205 264.994 208.324C265.169 208.441 265.389 208.5 265.656 208.5ZM269.448 206.375V209H268.778V204.636H269.425V205.318H269.482C269.585 205.097 269.74 204.919 269.948 204.784C270.156 204.648 270.425 204.58 270.755 204.58C271.05 204.58 271.309 204.64 271.531 204.761C271.752 204.881 271.924 205.062 272.048 205.307C272.171 205.549 272.232 205.856 272.232 206.227V209H271.562V206.273C271.562 205.93 271.473 205.663 271.295 205.472C271.117 205.278 270.872 205.182 270.562 205.182C270.348 205.182 270.156 205.228 269.988 205.321C269.821 205.414 269.69 205.549 269.593 205.727C269.496 205.905 269.448 206.121 269.448 206.375ZM276.548 205.614L275.946 205.784C275.908 205.684 275.852 205.586 275.778 205.491C275.706 205.395 275.608 205.315 275.483 205.253C275.358 205.19 275.198 205.159 275.003 205.159C274.736 205.159 274.513 205.221 274.335 205.344C274.159 205.465 274.071 205.619 274.071 205.807C274.071 205.973 274.132 206.105 274.253 206.202C274.374 206.298 274.563 206.379 274.821 206.443L275.469 206.602C275.859 206.697 276.15 206.842 276.341 207.037C276.532 207.23 276.628 207.479 276.628 207.784C276.628 208.034 276.556 208.258 276.412 208.455C276.27 208.652 276.071 208.807 275.815 208.92C275.56 209.034 275.262 209.091 274.923 209.091C274.478 209.091 274.11 208.994 273.818 208.801C273.527 208.608 273.342 208.326 273.264 207.955L273.901 207.795C273.961 208.03 274.076 208.206 274.244 208.324C274.415 208.441 274.637 208.5 274.912 208.5C275.224 208.5 275.473 208.434 275.656 208.301C275.842 208.167 275.935 208.006 275.935 207.818C275.935 207.667 275.882 207.54 275.776 207.438C275.67 207.333 275.507 207.256 275.287 207.205L274.56 207.034C274.16 206.939 273.866 206.793 273.679 206.594C273.493 206.393 273.401 206.142 273.401 205.841C273.401 205.595 273.47 205.377 273.608 205.188C273.748 204.998 273.938 204.849 274.179 204.741C274.421 204.634 274.696 204.58 275.003 204.58C275.435 204.58 275.774 204.674 276.02 204.864C276.268 205.053 276.444 205.303 276.548 205.614ZM279.58 204.636V205.205H277.228V204.636H279.58ZM277.933 209V204.034C277.933 203.784 277.991 203.576 278.109 203.409C278.226 203.242 278.379 203.117 278.566 203.034C278.754 202.951 278.951 202.909 279.16 202.909C279.325 202.909 279.459 202.922 279.563 202.949C279.667 202.975 279.745 203 279.796 203.023L279.603 203.602C279.569 203.591 279.522 203.577 279.461 203.56C279.402 203.543 279.325 203.534 279.228 203.534C279.006 203.534 278.846 203.59 278.748 203.702C278.651 203.813 278.603 203.977 278.603 204.193V209H277.933ZM282.113 209.091C281.719 209.091 281.373 208.997 281.076 208.81C280.781 208.622 280.549 208.36 280.383 208.023C280.218 207.686 280.136 207.292 280.136 206.841C280.136 206.386 280.218 205.99 280.383 205.651C280.549 205.312 280.781 205.048 281.076 204.861C281.373 204.673 281.719 204.58 282.113 204.58C282.507 204.58 282.852 204.673 283.147 204.861C283.444 205.048 283.675 205.312 283.84 205.651C284.007 205.99 284.09 206.386 284.09 206.841C284.09 207.292 284.007 207.686 283.84 208.023C283.675 208.36 283.444 208.622 283.147 208.81C282.852 208.997 282.507 209.091 282.113 209.091ZM282.113 208.489C282.412 208.489 282.658 208.412 282.852 208.259C283.045 208.105 283.188 207.903 283.281 207.653C283.373 207.403 283.42 207.133 283.42 206.841C283.42 206.549 283.373 206.277 283.281 206.026C283.188 205.774 283.045 205.57 282.852 205.415C282.658 205.259 282.412 205.182 282.113 205.182C281.814 205.182 281.567 205.259 281.374 205.415C281.181 205.57 281.038 205.774 280.945 206.026C280.853 206.277 280.806 206.549 280.806 206.841C280.806 207.133 280.853 207.403 280.945 207.653C281.038 207.903 281.181 208.105 281.374 208.259C281.567 208.412 281.814 208.489 282.113 208.489ZM285.114 209V204.636H285.761V205.295H285.807C285.886 205.08 286.03 204.904 286.239 204.77C286.447 204.635 286.682 204.568 286.943 204.568C286.992 204.568 287.054 204.569 287.128 204.571C287.202 204.573 287.258 204.576 287.295 204.58V205.261C287.273 205.256 287.221 205.247 287.139 205.236C287.06 205.223 286.975 205.216 286.886 205.216C286.674 205.216 286.485 205.26 286.318 205.349C286.153 205.437 286.023 205.558 285.926 205.713C285.831 205.866 285.784 206.042 285.784 206.239V209H285.114ZM288.09 209V204.636H288.738V205.318H288.795C288.886 205.085 289.032 204.904 289.235 204.776C289.438 204.645 289.681 204.58 289.965 204.58C290.253 204.58 290.493 204.645 290.684 204.776C290.877 204.904 291.028 205.085 291.136 205.318H291.181C291.293 205.093 291.46 204.914 291.684 204.781C291.907 204.647 292.175 204.58 292.488 204.58C292.878 204.58 293.197 204.702 293.445 204.946C293.693 205.188 293.817 205.566 293.817 206.08V209H293.147V206.08C293.147 205.758 293.059 205.527 292.883 205.389C292.707 205.251 292.499 205.182 292.261 205.182C291.954 205.182 291.716 205.275 291.548 205.46C291.379 205.644 291.295 205.877 291.295 206.159V209H290.613V206.011C290.613 205.763 290.532 205.563 290.371 205.412C290.21 205.259 290.003 205.182 289.749 205.182C289.575 205.182 289.412 205.228 289.261 205.321C289.111 205.414 288.99 205.543 288.897 205.707C288.806 205.87 288.761 206.059 288.761 206.273V209H288.09ZM296.327 209.102C296.051 209.102 295.8 209.05 295.575 208.946C295.349 208.84 295.17 208.688 295.038 208.489C294.905 208.288 294.839 208.045 294.839 207.761C294.839 207.511 294.888 207.309 294.987 207.153C295.085 206.996 295.217 206.873 295.381 206.784C295.546 206.695 295.728 206.629 295.927 206.585C296.128 206.54 296.329 206.504 296.532 206.477C296.797 206.443 297.012 206.418 297.177 206.401C297.344 206.382 297.465 206.35 297.54 206.307C297.618 206.263 297.657 206.187 297.657 206.08V206.057C297.657 205.777 297.58 205.559 297.427 205.403C297.275 205.248 297.045 205.17 296.737 205.17C296.416 205.17 296.165 205.241 295.984 205.381C295.802 205.521 295.674 205.67 295.6 205.83L294.964 205.602C295.077 205.337 295.229 205.131 295.418 204.983C295.61 204.833 295.818 204.729 296.043 204.67C296.271 204.61 296.494 204.58 296.714 204.58C296.854 204.58 297.015 204.597 297.197 204.631C297.38 204.663 297.558 204.73 297.728 204.832C297.9 204.935 298.043 205.089 298.157 205.295C298.271 205.502 298.327 205.778 298.327 206.125V209H297.657V208.409H297.623C297.577 208.504 297.502 208.605 297.396 208.713C297.29 208.821 297.148 208.913 296.972 208.989C296.796 209.064 296.581 209.102 296.327 209.102ZM296.43 208.5C296.695 208.5 296.918 208.448 297.1 208.344C297.284 208.24 297.422 208.105 297.515 207.94C297.61 207.776 297.657 207.602 297.657 207.42V206.807C297.629 206.841 297.566 206.872 297.469 206.901C297.375 206.927 297.265 206.951 297.14 206.972C297.017 206.991 296.897 207.008 296.779 207.023C296.664 207.036 296.57 207.047 296.498 207.057C296.324 207.08 296.161 207.116 296.009 207.168C295.86 207.217 295.738 207.292 295.646 207.392C295.555 207.491 295.509 207.625 295.509 207.795C295.509 208.028 295.595 208.205 295.768 208.324C295.942 208.441 296.163 208.5 296.43 208.5Z" fill="#2742D0"/>
<path d="M185.705 284V278.182H187.67C188.127 278.182 188.5 278.264 188.79 278.429C189.081 278.592 189.297 278.812 189.438 279.091C189.578 279.369 189.648 279.68 189.648 280.023C189.648 280.366 189.578 280.677 189.438 280.957C189.299 281.238 189.085 281.461 188.795 281.628C188.506 281.793 188.134 281.875 187.682 281.875H186.273V281.25H187.659C187.972 281.25 188.223 281.196 188.412 281.088C188.601 280.98 188.739 280.834 188.824 280.651C188.911 280.465 188.955 280.256 188.955 280.023C188.955 279.79 188.911 279.581 188.824 279.398C188.739 279.214 188.6 279.07 188.409 278.966C188.218 278.86 187.964 278.807 187.648 278.807H186.409V284H185.705ZM190.692 284V279.636H191.339V280.295H191.385C191.464 280.08 191.608 279.904 191.817 279.77C192.025 279.635 192.26 279.568 192.521 279.568C192.571 279.568 192.632 279.569 192.706 279.571C192.78 279.573 192.836 279.576 192.874 279.58V280.261C192.851 280.256 192.799 280.247 192.717 280.236C192.638 280.223 192.554 280.216 192.464 280.216C192.252 280.216 192.063 280.26 191.896 280.349C191.732 280.437 191.601 280.558 191.504 280.713C191.41 280.866 191.362 281.042 191.362 281.239V284H190.692ZM195.308 284.091C194.914 284.091 194.569 283.997 194.271 283.81C193.976 283.622 193.745 283.36 193.578 283.023C193.413 282.686 193.331 282.292 193.331 281.841C193.331 281.386 193.413 280.99 193.578 280.651C193.745 280.312 193.976 280.048 194.271 279.861C194.569 279.673 194.914 279.58 195.308 279.58C195.702 279.58 196.047 279.673 196.342 279.861C196.64 280.048 196.871 280.312 197.036 280.651C197.202 280.99 197.286 281.386 197.286 281.841C197.286 282.292 197.202 282.686 197.036 283.023C196.871 283.36 196.64 283.622 196.342 283.81C196.047 283.997 195.702 284.091 195.308 284.091ZM195.308 283.489C195.607 283.489 195.854 283.412 196.047 283.259C196.24 283.105 196.383 282.903 196.476 282.653C196.569 282.403 196.615 282.133 196.615 281.841C196.615 281.549 196.569 281.277 196.476 281.026C196.383 280.774 196.24 280.57 196.047 280.415C195.854 280.259 195.607 280.182 195.308 280.182C195.009 280.182 194.763 280.259 194.57 280.415C194.376 280.57 194.233 280.774 194.141 281.026C194.048 281.277 194.001 281.549 194.001 281.841C194.001 282.133 194.048 282.403 194.141 282.653C194.233 282.903 194.376 283.105 194.57 283.259C194.763 283.412 195.009 283.489 195.308 283.489ZM200.207 279.636V280.205H197.945V279.636H200.207ZM198.604 278.591H199.275V282.75C199.275 282.939 199.302 283.081 199.357 283.176C199.414 283.269 199.486 283.331 199.573 283.364C199.662 283.394 199.756 283.409 199.854 283.409C199.928 283.409 199.989 283.405 200.036 283.398C200.084 283.388 200.121 283.381 200.15 283.375L200.286 283.977C200.241 283.994 200.177 284.011 200.096 284.028C200.014 284.047 199.911 284.057 199.786 284.057C199.597 284.057 199.411 284.016 199.229 283.935C199.049 283.853 198.9 283.729 198.781 283.562C198.663 283.396 198.604 283.186 198.604 282.932V278.591ZM202.998 284.091C202.577 284.091 202.215 283.998 201.91 283.812C201.607 283.625 201.373 283.364 201.208 283.028C201.045 282.691 200.964 282.299 200.964 281.852C200.964 281.405 201.045 281.011 201.208 280.67C201.373 280.328 201.602 280.061 201.896 279.869C202.191 279.676 202.536 279.58 202.93 279.58C203.157 279.58 203.381 279.617 203.603 279.693C203.825 279.769 204.026 279.892 204.208 280.062C204.39 280.231 204.535 280.455 204.643 280.733C204.751 281.011 204.805 281.354 204.805 281.761V282.045H201.441V281.466H204.123C204.123 281.22 204.074 281 203.975 280.807C203.879 280.614 203.74 280.461 203.56 280.349C203.382 280.238 203.172 280.182 202.93 280.182C202.663 280.182 202.432 280.248 202.237 280.381C202.043 280.511 201.895 280.682 201.79 280.892C201.686 281.102 201.634 281.328 201.634 281.568V281.955C201.634 282.284 201.691 282.563 201.805 282.793C201.92 283.02 202.08 283.193 202.285 283.312C202.489 283.43 202.727 283.489 202.998 283.489C203.174 283.489 203.333 283.464 203.475 283.415C203.619 283.364 203.743 283.288 203.847 283.188C203.951 283.085 204.032 282.958 204.089 282.807L204.737 282.989C204.668 283.208 204.554 283.402 204.393 283.568C204.232 283.733 204.033 283.862 203.796 283.955C203.559 284.045 203.293 284.091 202.998 284.091ZM207.586 285.727C207.262 285.727 206.984 285.686 206.751 285.602C206.518 285.521 206.324 285.413 206.168 285.278C206.015 285.146 205.893 285.004 205.802 284.852L206.336 284.477C206.397 284.557 206.473 284.648 206.566 284.75C206.659 284.854 206.786 284.944 206.947 285.02C207.11 285.098 207.323 285.136 207.586 285.136C207.938 285.136 208.229 285.051 208.458 284.881C208.687 284.71 208.802 284.443 208.802 284.08V283.193H208.745C208.696 283.273 208.626 283.371 208.535 283.489C208.446 283.604 208.317 283.707 208.148 283.798C207.982 283.887 207.756 283.932 207.472 283.932C207.12 283.932 206.804 283.848 206.523 283.682C206.245 283.515 206.024 283.273 205.862 282.955C205.701 282.636 205.62 282.25 205.62 281.795C205.62 281.348 205.699 280.959 205.856 280.628C206.013 280.295 206.232 280.037 206.512 279.855C206.792 279.671 207.116 279.58 207.484 279.58C207.768 279.58 207.993 279.627 208.16 279.722C208.328 279.814 208.457 279.92 208.546 280.04C208.637 280.157 208.707 280.254 208.756 280.33H208.825V279.636H209.472V284.125C209.472 284.5 209.387 284.805 209.217 285.04C209.048 285.277 208.821 285.45 208.535 285.56C208.251 285.671 207.934 285.727 207.586 285.727ZM207.563 283.33C207.832 283.33 208.059 283.268 208.245 283.145C208.431 283.022 208.572 282.845 208.668 282.614C208.765 282.383 208.813 282.106 208.813 281.784C208.813 281.47 208.766 281.192 208.671 280.952C208.576 280.711 208.436 280.523 208.251 280.386C208.065 280.25 207.836 280.182 207.563 280.182C207.279 280.182 207.042 280.254 206.853 280.398C206.665 280.542 206.524 280.735 206.43 280.977C206.337 281.22 206.29 281.489 206.29 281.784C206.29 282.087 206.338 282.355 206.433 282.588C206.529 282.819 206.671 283.001 206.859 283.134C207.048 283.264 207.283 283.33 207.563 283.33ZM212.529 284.091C212.109 284.091 211.746 283.998 211.441 283.812C211.138 283.625 210.904 283.364 210.739 283.028C210.576 282.691 210.495 282.299 210.495 281.852C210.495 281.405 210.576 281.011 210.739 280.67C210.904 280.328 211.133 280.061 211.427 279.869C211.722 279.676 212.067 279.58 212.461 279.58C212.688 279.58 212.913 279.617 213.134 279.693C213.356 279.769 213.558 279.892 213.739 280.062C213.921 280.231 214.066 280.455 214.174 280.733C214.282 281.011 214.336 281.354 214.336 281.761V282.045H210.972V281.466H213.654C213.654 281.22 213.605 281 213.506 280.807C213.41 280.614 213.272 280.461 213.092 280.349C212.914 280.238 212.703 280.182 212.461 280.182C212.194 280.182 211.963 280.248 211.768 280.381C211.575 280.511 211.426 280.682 211.322 280.892C211.218 281.102 211.165 281.328 211.165 281.568V281.955C211.165 282.284 211.222 282.563 211.336 282.793C211.451 283.02 211.612 283.193 211.816 283.312C212.021 283.43 212.258 283.489 212.529 283.489C212.705 283.489 212.864 283.464 213.006 283.415C213.15 283.364 213.274 283.288 213.379 283.188C213.483 283.085 213.563 282.958 213.62 282.807L214.268 282.989C214.2 283.208 214.085 283.402 213.924 283.568C213.763 283.733 213.564 283.862 213.327 283.955C213.091 284.045 212.825 284.091 212.529 284.091Z" fill="#2742D0"/>
<path d="M291.239 246.183L292.507 244.911L296.628 249.018L295.305 250.346C294.906 250.746 294.483 251.005 294.034 251.125C293.587 251.247 293.135 251.23 292.676 251.076C292.219 250.922 291.778 250.633 291.351 250.208C290.922 249.78 290.628 249.336 290.471 248.874C290.315 248.413 290.299 247.954 290.424 247.496C290.551 247.039 290.822 246.601 291.239 246.183ZM292.452 245.851L291.714 246.592C291.375 246.932 291.159 247.28 291.067 247.635C290.975 247.99 290.996 248.344 291.129 248.696C291.263 249.048 291.497 249.391 291.832 249.725C292.165 250.057 292.506 250.288 292.854 250.418C293.204 250.55 293.551 250.573 293.895 250.485C294.24 250.399 294.573 250.194 294.894 249.872L295.688 249.076L292.452 245.851ZM287.156 250.151C287.453 249.853 287.775 249.662 288.122 249.577C288.468 249.495 288.819 249.513 289.172 249.633C289.526 249.756 289.861 249.975 290.178 250.29C290.495 250.606 290.716 250.942 290.843 251.298C290.969 251.656 290.997 252.007 290.925 252.35C290.853 252.696 290.678 253.008 290.4 253.287C290.24 253.448 290.055 253.58 289.844 253.684C289.634 253.787 289.405 253.843 289.156 253.852C288.908 253.862 288.647 253.807 288.374 253.687C288.101 253.567 287.82 253.363 287.531 253.075L287.33 252.875L289.704 250.492L290.115 250.901L288.222 252.801C288.396 252.975 288.587 253.095 288.793 253.162C288.998 253.229 289.204 253.239 289.41 253.191C289.614 253.143 289.802 253.034 289.974 252.862C290.162 252.673 290.278 252.463 290.322 252.231C290.366 252.002 290.35 251.776 290.275 251.554C290.199 251.332 290.076 251.136 289.906 250.966L289.632 250.693C289.399 250.461 289.161 250.304 288.918 250.222C288.676 250.144 288.44 250.135 288.211 250.196C287.984 250.258 287.774 250.384 287.583 250.576C287.459 250.701 287.364 250.831 287.298 250.966C287.233 251.105 287.199 251.246 287.197 251.391C287.196 251.537 287.229 251.683 287.296 251.83L286.71 252.161C286.603 251.957 286.547 251.74 286.542 251.508C286.539 251.278 286.588 251.046 286.69 250.813C286.792 250.581 286.948 250.36 287.156 250.151ZM285.443 256.797L285.747 256.25C285.845 256.294 285.953 256.324 286.072 256.338C286.192 256.355 286.318 256.342 286.45 256.297C286.583 256.253 286.718 256.162 286.855 256.023C287.044 255.834 287.157 255.633 287.196 255.42C287.234 255.21 287.187 255.039 287.054 254.906C286.936 254.789 286.8 254.739 286.646 254.756C286.492 254.774 286.302 254.851 286.074 254.988L285.504 255.335C285.162 255.544 284.854 255.648 284.581 255.646C284.309 255.645 284.065 255.537 283.849 255.322C283.672 255.145 283.564 254.936 283.526 254.695C283.487 254.456 283.518 254.205 283.618 253.944C283.717 253.683 283.887 253.432 284.126 253.192C284.441 252.877 284.769 252.684 285.112 252.614C285.454 252.543 285.785 252.612 286.102 252.819L285.766 253.382C285.557 253.259 285.351 253.216 285.149 253.252C284.946 253.29 284.747 253.406 284.553 253.601C284.332 253.822 284.204 254.045 284.169 254.268C284.133 254.495 284.181 254.674 284.314 254.807C284.421 254.914 284.549 254.966 284.696 254.963C284.845 254.961 285.015 254.9 285.206 254.781L285.84 254.386C286.189 254.17 286.5 254.065 286.774 254.073C287.047 254.083 287.29 254.195 287.503 254.407C287.678 254.581 287.783 254.784 287.82 255.015C287.855 255.248 287.826 255.488 287.733 255.735C287.638 255.983 287.482 256.215 287.266 256.433C286.961 256.738 286.655 256.912 286.347 256.952C286.037 256.995 285.736 256.943 285.443 256.797ZM280.919 256.41C281.216 256.112 281.538 255.921 281.885 255.836C282.231 255.754 282.582 255.772 282.935 255.892C283.289 256.015 283.624 256.234 283.941 256.549C284.258 256.865 284.479 257.201 284.606 257.557C284.732 257.915 284.76 258.266 284.688 258.609C284.616 258.955 284.441 259.267 284.163 259.546C284.003 259.707 283.818 259.839 283.607 259.943C283.397 260.046 283.168 260.102 282.919 260.111C282.671 260.121 282.41 260.066 282.137 259.945C281.864 259.825 281.583 259.622 281.294 259.334L281.093 259.134L283.467 256.751L283.878 257.16L281.985 259.06C282.159 259.234 282.35 259.354 282.556 259.42C282.761 259.488 282.967 259.498 283.173 259.449C283.377 259.402 283.565 259.293 283.737 259.121C283.925 258.932 284.041 258.721 284.085 258.49C284.129 258.261 284.113 258.035 284.038 257.813C283.962 257.591 283.839 257.395 283.669 257.225L283.395 256.952C283.162 256.719 282.924 256.563 282.681 256.481C282.439 256.403 282.203 256.394 281.974 256.454C281.747 256.516 281.537 256.643 281.346 256.835C281.222 256.96 281.127 257.09 281.062 257.225C280.996 257.363 280.962 257.505 280.96 257.649C280.959 257.795 280.992 257.942 281.059 258.089L280.473 258.42C280.366 258.216 280.31 257.999 280.305 257.767C280.302 257.537 280.351 257.305 280.453 257.072C280.555 256.84 280.711 256.619 280.919 256.41ZM280.375 260.804L278.515 258.951L278.989 258.476L282.08 261.557L281.622 262.015L281.139 261.534L281.099 261.574C281.184 261.803 281.201 262.039 281.149 262.281C281.098 262.525 280.957 262.764 280.724 262.997C280.516 263.207 280.29 263.347 280.048 263.418C279.807 263.491 279.556 263.485 279.297 263.4C279.038 263.316 278.777 263.143 278.514 262.881L276.55 260.923L277.023 260.449L278.955 262.374C279.198 262.616 279.45 262.741 279.711 262.75C279.974 262.76 280.215 262.655 280.434 262.435C280.585 262.284 280.687 262.116 280.74 261.931C280.792 261.747 280.789 261.558 280.731 261.364C280.673 261.17 280.554 260.983 280.375 260.804ZM276.368 267.288L274.416 263.065L274.897 262.582L279.127 264.519L278.614 265.034L275.301 263.433L275.268 263.465L276.881 266.773L276.368 267.288ZM271.447 265.916C271.725 265.637 272.035 265.458 272.378 265.38C272.719 265.303 273.068 265.324 273.425 265.444C273.78 265.566 274.117 265.785 274.436 266.103C274.758 266.424 274.981 266.763 275.105 267.119C275.228 267.476 275.251 267.826 275.175 268.167C275.098 268.51 274.921 268.821 274.643 269.1C274.364 269.379 274.055 269.557 273.713 269.634C273.371 269.713 273.021 269.69 272.665 269.568C272.307 269.447 271.967 269.225 271.645 268.905C271.326 268.586 271.105 268.249 270.984 267.893C270.862 267.539 270.839 267.19 270.916 266.847C270.992 266.505 271.169 266.195 271.447 265.916ZM271.874 266.341C271.662 266.553 271.543 266.781 271.515 267.027C271.487 267.272 271.529 267.515 271.641 267.758C271.753 268 271.912 268.224 272.118 268.43C272.325 268.636 272.55 268.795 272.794 268.907C273.038 269.019 273.283 269.061 273.529 269.034C273.776 269.007 274.005 268.887 274.216 268.675C274.427 268.463 274.546 268.234 274.572 267.987C274.599 267.741 274.555 267.496 274.442 267.252C274.329 267.009 274.17 266.784 273.963 266.578C273.757 266.372 273.532 266.214 273.289 266.103C273.047 265.993 272.803 265.952 272.558 265.98C272.313 266.009 272.085 266.129 271.874 266.341ZM273.041 272.687L268.92 268.58L269.393 268.106L273.514 272.212L273.041 272.687ZM268.625 275.058L266.674 270.835L267.155 270.352L271.385 272.289L270.871 272.804L267.558 271.203L267.526 271.235L269.139 274.543L268.625 275.058ZM264.91 272.605L268.001 275.685L267.528 276.16L264.437 273.08L264.91 272.605ZM268.275 276.44C268.368 276.347 268.479 276.299 268.609 276.294C268.737 276.292 268.846 276.334 268.934 276.422C269.023 276.511 269.066 276.619 269.063 276.748C269.06 276.878 269.012 276.989 268.919 277.081C268.827 277.174 268.717 277.222 268.588 277.225C268.458 277.229 268.349 277.187 268.26 277.099C268.172 277.01 268.129 276.901 268.133 276.771C268.136 276.643 268.183 276.532 268.275 276.44ZM263.57 273.949L266.661 277.03L266.204 277.488L265.721 277.007L265.68 277.047C265.781 277.276 265.806 277.508 265.754 277.742C265.704 277.978 265.578 278.197 265.378 278.398C265.174 278.602 264.959 278.725 264.731 278.769C264.504 278.814 264.269 278.793 264.028 278.705L263.996 278.738C264.077 278.976 264.085 279.221 264.021 279.473C263.959 279.726 263.817 279.963 263.597 280.185C263.321 280.461 263.01 280.601 262.661 280.604C262.315 280.609 261.959 280.43 261.596 280.068L259.527 278.006L260 277.531L262.069 279.593C262.297 279.82 262.522 279.92 262.745 279.893C262.967 279.866 263.162 279.768 263.331 279.599C263.547 279.381 263.649 279.147 263.637 278.897C263.626 278.648 263.52 278.424 263.32 278.225L261.308 276.219L261.789 275.736L263.906 277.846C264.082 278.021 264.28 278.105 264.501 278.098C264.723 278.092 264.924 277.999 265.103 277.82C265.226 277.696 265.308 277.548 265.35 277.375C265.389 277.204 265.384 277.027 265.333 276.845C265.281 276.666 265.18 276.5 265.028 276.349L263.097 274.424L263.57 273.949ZM257.306 280.106C257.603 279.809 257.925 279.617 258.271 279.532C258.618 279.45 258.968 279.469 259.322 279.589C259.676 279.711 260.011 279.93 260.328 280.246C260.644 280.561 260.866 280.897 260.992 281.253C261.119 281.612 261.146 281.963 261.074 282.305C261.003 282.651 260.828 282.963 260.55 283.243C260.389 283.403 260.204 283.536 259.994 283.639C259.784 283.743 259.554 283.799 259.305 283.807C259.058 283.817 258.797 283.762 258.524 283.642C258.25 283.522 257.969 283.318 257.681 283.031L257.48 282.83L259.854 280.447L260.264 280.857L258.371 282.756C258.546 282.93 258.736 283.05 258.942 283.117C259.147 283.185 259.353 283.194 259.559 283.146C259.764 283.099 259.952 282.989 260.123 282.817C260.312 282.628 260.428 282.418 260.472 282.186C260.515 281.957 260.5 281.731 260.424 281.509C260.349 281.287 260.226 281.091 260.056 280.921L259.782 280.648C259.548 280.416 259.31 280.259 259.068 280.178C258.825 280.099 258.59 280.09 258.361 280.151C258.133 280.213 257.924 280.34 257.733 280.532C257.608 280.656 257.513 280.786 257.448 280.922C257.383 281.06 257.349 281.201 257.346 281.346C257.345 281.492 257.378 281.638 257.446 281.786L256.86 282.116C256.752 281.913 256.696 281.695 256.692 281.463C256.689 281.233 256.738 281.001 256.839 280.768C256.942 280.536 257.097 280.316 257.306 280.106ZM256.761 284.501L254.902 282.648L255.375 282.173L258.466 285.253L258.009 285.712L257.526 285.231L257.486 285.271C257.571 285.5 257.587 285.735 257.535 285.978C257.485 286.222 257.343 286.46 257.111 286.694C256.902 286.903 256.677 287.043 256.434 287.115C256.193 287.187 255.943 287.181 255.683 287.096C255.424 287.012 255.164 286.839 254.901 286.577L252.937 284.62L253.41 284.145L255.342 286.07C255.585 286.312 255.837 286.437 256.098 286.446C256.36 286.457 256.601 286.352 256.82 286.132C256.971 285.98 257.074 285.812 257.127 285.627C257.179 285.443 257.176 285.255 257.118 285.06C257.06 284.866 256.941 284.68 256.761 284.501ZM253.823 289.912L253.421 289.511L255.017 287.909L255.42 288.31L253.823 289.912ZM255.695 289.515L255.222 289.99L252.276 287.054C252.141 286.921 252.021 286.84 251.916 286.812C251.81 286.786 251.715 286.793 251.63 286.832C251.546 286.874 251.469 286.93 251.4 286.999C251.347 287.052 251.307 287.097 251.279 287.136C251.253 287.177 251.231 287.209 251.215 287.233L250.692 286.904C250.712 286.86 250.745 286.803 250.79 286.733C250.835 286.662 250.901 286.583 250.989 286.494C251.123 286.36 251.282 286.257 251.468 286.186C251.653 286.116 251.847 286.097 252.049 286.131C252.25 286.165 252.44 286.272 252.62 286.451L255.695 289.515ZM248.738 288.705C249.016 288.426 249.326 288.247 249.669 288.169C250.01 288.092 250.359 288.113 250.716 288.233C251.071 288.354 251.408 288.574 251.727 288.892C252.049 289.213 252.272 289.552 252.396 289.908C252.519 290.265 252.542 290.614 252.466 290.956C252.389 291.299 252.212 291.61 251.933 291.889C251.655 292.168 251.346 292.346 251.004 292.423C250.662 292.501 250.312 292.479 249.956 292.357C249.598 292.235 249.258 292.014 248.936 291.693C248.617 291.375 248.396 291.038 248.275 290.682C248.153 290.327 248.13 289.979 248.207 289.636C248.283 289.294 248.46 288.984 248.738 288.705ZM249.164 289.13C248.953 289.342 248.834 289.57 248.806 289.815C248.778 290.061 248.82 290.304 248.932 290.546C249.043 290.789 249.203 291.013 249.409 291.218C249.616 291.424 249.841 291.583 250.085 291.695C250.329 291.807 250.574 291.85 250.82 291.823C251.067 291.795 251.296 291.676 251.507 291.464C251.718 291.252 251.837 291.023 251.863 290.776C251.89 290.53 251.846 290.285 251.733 290.041C251.62 289.798 251.461 289.573 251.254 289.367C251.047 289.161 250.823 289.003 250.58 288.892C250.338 288.781 250.094 288.74 249.849 288.769C249.604 288.798 249.376 288.918 249.164 289.13Z" fill="#010101"/>
<path d="M153.164 292.924C152.985 293.152 152.926 293.408 152.985 293.692C153.045 293.976 153.199 294.242 153.449 294.491C153.631 294.672 153.821 294.802 154.016 294.879C154.211 294.955 154.397 294.979 154.577 294.952C154.755 294.924 154.909 294.844 155.04 294.712C155.15 294.602 155.218 294.481 155.244 294.35C155.268 294.219 155.265 294.086 155.234 293.95C155.201 293.817 155.156 293.687 155.098 293.563C155.039 293.44 154.981 293.33 154.925 293.234L154.618 292.704C154.539 292.569 154.458 292.411 154.376 292.231C154.293 292.049 154.233 291.855 154.198 291.649C154.16 291.442 154.168 291.233 154.221 291.022C154.274 290.81 154.397 290.608 154.589 290.414C154.811 290.191 155.07 290.048 155.366 289.985C155.66 289.92 155.972 289.945 156.3 290.061C156.627 290.176 156.949 290.39 157.266 290.706C157.561 291 157.769 291.302 157.89 291.612C158.01 291.922 158.047 292.223 158.001 292.516C157.953 292.808 157.825 293.075 157.617 293.317L157.101 292.803C157.243 292.634 157.319 292.453 157.329 292.26C157.337 292.068 157.295 291.876 157.203 291.686C157.109 291.496 156.98 291.32 156.817 291.157C156.626 290.967 156.424 290.827 156.211 290.738C155.997 290.65 155.79 290.618 155.59 290.641C155.389 290.666 155.214 290.753 155.064 290.903C154.928 291.04 154.855 291.19 154.846 291.352C154.837 291.514 154.868 291.684 154.94 291.862C155.011 292.04 155.099 292.221 155.204 292.406L155.567 293.056C155.797 293.469 155.92 293.855 155.937 294.214C155.954 294.573 155.824 294.891 155.548 295.169C155.318 295.4 155.055 295.539 154.759 295.587C154.46 295.634 154.158 295.6 153.851 295.484C153.541 295.368 153.255 295.179 152.992 294.918C152.726 294.653 152.537 294.37 152.425 294.069C152.312 293.769 152.277 293.477 152.319 293.193C152.36 292.908 152.481 292.658 152.681 292.443L153.164 292.924ZM151.74 287.866L149.92 289.694L149.444 289.221L152.523 286.128L152.998 286.601L152.477 287.125L152.509 287.157C152.738 287.072 152.984 287.051 153.247 287.093C153.508 287.137 153.755 287.275 153.989 287.507C154.182 287.7 154.312 287.913 154.378 288.147C154.443 288.383 154.432 288.629 154.347 288.887C154.261 289.145 154.087 289.406 153.825 289.669L151.868 291.634L151.393 291.161L153.318 289.228C153.542 289.003 153.658 288.76 153.665 288.5C153.672 288.239 153.576 288.01 153.379 287.814C153.261 287.696 153.11 287.607 152.928 287.546C152.745 287.483 152.549 287.473 152.342 287.515C152.133 287.555 151.932 287.672 151.74 287.866ZM147.073 285.481L147.621 285.785C147.577 285.883 147.547 285.991 147.533 286.111C147.516 286.23 147.529 286.356 147.574 286.488C147.618 286.621 147.71 286.756 147.848 286.893C148.037 287.082 148.238 287.195 148.451 287.233C148.662 287.272 148.833 287.225 148.965 287.092C149.083 286.974 149.133 286.838 149.115 286.684C149.097 286.53 149.02 286.339 148.883 286.112L148.536 285.542C148.326 285.199 148.223 284.892 148.225 284.618C148.225 284.347 148.333 284.103 148.549 283.887C148.725 283.709 148.934 283.602 149.175 283.564C149.414 283.524 149.665 283.555 149.926 283.655C150.187 283.754 150.438 283.924 150.679 284.163C150.994 284.477 151.187 284.806 151.257 285.148C151.328 285.491 151.259 285.821 151.052 286.139L150.489 285.803C150.612 285.594 150.655 285.388 150.618 285.186C150.581 284.982 150.464 284.784 150.27 284.59C150.048 284.369 149.826 284.241 149.602 284.206C149.375 284.17 149.196 284.219 149.064 284.351C148.957 284.459 148.905 284.586 148.908 284.734C148.91 284.882 148.97 285.052 149.09 285.243L149.485 285.877C149.701 286.226 149.806 286.538 149.798 286.811C149.788 287.084 149.677 287.327 149.464 287.541C149.291 287.715 149.088 287.821 148.856 287.857C148.623 287.893 148.384 287.864 148.137 287.771C147.889 287.676 147.656 287.52 147.439 287.304C147.133 286.999 146.96 286.693 146.919 286.385C146.877 286.076 146.928 285.774 147.073 285.481ZM144.268 284.066L144.669 283.663L146.271 285.259L145.87 285.662L144.268 284.066ZM144.665 285.937L144.19 285.464L147.125 282.517C147.258 282.383 147.339 282.263 147.367 282.157C147.392 282.051 147.385 281.956 147.346 281.872C147.305 281.788 147.249 281.711 147.179 281.641C147.127 281.589 147.081 281.549 147.042 281.521C147.002 281.494 146.97 281.473 146.946 281.457L147.274 280.934C147.318 280.954 147.375 280.987 147.445 281.032C147.516 281.076 147.596 281.142 147.685 281.23C147.819 281.364 147.922 281.524 147.993 281.71C148.063 281.894 148.081 282.088 148.048 282.29C148.014 282.491 147.907 282.681 147.728 282.861L144.665 285.937ZM145.433 278.94C145.731 279.237 145.922 279.558 146.007 279.905C146.09 280.252 146.071 280.602 145.951 280.956C145.829 281.31 145.61 281.645 145.295 281.962C144.979 282.278 144.644 282.5 144.288 282.627C143.929 282.753 143.578 282.781 143.235 282.709C142.889 282.638 142.577 282.463 142.298 282.185C142.137 282.025 142.005 281.839 141.901 281.629C141.797 281.419 141.741 281.19 141.733 280.941C141.723 280.693 141.778 280.432 141.898 280.159C142.018 279.886 142.221 279.605 142.509 279.316L142.709 279.115L145.093 281.488L144.684 281.899L142.783 280.006C142.61 280.181 142.49 280.371 142.423 280.578C142.355 280.783 142.346 280.988 142.394 281.194C142.442 281.399 142.551 281.587 142.723 281.758C142.912 281.947 143.123 282.063 143.354 282.106C143.583 282.15 143.809 282.134 144.031 282.059C144.253 281.983 144.449 281.86 144.619 281.69L144.892 281.416C145.124 281.183 145.281 280.944 145.362 280.702C145.441 280.459 145.45 280.224 145.389 279.995C145.327 279.767 145.2 279.558 145.008 279.367C144.883 279.243 144.753 279.148 144.617 279.082C144.479 279.017 144.338 278.983 144.193 278.981C144.047 278.98 143.901 279.013 143.754 279.08L143.423 278.494C143.626 278.387 143.844 278.331 144.075 278.326C144.306 278.323 144.538 278.372 144.771 278.473C145.003 278.576 145.223 278.732 145.433 278.94ZM141.038 278.397L142.89 276.537L143.365 277.01L140.287 280.102L139.828 279.645L140.309 279.162L140.268 279.122C140.04 279.207 139.804 279.223 139.561 279.172C139.318 279.121 139.079 278.98 138.845 278.747C138.636 278.539 138.496 278.314 138.424 278.071C138.351 277.83 138.357 277.58 138.443 277.32C138.526 277.061 138.699 276.8 138.961 276.537L140.917 274.573L141.393 275.046L139.468 276.978C139.226 277.221 139.101 277.473 139.092 277.734C139.082 277.997 139.187 278.238 139.407 278.457C139.559 278.608 139.727 278.71 139.912 278.763C140.096 278.815 140.284 278.812 140.479 278.754C140.673 278.696 140.859 278.577 141.038 278.397ZM135.626 275.461L136.027 275.059L137.629 276.654L137.228 277.057L135.626 275.461ZM136.023 277.333L135.548 276.86L138.483 273.912C138.616 273.778 138.697 273.658 138.725 273.552C138.75 273.446 138.743 273.351 138.704 273.267C138.663 273.183 138.607 273.106 138.537 273.036C138.485 272.984 138.439 272.944 138.4 272.916C138.36 272.889 138.328 272.868 138.304 272.852L138.632 272.329C138.676 272.349 138.733 272.382 138.803 272.427C138.874 272.471 138.954 272.537 139.043 272.625C139.177 272.759 139.28 272.919 139.351 273.105C139.421 273.29 139.439 273.483 139.406 273.685C139.372 273.886 139.265 274.077 139.086 274.257L136.023 277.333ZM137.152 270.679C137.348 270.874 137.489 271.088 137.575 271.321C137.66 271.555 137.679 271.789 137.633 272.024C137.585 272.26 137.461 272.478 137.261 272.68C137.084 272.857 136.907 272.966 136.727 273.006C136.546 273.048 136.366 273.042 136.187 272.989C136.007 272.936 135.832 272.855 135.66 272.745C135.486 272.636 135.317 272.519 135.155 272.395C134.943 272.232 134.773 272.098 134.644 271.994C134.512 271.89 134.404 271.827 134.32 271.804C134.234 271.78 134.153 271.806 134.077 271.883L134.061 271.899C133.863 272.098 133.764 272.306 133.763 272.524C133.761 272.741 133.869 272.959 134.088 273.177C134.315 273.402 134.542 273.53 134.77 273.559C134.998 273.588 135.194 273.572 135.358 273.511L135.649 274.121C135.381 274.229 135.128 274.268 134.89 274.24C134.649 274.211 134.428 274.137 134.226 274.02C134.023 273.903 133.843 273.766 133.687 273.611C133.588 273.512 133.486 273.387 133.381 273.234C133.274 273.082 133.195 272.909 133.147 272.717C133.097 272.522 133.104 272.312 133.17 272.086C133.235 271.859 133.39 271.623 133.634 271.378L135.663 269.34L136.138 269.813L135.721 270.232L135.745 270.256C135.844 270.221 135.969 270.203 136.121 270.201C136.272 270.199 136.437 270.234 136.615 270.305C136.793 270.375 136.972 270.5 137.152 270.679ZM136.655 271.034C136.467 270.847 136.272 270.726 136.069 270.671C135.866 270.615 135.673 270.613 135.491 270.665C135.307 270.714 135.152 270.804 135.023 270.933L134.59 271.368C134.634 271.363 134.701 271.385 134.789 271.433C134.875 271.481 134.97 271.542 135.073 271.616C135.174 271.689 135.271 271.762 135.365 271.834C135.456 271.906 135.53 271.964 135.588 272.008C135.728 272.115 135.869 272.204 136.012 272.274C136.153 272.345 136.292 272.378 136.429 272.372C136.562 272.366 136.69 272.303 136.81 272.182C136.974 272.017 137.037 271.832 136.999 271.625C136.959 271.419 136.844 271.222 136.655 271.034ZM134.731 268.413L130.626 272.536L130.151 272.063L131.666 270.541L131.626 270.501C131.538 270.52 131.421 270.54 131.276 270.562C131.129 270.583 130.964 270.569 130.782 270.518C130.597 270.468 130.404 270.343 130.203 270.142C129.942 269.883 129.778 269.589 129.709 269.261C129.64 268.933 129.669 268.594 129.795 268.245C129.921 267.895 130.146 267.558 130.47 267.233C130.796 266.905 131.134 266.677 131.485 266.548C131.834 266.42 132.173 266.388 132.501 266.453C132.828 266.519 133.12 266.681 133.378 266.937C133.577 267.135 133.703 267.326 133.757 267.511C133.809 267.697 133.826 267.864 133.806 268.013C133.785 268.163 133.764 268.284 133.743 268.375L133.799 268.431L134.272 267.956L134.731 268.413ZM132.725 269.494C132.957 269.26 133.128 269.02 133.237 268.774C133.345 268.528 133.384 268.29 133.352 268.058C133.32 267.828 133.208 267.618 133.017 267.428C132.819 267.23 132.601 267.118 132.364 267.09C132.124 267.062 131.882 267.104 131.637 267.216C131.389 267.328 131.156 267.494 130.937 267.714C130.72 267.931 130.559 268.161 130.452 268.402C130.343 268.643 130.305 268.882 130.337 269.117C130.367 269.353 130.483 269.571 130.684 269.771C130.877 269.964 131.089 270.077 131.318 270.11C131.545 270.144 131.78 270.107 132.021 270C132.26 269.893 132.495 269.725 132.725 269.494ZM131.274 264.971L128.196 268.063L127.72 267.59L130.799 264.498L131.274 264.971ZM127.441 268.338C127.533 268.43 127.582 268.541 127.586 268.671C127.589 268.8 127.547 268.908 127.458 268.997C127.37 269.086 127.262 269.129 127.133 269.126C127.003 269.122 126.892 269.075 126.799 268.982C126.707 268.89 126.659 268.78 126.656 268.651C126.652 268.521 126.694 268.412 126.782 268.323C126.87 268.235 126.979 268.192 127.109 268.196C127.238 268.199 127.348 268.246 127.441 268.338ZM125.349 267.281L129.454 263.158L129.929 263.632L125.824 267.755L125.349 267.281ZM128.584 262.292L125.505 265.384L125.03 264.911L128.109 261.819L128.584 262.292ZM124.75 265.659C124.843 265.751 124.891 265.862 124.896 265.992C124.899 266.121 124.856 266.229 124.768 266.318C124.68 266.407 124.571 266.45 124.443 266.447C124.313 266.443 124.201 266.396 124.109 266.303C124.016 266.211 123.968 266.101 123.965 265.972C123.961 265.842 124.003 265.733 124.091 265.644C124.18 265.556 124.289 265.513 124.418 265.517C124.547 265.52 124.658 265.567 124.75 265.659ZM126.135 259.726C126.393 259.982 126.555 260.274 126.623 260.6C126.689 260.928 126.659 261.267 126.533 261.617C126.405 261.968 126.178 262.307 125.852 262.635C125.529 262.96 125.192 263.186 124.843 263.314C124.494 263.442 124.155 263.472 123.827 263.405C123.499 263.337 123.204 263.174 122.944 262.914C122.743 262.714 122.617 262.522 122.567 262.339C122.514 262.155 122.499 261.991 122.522 261.845C122.542 261.699 122.561 261.581 122.579 261.493L122.539 261.453L121.024 262.975L120.548 262.502L124.654 258.379L125.113 258.836L124.64 259.311L124.696 259.367C124.787 259.345 124.907 259.324 125.057 259.302C125.206 259.282 125.373 259.297 125.56 259.349C125.745 259.402 125.936 259.528 126.135 259.726ZM125.646 260.088C125.455 259.898 125.245 259.788 125.014 259.756C124.782 259.726 124.544 259.765 124.299 259.874C124.053 259.984 123.814 260.156 123.581 260.39C123.351 260.621 123.184 260.856 123.079 261.096C122.972 261.337 122.936 261.572 122.972 261.799C123.006 262.028 123.119 262.239 123.312 262.432C123.514 262.632 123.733 262.747 123.97 262.778C124.205 262.808 124.443 262.769 124.685 262.66C124.925 262.551 125.152 262.387 125.369 262.17C125.588 261.95 125.754 261.716 125.866 261.47C125.975 261.223 126.016 260.981 125.989 260.742C125.959 260.504 125.844 260.286 125.646 260.088ZM122.88 256.468C123.076 256.663 123.217 256.877 123.303 257.11C123.388 257.344 123.407 257.579 123.361 257.813C123.313 258.049 123.189 258.267 122.989 258.469C122.812 258.646 122.634 258.755 122.455 258.795C122.274 258.837 122.094 258.832 121.914 258.778C121.735 258.725 121.559 258.644 121.388 258.535C121.213 258.425 121.045 258.308 120.883 258.184C120.671 258.021 120.5 257.888 120.372 257.783C120.24 257.679 120.132 257.616 120.048 257.593C119.962 257.569 119.881 257.596 119.805 257.672L119.789 257.688C119.591 257.887 119.492 258.095 119.491 258.314C119.489 258.531 119.597 258.748 119.816 258.966C120.042 259.192 120.27 259.319 120.497 259.348C120.725 259.377 120.921 259.361 121.086 259.301L121.377 259.911C121.109 260.018 120.856 260.058 120.617 260.029C120.376 260 120.155 259.927 119.954 259.809C119.75 259.692 119.571 259.556 119.415 259.401C119.316 259.302 119.213 259.176 119.109 259.024C119.001 258.871 118.923 258.699 118.875 258.506C118.825 258.312 118.832 258.101 118.897 257.875C118.962 257.648 119.117 257.412 119.362 257.167L121.39 255.13L121.865 255.603L121.449 256.021L121.473 256.045C121.572 256.01 121.697 255.992 121.848 255.99C122 255.989 122.164 256.023 122.343 256.094C122.521 256.164 122.7 256.289 122.88 256.468ZM122.382 256.823C122.194 256.636 121.999 256.515 121.797 256.461C121.593 256.405 121.4 256.402 121.218 256.454C121.035 256.504 120.879 256.593 120.751 256.722L120.318 257.157C120.362 257.153 120.429 257.175 120.517 257.223C120.603 257.271 120.697 257.331 120.801 257.405C120.901 257.478 120.998 257.551 121.092 257.623C121.184 257.695 121.258 257.753 121.316 257.797C121.455 257.904 121.597 257.993 121.74 258.064C121.881 258.134 122.02 258.167 122.156 258.161C122.29 258.156 122.417 258.092 122.537 257.972C122.702 257.806 122.765 257.621 122.727 257.415C122.687 257.209 122.572 257.011 122.382 256.823ZM119.42 253.039C119.677 253.296 119.84 253.587 119.908 253.914C119.974 254.242 119.944 254.581 119.818 254.931C119.69 255.282 119.463 255.621 119.137 255.948C118.813 256.273 118.477 256.5 118.128 256.628C117.778 256.756 117.44 256.786 117.111 256.718C116.783 256.651 116.489 256.487 116.229 256.228C116.027 256.028 115.902 255.836 115.852 255.652C115.799 255.469 115.784 255.304 115.806 255.158C115.826 255.012 115.845 254.895 115.864 254.806L115.824 254.766L114.308 256.288L113.833 255.815L117.938 251.692L118.397 252.149L117.924 252.624L117.981 252.681C118.072 252.659 118.192 252.637 118.342 252.616C118.491 252.595 118.658 252.611 118.844 252.663C119.029 252.716 119.221 252.841 119.42 253.039ZM118.93 253.402C118.74 253.212 118.529 253.101 118.299 253.07C118.067 253.039 117.829 253.079 117.584 253.188C117.338 253.298 117.098 253.47 116.866 253.703C116.636 253.934 116.468 254.17 116.363 254.41C116.257 254.651 116.221 254.885 116.256 255.113C116.29 255.342 116.404 255.553 116.597 255.745C116.798 255.945 117.018 256.061 117.255 256.091C117.489 256.121 117.727 256.082 117.97 255.973C118.209 255.864 118.437 255.701 118.654 255.483C118.873 255.263 119.038 255.03 119.15 254.783C119.26 254.537 119.301 254.294 119.273 254.056C119.243 253.818 119.129 253.6 118.93 253.402ZM115.77 249.405C116.068 249.702 116.259 250.023 116.344 250.37C116.427 250.717 116.408 251.067 116.288 251.421C116.166 251.775 115.947 252.11 115.632 252.427C115.316 252.743 114.981 252.965 114.625 253.092C114.266 253.218 113.915 253.246 113.572 253.174C113.227 253.103 112.914 252.928 112.635 252.65C112.474 252.49 112.342 252.304 112.238 252.094C112.135 251.884 112.078 251.655 112.07 251.406C112.06 251.158 112.115 250.897 112.235 250.624C112.355 250.35 112.558 250.069 112.846 249.781L113.046 249.58L115.43 251.953L115.021 252.364L113.12 250.471C112.947 250.646 112.827 250.836 112.76 251.043C112.692 251.248 112.683 251.453 112.731 251.659C112.779 251.864 112.888 252.052 113.06 252.223C113.249 252.412 113.46 252.528 113.692 252.571C113.921 252.615 114.146 252.599 114.368 252.524C114.591 252.448 114.786 252.325 114.956 252.155L115.229 251.881C115.461 251.647 115.618 251.409 115.699 251.167C115.778 250.924 115.787 250.689 115.726 250.46C115.664 250.232 115.537 250.023 115.345 249.832C115.22 249.707 115.09 249.613 114.955 249.547C114.816 249.482 114.675 249.448 114.53 249.446C114.384 249.445 114.238 249.478 114.091 249.545L113.76 248.959C113.963 248.852 114.181 248.796 114.413 248.791C114.643 248.788 114.875 248.837 115.108 248.938C115.34 249.041 115.56 249.196 115.77 249.405Z" fill="#010101"/>
<defs>
<filter id="filter0_b_44_131" x="170.562" y="197.153" width="60.7354" height="16.9489" filterUnits="userSpaceOnUse" color-interpolation-filters="sRGB">
<feFlood flood-opacity="0" result="BackgroundImageFix"/>
<feGaussianBlur in="BackgroundImageFix" stdDeviation="2"/>
<feComposite in2="SourceAlpha" operator="in" result="effect1_backgroundBlur_44_131"/>
<feBlend mode="normal" in="SourceGraphic" in2="effect1_backgroundBlur_44_131" result="shape"/>
</filter>
</defs>
</svg>
