<svg width="240" height="240" viewBox="0 0 240 240" fill="none" xmlns="http://www.w3.org/2000/svg">
<g clip-path="url(#clip0_44_131)">
<rect width="240" height="240" rx="120" fill="white"/>
<circle cx="120" cy="120" r="120" fill="#FFB801"/>
<circle cx="120" cy="120" r="110" fill="white"/>
<circle cx="120" cy="44.5" r="37.5" fill="#FFB801"/>
<circle cx="43" cy="120.5" r="37.5" fill="#FFB801"/>
<circle cx="120" cy="194.5" r="37.5" fill="#FFB801"/>
<circle cx="197" cy="120.5" r="37.5" fill="#FFB801"/>
<circle cx="120" cy="120" r="52.5" fill="#FFB801"/>
<circle cx="120" cy="120" r="37.5" fill="white"/>
<circle cx="197" cy="119.5" r="22.5" fill="white"/>
<circle cx="43" cy="119.5" r="22.5" fill="white"/>
<circle cx="120" cy="196" r="22.5" fill="white"/>
<circle cx="120" cy="44.5" r="22.5" fill="white"/>
<g filter="url(#filter0_b_44_131)">
<path d="M92.5652 123.713L92.6516 114.986L96.4185 115.024C97.0662 115.03 97.6317 115.164 98.1149 115.424C98.5981 115.685 98.9724 116.048 99.2377 116.513C99.503 116.979 99.6325 117.522 99.6264 118.141C99.6202 118.766 99.4756 119.306 99.1927 119.76C98.9126 120.215 98.5214 120.563 98.019 120.806C97.5194 121.048 96.9372 121.166 96.2725 121.159L94.0226 121.137L94.0408 119.296L95.8135 119.313C96.0919 119.316 96.3295 119.27 96.5265 119.176C96.7263 119.078 96.8797 118.939 96.9866 118.758C97.0964 118.578 97.1525 118.364 97.1549 118.116C97.1574 117.866 97.1055 117.653 96.9993 117.476C96.896 117.296 96.7454 117.158 96.5474 117.062C96.3524 116.964 96.1157 116.913 95.8373 116.91L95.0021 116.902L94.9344 123.737L92.5652 123.713ZM101.617 123.803L99.0602 123.778L102.027 115.079L105.266 115.111L108.06 123.867L105.503 123.841L103.657 117.499L103.589 117.498L101.617 123.803ZM101.174 120.355L105.98 120.403L105.963 122.176L101.156 122.128L101.174 120.355ZM108.9 123.875L108.987 115.148L112.754 115.186C113.401 115.192 113.967 115.316 114.45 115.556C114.934 115.797 115.308 116.14 115.574 116.586C115.839 117.032 115.969 117.564 115.963 118.183C115.957 118.808 115.812 119.334 115.529 119.76C115.25 120.186 114.859 120.506 114.357 120.72C113.857 120.934 113.275 121.038 112.61 121.031L110.361 121.009L110.379 119.168L112.151 119.186C112.43 119.188 112.667 119.157 112.864 119.09C113.064 119.021 113.217 118.911 113.323 118.758C113.433 118.606 113.489 118.406 113.491 118.159C113.494 117.909 113.442 117.705 113.335 117.548C113.232 117.388 113.081 117.27 112.883 117.194C112.688 117.115 112.451 117.075 112.172 117.072L111.337 117.064L111.269 123.899L108.9 123.875ZM114.053 119.92L116.195 123.947L113.622 123.922L111.531 119.895L114.053 119.92ZM120.273 123.988L116.916 123.955L117.002 115.228L120.326 115.261C121.223 115.27 121.997 115.452 122.647 115.808C123.3 116.161 123.801 116.666 124.149 117.323C124.501 117.977 124.672 118.758 124.663 119.667C124.654 120.577 124.469 121.356 124.107 122.006C123.746 122.653 123.238 123.148 122.584 123.491C121.93 123.831 121.16 123.997 120.273 123.988ZM119.305 121.967L120.208 121.976C120.64 121.98 121.008 121.914 121.314 121.778C121.622 121.642 121.857 121.404 122.02 121.065C122.185 120.725 122.271 120.252 122.277 119.644C122.283 119.036 122.205 118.561 122.044 118.218C121.885 117.876 121.649 117.633 121.335 117.491C121.024 117.349 120.641 117.275 120.186 117.271L119.351 117.262L119.305 121.967ZM127.432 124.059L124.875 124.033L127.842 115.335L131.081 115.367L133.875 124.123L131.318 124.097L129.472 117.755L129.404 117.754L127.432 124.059ZM126.989 120.611L131.796 120.659L131.778 122.431L126.971 122.384L126.989 120.611ZM137.171 115.428L137.085 124.154L134.715 124.131L134.802 115.404L137.171 115.428ZM142.971 118.212C142.951 117.928 142.847 117.706 142.658 117.545C142.472 117.384 142.188 117.301 141.804 117.297C141.56 117.295 141.359 117.323 141.202 117.381C141.048 117.436 140.934 117.513 140.859 117.612C140.784 117.711 140.745 117.824 140.741 117.952C140.734 118.057 140.752 118.152 140.793 118.238C140.838 118.321 140.908 118.397 141.004 118.466C141.1 118.532 141.223 118.593 141.373 118.648C141.523 118.704 141.702 118.754 141.909 118.799L142.623 118.959C143.105 119.066 143.517 119.205 143.859 119.376C144.201 119.547 144.48 119.747 144.697 119.977C144.913 120.203 145.071 120.458 145.171 120.74C145.273 121.022 145.324 121.33 145.324 121.662C145.315 122.236 145.167 122.72 144.879 123.115C144.591 123.51 144.181 123.809 143.651 124.011C143.123 124.213 142.49 124.31 141.752 124.303C140.993 124.295 140.332 124.177 139.769 123.947C139.209 123.717 138.775 123.367 138.467 122.898C138.162 122.426 138.012 121.825 138.016 121.095L140.266 121.118C140.278 121.385 140.342 121.61 140.46 121.793C140.577 121.976 140.744 122.115 140.958 122.211C141.176 122.307 141.436 122.357 141.737 122.36C141.99 122.362 142.202 122.333 142.373 122.272C142.544 122.211 142.674 122.126 142.763 122.016C142.852 121.906 142.899 121.78 142.903 121.638C142.902 121.505 142.859 121.388 142.775 121.287C142.693 121.184 142.558 121.092 142.368 121.011C142.179 120.926 141.922 120.847 141.599 120.773L140.732 120.577C139.961 120.401 139.354 120.116 138.912 119.719C138.473 119.32 138.258 118.779 138.268 118.098C138.27 117.544 138.423 117.061 138.725 116.649C139.03 116.234 139.45 115.913 139.983 115.686C140.52 115.458 141.133 115.348 141.823 115.354C142.528 115.361 143.136 115.485 143.648 115.726C144.16 115.967 144.553 116.303 144.827 116.735C145.104 117.164 145.241 117.664 145.238 118.235L142.971 118.212Z" fill="#2742D0"/>
</g>
<path d="M173.26 38.7479L173.711 38.3152L176.732 41.464L176.281 41.8967L175.014 40.5765L171.267 44.1718L170.779 43.6634L174.526 40.0681L173.26 38.7479ZM173.986 47.1376C173.695 46.8341 173.511 46.5082 173.434 46.1597C173.359 45.8112 173.386 45.4614 173.514 45.1105C173.644 44.7595 173.871 44.4294 174.193 44.1199C174.516 43.8105 174.856 43.5965 175.215 43.478C175.577 43.3596 175.928 43.3401 176.269 43.4195C176.613 43.499 176.921 43.6808 177.194 43.9651C177.351 44.1291 177.48 44.3173 177.578 44.5296C177.677 44.742 177.728 44.9728 177.731 45.222C177.735 45.4699 177.674 45.7291 177.548 45.9998C177.422 46.2704 177.212 46.5467 176.918 46.8286L176.713 47.0253L174.384 44.5981L174.802 44.1968L176.659 46.1321C176.837 45.9616 176.961 45.774 177.032 45.5692C177.105 45.3657 177.119 45.1604 177.075 44.9532C177.033 44.7474 176.927 44.557 176.76 44.3821C176.575 44.1894 176.367 44.0685 176.136 44.0195C175.908 43.9706 175.682 43.9813 175.458 44.0517C175.235 44.1221 175.036 44.2405 174.862 44.407L174.583 44.6745C174.346 44.9027 174.183 45.1371 174.097 45.3777C174.013 45.6184 173.998 45.8539 174.054 46.0841C174.111 46.313 174.233 46.5252 174.421 46.7206C174.542 46.8477 174.67 46.9455 174.804 47.0139C174.941 47.0823 175.081 47.1194 175.226 47.1251C175.372 47.1294 175.519 47.0997 175.668 47.0358L175.985 47.6291C175.779 47.7319 175.561 47.783 175.329 47.7822C175.098 47.7801 174.868 47.7258 174.637 47.6192C174.407 47.5113 174.19 47.3508 173.986 47.1376ZM177.17 50.4565C176.887 50.1613 176.713 49.8403 176.648 49.4933C176.582 49.1464 176.617 48.7981 176.752 48.4486C176.886 48.0991 177.111 47.7736 177.425 47.472C177.745 47.1652 178.083 46.9532 178.441 46.8361C178.801 46.7189 179.151 46.7001 179.493 46.7795C179.837 46.859 180.145 47.0408 180.418 47.3251C180.63 47.5465 180.781 47.7854 180.869 48.0417C180.957 48.298 180.982 48.5537 180.944 48.8088C180.905 49.0638 180.8 49.2994 180.629 49.5155L180.165 49.0317C180.273 48.8572 180.322 48.6532 180.311 48.4199C180.302 48.1867 180.196 47.9634 179.991 47.7502C179.81 47.5616 179.602 47.4435 179.367 47.3957C179.135 47.3481 178.892 47.3698 178.639 47.461C178.388 47.5523 178.143 47.712 177.905 47.9401C177.662 48.1735 177.487 48.415 177.38 48.6646C177.274 48.9156 177.239 49.1593 177.274 49.3958C177.311 49.6336 177.421 49.8482 177.605 50.0396C177.725 50.1653 177.857 50.2584 177.999 50.319C178.141 50.3795 178.287 50.406 178.437 50.3984C178.587 50.3908 178.734 50.347 178.878 50.2669L179.342 50.7507C179.13 50.9017 178.898 50.9946 178.645 51.0296C178.395 51.0646 178.142 51.0359 177.885 50.9435C177.631 50.8512 177.393 50.6889 177.17 50.4565ZM181.461 51.0056L179.566 52.8229L179.102 52.3391L182.251 49.3181L182.699 49.7855L182.207 50.2575L182.247 50.2985C182.477 50.2189 182.713 50.2077 182.955 50.265C183.197 50.3209 183.433 50.4678 183.661 50.7056C183.865 50.9188 184.001 51.1473 184.067 51.3911C184.134 51.6336 184.122 51.8838 184.031 52.1418C183.941 52.3985 183.762 52.6553 183.495 52.9123L181.494 54.8319L181.03 54.3481L182.998 52.46C183.245 52.2226 183.376 51.9735 183.391 51.7126C183.407 51.4504 183.308 51.2073 183.093 50.9831C182.944 50.8287 182.778 50.7228 182.595 50.6654C182.412 50.6094 182.224 50.6081 182.028 50.6617C181.833 50.7152 181.644 50.8299 181.461 51.0056ZM183.504 57.0581C183.231 56.7738 183.059 56.4595 182.989 56.1151C182.919 55.7721 182.949 55.4238 183.077 55.0701C183.206 54.7178 183.433 54.3857 183.758 54.0736C184.086 53.7589 184.43 53.5437 184.788 53.4279C185.148 53.3134 185.498 53.2979 185.838 53.3813C186.179 53.4661 186.486 53.6506 186.759 53.9349C187.032 54.2191 187.203 54.5328 187.272 54.8758C187.343 55.2201 187.313 55.5691 187.182 55.9227C187.053 56.2777 186.824 56.6125 186.496 56.9272C186.171 57.2393 185.829 57.4519 185.47 57.565C185.113 57.6795 184.764 57.6943 184.422 57.6096C184.083 57.5262 183.776 57.3424 183.504 57.0581ZM183.938 56.6411C184.145 56.8571 184.371 56.9816 184.616 57.0148C184.86 57.048 185.105 57.0116 185.349 56.9055C185.594 56.7993 185.822 56.6453 186.032 56.4434C186.242 56.2415 186.406 56.0199 186.524 55.7785C186.641 55.5371 186.689 55.293 186.668 55.0461C186.646 54.7992 186.532 54.5677 186.324 54.3518C186.117 54.1359 185.891 54.012 185.645 53.9801C185.399 53.9482 185.153 53.986 184.907 54.0934C184.661 54.2008 184.433 54.3555 184.223 54.5574C184.012 54.7593 183.849 54.9803 183.733 55.2203C183.616 55.4604 183.57 55.7032 183.593 55.9488C183.616 56.1944 183.731 56.4252 183.938 56.6411ZM190.309 55.6163L186.111 59.6443L185.647 59.1605L189.845 55.1325L190.309 55.6163ZM188.123 61.8726C187.85 61.5883 187.678 61.274 187.608 60.9296C187.538 60.5866 187.568 60.2382 187.696 59.8846C187.825 59.5323 188.052 59.2001 188.377 58.8881C188.705 58.5734 189.049 58.3581 189.407 58.2423C189.767 58.1279 190.117 58.1124 190.457 58.1958C190.798 58.2805 191.105 58.465 191.378 58.7493C191.651 59.0336 191.822 59.3472 191.891 59.6902C191.962 60.0346 191.932 60.3836 191.801 60.7372C191.672 61.0922 191.443 61.427 191.115 61.7417C190.79 62.0537 190.448 62.2663 190.089 62.3795C189.732 62.4939 189.383 62.5088 189.041 62.424C188.702 62.3407 188.395 62.1568 188.123 61.8726ZM188.557 61.4556C188.764 61.6715 188.99 61.7961 189.235 61.8293C189.479 61.8625 189.724 61.826 189.968 61.7199C190.213 61.6138 190.44 61.4598 190.651 61.2579C190.861 61.056 191.025 60.8343 191.143 60.593C191.26 60.3516 191.308 60.1075 191.287 59.8605C191.265 59.6136 191.151 59.3822 190.943 59.1663C190.736 58.9503 190.51 58.8264 190.264 58.7945C190.018 58.7627 189.772 58.8004 189.526 58.9078C189.28 59.0153 189.052 59.1699 188.842 59.3719C188.631 59.5738 188.468 59.7948 188.352 60.0348C188.235 60.2748 188.189 60.5177 188.212 60.7633C188.235 61.0089 188.35 61.2397 188.557 61.4556ZM190.239 66.4418C190.014 66.208 189.852 65.9783 189.751 65.7525C189.648 65.528 189.592 65.3132 189.581 65.108C189.571 64.9056 189.588 64.7191 189.635 64.5486L190.275 64.6744C190.26 64.7732 190.247 64.8915 190.238 65.0292C190.227 65.1683 190.25 65.3222 190.307 65.4908C190.363 65.6621 190.483 65.8427 190.665 66.0327C190.909 66.2869 191.172 66.4376 191.453 66.485C191.735 66.5324 192.007 66.4302 192.269 66.1784L192.909 65.5648L192.87 65.5238C192.778 65.5433 192.659 65.5609 192.511 65.5766C192.366 65.5924 192.202 65.5709 192.02 65.5122C191.84 65.4536 191.652 65.3218 191.456 65.1167C191.212 64.8625 191.053 64.5766 190.979 64.259C190.907 63.9427 190.929 63.6156 191.046 63.2778C191.164 62.9414 191.387 62.6158 191.715 62.3011C192.037 61.9917 192.373 61.779 192.721 61.6629C193.07 61.5456 193.407 61.5251 193.733 61.6015C194.059 61.6766 194.35 61.8467 194.604 62.1119C194.801 62.3169 194.923 62.5123 194.97 62.6981C195.019 62.884 195.032 63.0503 195.008 63.1972C194.986 63.3441 194.965 63.4615 194.944 63.5495L194.991 63.5987L195.491 63.1188L195.94 63.5862L192.701 66.6937C192.43 66.9533 192.151 67.1029 191.864 67.1425C191.576 67.1848 191.294 67.1407 191.016 67.0104C190.739 66.8828 190.48 66.6932 190.239 66.4418ZM191.953 64.7654C192.139 64.9595 192.341 65.0808 192.558 65.1296C192.776 65.1783 193.001 65.1575 193.235 65.0672C193.468 64.977 193.701 64.8204 193.934 64.5975C194.161 64.3798 194.328 64.1536 194.436 63.9187C194.544 63.6839 194.583 63.4523 194.553 63.2239C194.523 62.9956 194.413 62.783 194.225 62.5862C194.028 62.3812 193.812 62.2602 193.577 62.2232C193.343 62.1875 193.106 62.2195 192.866 62.3189C192.627 62.4198 192.4 62.5725 192.187 62.7771C191.969 62.9869 191.808 63.2065 191.705 63.4362C191.605 63.6658 191.573 63.8942 191.607 64.1213C191.644 64.3484 191.759 64.5631 191.953 64.7654ZM193.641 67.4928L196.789 64.4718L197.254 64.9556L194.105 67.9766L193.641 67.4928ZM197.55 64.2143C197.46 64.12 197.414 64.0079 197.413 63.8779C197.413 63.7493 197.458 63.6418 197.548 63.5552C197.638 63.4687 197.747 63.4281 197.876 63.4334C198.006 63.4401 198.116 63.4906 198.206 63.5849C198.297 63.6792 198.342 63.7907 198.342 63.9193C198.343 64.0492 198.299 64.1575 198.209 64.244C198.118 64.3306 198.008 64.3705 197.879 64.3638C197.75 64.3584 197.641 64.3086 197.55 64.2143ZM195.77 69.8601C195.579 69.6606 195.442 69.4434 195.362 69.2087C195.282 68.9726 195.268 68.7379 195.32 68.5046C195.373 68.2699 195.502 68.0543 195.707 67.8576C195.887 67.6845 196.068 67.5797 196.248 67.5433C196.43 67.5055 196.61 67.5153 196.788 67.5726C196.966 67.6298 197.14 67.7151 197.309 67.8285C197.481 67.9419 197.646 68.0625 197.806 68.1904C198.014 68.3581 198.181 68.4956 198.308 68.6027C198.437 68.7098 198.543 68.7756 198.627 68.8002C198.712 68.826 198.794 68.8016 198.872 68.7269L198.888 68.7111C199.09 68.5171 199.194 68.3109 199.2 68.0927C199.208 67.8759 199.104 67.6561 198.891 67.4333C198.669 67.2023 198.445 67.0698 198.218 67.0356C197.991 67.0014 197.794 67.0127 197.628 67.0696L197.352 66.453C197.622 66.3515 197.876 66.3179 198.113 66.3523C198.354 66.3867 198.573 66.4649 198.771 66.5869C198.973 66.709 199.149 66.8493 199.301 67.0078C199.398 67.1089 199.497 67.2369 199.599 67.3917C199.703 67.5466 199.777 67.7209 199.821 67.9147C199.866 68.1099 199.854 68.3199 199.784 68.5448C199.713 68.7698 199.553 69.0022 199.303 69.2421L197.228 71.2325L196.764 70.7487L197.191 70.3396L197.167 70.315C197.067 70.3478 196.942 70.3633 196.79 70.3615C196.639 70.3597 196.475 70.3214 196.299 70.2468C196.122 70.1721 195.946 70.0432 195.77 69.8601ZM196.275 69.5169C196.459 69.7083 196.651 69.8335 196.852 69.8926C197.055 69.953 197.247 69.9597 197.431 69.9126C197.615 69.8669 197.773 69.7811 197.904 69.6552L198.347 69.2304C198.303 69.2335 198.237 69.21 198.149 69.16C198.065 69.11 197.972 69.0471 197.87 68.9713C197.771 68.8956 197.676 68.8206 197.583 68.7464C197.494 68.6722 197.421 68.6124 197.364 68.567C197.227 68.457 197.088 68.3651 196.946 68.2911C196.807 68.2173 196.669 68.1816 196.532 68.1841C196.398 68.1867 196.27 68.247 196.147 68.365C195.979 68.5263 195.911 68.7104 195.944 68.9174C195.98 69.1244 196.091 69.3242 196.275 69.5169Z" fill="#010101"/>
<path d="M107.222 42.0363L107.164 47.8542L106.459 47.8472L106.517 42.0293L107.222 42.0363ZM109.182 45.2491L109.156 47.8739L108.486 47.8673L108.529 43.5039L109.177 43.5103L109.17 44.1921L109.227 44.1926C109.331 43.9721 109.488 43.7956 109.698 43.6632C109.907 43.5289 110.177 43.4634 110.507 43.4667C110.802 43.4696 111.06 43.5327 111.28 43.6561C111.501 43.7777 111.671 43.9612 111.792 44.2067C111.913 44.4503 111.971 44.7577 111.968 45.1289L111.94 47.9015L111.27 47.8949L111.297 45.1677C111.3 44.825 111.214 44.557 111.038 44.364C110.861 44.1691 110.618 44.0701 110.307 44.067C110.093 44.0649 109.902 44.1094 109.732 44.2005C109.565 44.2916 109.432 44.4257 109.333 44.6028C109.235 44.7799 109.185 44.9953 109.182 45.2491ZM115.106 43.569L115.1 44.1372L112.839 44.1148L112.845 43.5466L115.106 43.569ZM113.514 42.5078L114.185 42.5144L114.143 46.6733C114.141 46.8627 114.168 47.005 114.222 47.1002C114.277 47.1936 114.349 47.2568 114.436 47.2899C114.524 47.321 114.618 47.3371 114.716 47.3381C114.79 47.3388 114.851 47.3356 114.898 47.3285C114.946 47.3195 114.984 47.3123 115.012 47.3069L115.143 47.9105C115.097 47.9271 115.033 47.9435 114.952 47.9598C114.87 47.9779 114.767 47.9864 114.642 47.9851C114.452 47.9832 114.267 47.9407 114.086 47.8575C113.907 47.7742 113.759 47.6487 113.641 47.4809C113.525 47.313 113.469 47.1022 113.471 46.8485L113.514 42.5078ZM117.853 48.051C117.432 48.0469 117.071 47.9505 116.768 47.7619C116.466 47.5714 116.235 47.3077 116.074 46.9708C115.914 46.6321 115.837 46.2393 115.841 45.7924C115.846 45.3454 115.931 44.9523 116.097 44.613C116.265 44.2719 116.497 44.0071 116.793 43.8187C117.09 43.6285 117.436 43.5353 117.829 43.5392C118.057 43.5415 118.281 43.5816 118.502 43.6595C118.722 43.7375 118.923 43.8626 119.103 44.0348C119.283 44.2052 119.426 44.4301 119.531 44.7095C119.636 44.989 119.687 45.3323 119.683 45.7395L119.68 46.0236L116.316 45.9903L116.322 45.4107L119.004 45.4373C119.006 45.1911 118.959 44.9709 118.863 44.7768C118.768 44.5827 118.631 44.4288 118.452 44.3153C118.276 44.2018 118.066 44.1439 117.823 44.1415C117.556 44.1388 117.325 44.2028 117.128 44.3334C116.934 44.4622 116.784 44.6312 116.677 44.8404C116.571 45.0495 116.517 45.2744 116.514 45.5149L116.51 45.9013C116.507 46.2308 116.561 46.5107 116.673 46.741C116.786 46.9694 116.944 47.1443 117.148 47.2656C117.351 47.385 117.588 47.4461 117.859 47.4488C118.035 47.4505 118.194 47.4275 118.337 47.3797C118.481 47.3299 118.606 47.2554 118.711 47.1561C118.816 47.0548 118.898 46.9288 118.956 46.7778L119.602 46.966C119.532 47.185 119.416 47.3771 119.253 47.5421C119.09 47.7053 118.89 47.8321 118.653 47.9226C118.415 48.0111 118.148 48.054 117.853 48.051ZM122.425 49.7328C122.101 49.7296 121.823 49.6851 121.591 49.5995C121.358 49.5158 121.165 49.4059 121.011 49.2699C120.859 49.1358 120.739 48.9925 120.649 48.8401L121.187 48.4704C121.247 48.5506 121.323 48.6423 121.414 48.7454C121.506 48.8505 121.632 48.9417 121.792 49.0191C121.954 49.0983 122.167 49.1393 122.43 49.1419C122.783 49.1454 123.074 49.063 123.305 48.8949C123.536 48.7267 123.653 48.4608 123.657 48.0972L123.665 47.2109L123.609 47.2103C123.559 47.2893 123.488 47.3871 123.396 47.5036C123.305 47.6183 123.176 47.7202 123.006 47.8095C122.839 47.8968 122.613 47.9391 122.329 47.9363C121.976 47.9328 121.661 47.8463 121.382 47.6769C121.106 47.5075 120.887 47.2629 120.728 46.9431C120.57 46.6233 120.493 46.2362 120.498 45.7817C120.502 45.3347 120.585 44.9463 120.745 44.6164C120.906 44.2847 121.127 44.0293 121.409 43.8503C121.691 43.6693 122.016 43.5807 122.383 43.5843C122.667 43.5871 122.892 43.6367 123.058 43.7331C123.226 43.8275 123.353 43.9349 123.441 44.0551C123.531 44.1734 123.6 44.2707 123.648 44.3469L123.717 44.3476L123.723 43.6544L124.371 43.6609L124.327 48.1493C124.323 48.5243 124.235 48.8283 124.062 49.0615C123.891 49.2965 123.662 49.4676 123.375 49.5746C123.09 49.6835 122.773 49.7362 122.425 49.7328ZM122.426 47.3349C122.694 47.3376 122.922 47.2783 123.109 47.157C123.296 47.0358 123.439 46.8601 123.538 46.63C123.637 46.3999 123.688 46.1239 123.691 45.8019C123.694 45.4876 123.649 45.2096 123.557 44.9682C123.465 44.7267 123.326 44.5369 123.142 44.3987C122.958 44.2605 122.729 44.1901 122.457 44.1874C122.173 44.1846 121.935 44.2542 121.744 44.3962C121.556 44.5383 121.412 44.7301 121.315 44.9716C121.22 45.213 121.171 45.4815 121.168 45.7769C121.165 46.08 121.21 46.3484 121.302 46.5823C121.397 46.8143 121.537 46.9975 121.723 47.1319C121.911 47.2645 122.145 47.3322 122.426 47.3349ZM125.555 48.0364L125.598 43.673L126.246 43.6794L126.24 44.3385L126.285 44.3389C126.367 44.1238 126.512 43.9501 126.722 43.8177C126.932 43.6853 127.167 43.6204 127.428 43.623C127.478 43.6234 127.539 43.625 127.613 43.6276C127.687 43.6303 127.743 43.6337 127.781 43.6378L127.774 44.3196C127.751 44.3137 127.699 44.3047 127.618 44.2925C127.538 44.2784 127.454 44.271 127.365 44.2701C127.153 44.268 126.963 44.3106 126.796 44.398C126.63 44.4835 126.498 44.6034 126.4 44.7577C126.304 44.9102 126.255 45.0849 126.253 45.2819L126.226 48.0431L125.555 48.0364ZM129.815 48.1809C129.538 48.1782 129.288 48.1236 129.063 48.0172C128.839 47.9089 128.662 47.7547 128.531 47.5545C128.4 47.3525 128.336 47.1094 128.339 46.8253C128.342 46.5753 128.393 46.3732 128.493 46.2189C128.593 46.0627 128.726 45.9409 128.892 45.8535C129.057 45.7661 129.24 45.7016 129.439 45.66C129.64 45.6166 129.842 45.5826 130.045 45.5581C130.311 45.5266 130.526 45.5032 130.691 45.4878C130.858 45.4705 130.979 45.4404 131.055 45.3976C131.133 45.3548 131.173 45.2795 131.174 45.1715L131.174 45.1488C131.177 44.8685 131.102 44.6499 130.951 44.4931C130.801 44.3363 130.571 44.2564 130.263 44.2533C129.943 44.2502 129.691 44.3178 129.508 44.4561C129.325 44.5944 129.195 44.7428 129.12 44.9011L128.486 44.6676C128.602 44.4036 128.755 44.1986 128.946 44.0528C129.139 43.9051 129.348 43.803 129.574 43.7465C129.802 43.6882 130.026 43.6601 130.246 43.6622C130.386 43.6636 130.547 43.6823 130.728 43.7182C130.912 43.7522 131.088 43.8212 131.257 43.9251C131.429 44.0291 131.57 44.1849 131.682 44.3924C131.793 44.6 131.847 44.877 131.844 45.2236L131.815 48.0985L131.145 48.0918L131.151 47.5009L131.117 47.5006C131.07 47.5948 130.994 47.6954 130.887 47.8023C130.779 47.9092 130.637 47.9997 130.461 48.0737C130.284 48.1477 130.068 48.1834 129.815 48.1809ZM129.923 47.5797C130.188 47.5823 130.412 47.5324 130.595 47.4301C130.779 47.3277 130.919 47.1947 131.014 47.0308C131.11 46.867 131.159 46.6942 131.161 46.5124L131.167 45.8987C131.138 45.9326 131.075 45.9632 130.978 45.9906C130.883 46.0162 130.773 46.0388 130.648 46.0584C130.525 46.0761 130.404 46.092 130.287 46.1059C130.171 46.1181 130.077 46.1285 130.005 46.1373C129.831 46.1583 129.668 46.1936 129.516 46.2432C129.365 46.291 129.244 46.3646 129.15 46.464C129.058 46.5616 129.011 46.6956 129.009 46.8661C129.007 47.099 129.091 47.276 129.263 47.397C129.436 47.5161 129.656 47.577 129.923 47.5797Z" fill="#2742D0"/>
<path d="M44.3079 56.0505L43.8048 56.5438C43.6332 56.4282 43.4565 56.3521 43.2747 56.3155C43.0943 56.2776 42.9149 56.2731 42.7365 56.3021C42.5581 56.3285 42.3868 56.3851 42.2225 56.4718C42.0583 56.5586 41.9072 56.6696 41.7692 56.8048C41.5177 57.0515 41.3521 57.3384 41.2725 57.6658C41.1943 57.9918 41.2163 58.3375 41.3386 58.703C41.4622 59.0672 41.7003 59.4291 42.053 59.7889C42.4057 60.1486 42.7629 60.3939 43.1245 60.5247C43.4875 60.6542 43.8328 60.6831 44.1603 60.6113C44.4891 60.5383 44.7793 60.3784 45.0309 60.1318C45.1688 59.9966 45.2828 59.8477 45.3728 59.6852C45.4628 59.5227 45.5234 59.3532 45.5546 59.1767C45.5859 58.9976 45.5843 58.8174 45.5499 58.6363C45.5156 58.4524 45.443 58.2743 45.3322 58.1017L45.8353 57.6085C46.0056 57.858 46.123 58.1156 46.1873 58.3814C46.2516 58.6472 46.2671 58.9119 46.2337 59.1754C46.1989 59.4376 46.1187 59.6899 45.9931 59.9324C45.8689 60.1736 45.7019 60.3969 45.4923 60.6024C45.138 60.9498 44.738 61.1722 44.2924 61.2696C43.8468 61.3669 43.3884 61.3336 42.9173 61.1696C42.4461 61.0055 41.9957 60.7044 41.5662 60.2662C41.1366 59.828 40.8444 59.3718 40.6898 58.8975C40.5351 58.4232 40.5108 57.9642 40.617 57.5207C40.7232 57.0771 40.9535 56.6816 41.3078 56.3342C41.5174 56.1287 41.744 55.9662 41.9876 55.8467C42.2326 55.7259 42.4871 55.6515 42.7512 55.6233C43.014 55.5937 43.2777 55.6138 43.5421 55.6833C43.8053 55.7516 44.0606 55.874 44.3079 56.0505ZM47.8562 58.1735L44.8014 55.0575L45.2802 54.5881L48.335 57.7041L47.8562 58.1735ZM44.5357 54.2995C44.4424 54.391 44.3308 54.4381 44.2008 54.4408C44.0722 54.4422 43.9642 54.3983 43.8767 54.309C43.7892 54.2198 43.7474 54.1109 43.7514 53.9824C43.7567 53.8525 43.806 53.7418 43.8993 53.6503C43.9926 53.5588 44.1036 53.5124 44.2321 53.511C44.3621 53.5083 44.4708 53.5515 44.5583 53.6408C44.6458 53.7301 44.6869 53.8396 44.6816 53.9695C44.6777 54.098 44.629 54.208 44.5357 54.2995ZM50.582 55.6285C50.2817 55.9229 49.9578 56.1105 49.6101 56.1915C49.2624 56.2697 48.9124 56.2468 48.5601 56.1228C48.2078 55.9961 47.8752 55.7732 47.5623 55.454C47.2494 55.1348 47.0317 54.7965 46.9094 54.439C46.7871 54.0789 46.7637 53.7278 46.8395 53.3857C46.9152 53.0409 47.0937 52.7306 47.375 52.4548C47.5373 52.2957 47.7241 52.1656 47.9354 52.0646C48.1466 51.9636 48.3768 51.9103 48.626 51.9047C48.8738 51.8978 49.1338 51.9559 49.4057 52.0792C49.6777 52.2024 49.9563 52.4094 50.2413 52.7002L50.4402 52.903L48.0383 55.2578L47.6326 54.844L49.5476 52.9665C49.3753 52.7907 49.1863 52.6683 48.9807 52.5993C48.7765 52.529 48.5711 52.5169 48.3643 52.5631C48.159 52.6079 47.9698 52.7152 47.7967 52.8849C47.606 53.0718 47.4874 53.2809 47.4409 53.5122C47.3944 53.7407 47.4076 53.9665 47.4804 54.1896C47.5532 54.4126 47.6738 54.61 47.8421 54.7818L48.1126 55.0576C48.3433 55.293 48.5795 55.4527 48.821 55.5368C49.0626 55.6182 49.2982 55.6299 49.5278 55.5719C49.7561 55.5125 49.9669 55.3881 50.1603 55.1985C50.2861 55.0752 50.3825 54.9462 50.4494 54.8116C50.5164 54.6743 50.552 54.5334 50.5561 54.3888C50.5589 54.2428 50.5275 54.0959 50.462 53.9479L51.0518 53.6243C51.1569 53.8289 51.2104 54.0471 51.2121 54.2788C51.2125 54.5091 51.1606 54.7403 51.0565 54.9723C50.9511 55.203 50.7929 55.4217 50.582 55.6285ZM47.4465 51.7323L46.4676 51.578L46.6026 52.5597L46.1481 53.0052L46.1163 52.9727L45.9462 51.4844L46.3844 51.0548L47.8691 51.2544L47.9009 51.2868L47.4465 51.7323ZM51.1779 51.2409L53.0156 53.1154L52.5368 53.5847L49.482 50.4688L49.9445 50.0153L50.4218 50.5022L50.4624 50.4624C50.3803 50.2326 50.3666 49.9967 50.4212 49.7549C50.4745 49.5116 50.6188 49.2747 50.8541 49.044C51.0651 48.8371 51.2921 48.6994 51.5352 48.6309C51.777 48.5609 52.0273 48.5701 52.2863 48.6584C52.5439 48.7453 52.8027 48.9213 53.0625 49.1864L55.0036 51.1663L54.5249 51.6357L52.6156 49.6882C52.3756 49.4434 52.1251 49.3151 51.8641 49.3031C51.6017 49.2898 51.3596 49.3918 51.1378 49.6093C50.985 49.7591 50.8809 49.9262 50.8255 50.1104C50.7714 50.2934 50.7722 50.4822 50.8279 50.677C50.8836 50.8717 51.0002 51.0597 51.1779 51.2409ZM57.208 49.1325C56.9159 49.4189 56.5967 49.5966 56.2505 49.6655C55.9042 49.7344 55.5557 49.7035 55.2047 49.5727C54.8538 49.442 54.5259 49.2212 54.2209 48.9101C53.9106 48.5936 53.695 48.2573 53.574 47.9012C53.453 47.5424 53.4303 47.192 53.506 46.8499C53.5818 46.5051 53.7603 46.1948 54.0416 45.919C54.2607 45.7042 54.4979 45.5512 54.7533 45.46C55.0087 45.3688 55.2641 45.3412 55.5195 45.3772C55.775 45.4132 56.0117 45.5153 56.2297 45.6836L55.7509 46.1529C55.5752 46.0467 55.3707 46.0005 55.1375 46.0143C54.9044 46.0254 54.6823 46.1343 54.4714 46.3412C54.2847 46.5241 54.1688 46.7332 54.1236 46.9685C54.0785 47.2011 54.1028 47.4437 54.1968 47.6965C54.2907 47.9465 54.453 48.1892 54.6837 48.4245C54.9198 48.6652 55.1631 48.8377 55.4139 48.942C55.666 49.0449 55.9101 49.0775 56.1462 49.0397C56.3836 49.0005 56.597 48.8881 56.7863 48.7025C56.9108 48.5805 57.0025 48.4481 57.0615 48.3054C57.1205 48.1627 57.1454 48.0163 57.1361 47.8662C57.1269 47.7161 57.0815 47.5697 56.9999 47.4269L57.4786 46.9576C57.6319 47.168 57.7274 47.3993 57.7651 47.6515C57.8028 47.9009 57.7768 48.1545 57.6872 48.4121C57.5976 48.667 57.4379 48.9071 57.208 49.1325ZM59.0695 47.1802L56.0147 44.0643L56.4934 43.5949L59.5483 46.7109L59.0695 47.1802ZM55.749 43.3063C55.6557 43.3978 55.544 43.4449 55.4141 43.4476C55.2855 43.449 55.1775 43.4051 55.0899 43.3158C55.0024 43.2266 54.9607 43.1177 54.9646 42.9891C54.9699 42.8593 55.0192 42.7486 55.1125 42.6571C55.2059 42.5656 55.3168 42.5192 55.4454 42.5178C55.5753 42.515 55.6841 42.5583 55.7716 42.6476C55.8591 42.7368 55.9002 42.8464 55.8949 42.9762C55.8909 43.1048 55.8423 43.2148 55.749 43.3063ZM61.4137 45.0253C61.2162 45.2189 61.0006 45.3574 60.7667 45.4408C60.5315 45.5228 60.297 45.5392 60.0631 45.49C59.8279 45.4395 59.6108 45.3128 59.4119 45.1099C59.2369 44.9314 59.1302 44.7522 59.0918 44.5724C59.0521 44.3912 59.0599 44.2111 59.1153 44.0322C59.1706 43.8533 59.254 43.6787 59.3655 43.5083C59.4771 43.3353 59.5959 43.1684 59.7221 43.0076C59.8875 42.7977 60.0231 42.6289 60.1289 42.5014C60.2346 42.3712 60.2993 42.264 60.3229 42.1799C60.3479 42.0944 60.3225 42.0131 60.247 41.9361L60.2311 41.9198C60.0348 41.7197 59.8276 41.6178 59.6093 41.6143C59.3924 41.6095 59.1737 41.7152 58.9533 41.9313C58.7247 42.1553 58.5946 42.3811 58.5629 42.6084C58.5311 42.8358 58.5446 43.0321 58.6032 43.1974L57.9897 43.4807C57.8852 43.2118 57.8489 42.9583 57.8807 42.7202C57.9126 42.4794 57.9884 42.2592 58.1082 42.0595C58.2281 41.8571 58.3665 41.679 58.5234 41.5252C58.6234 41.4271 58.7503 41.3266 58.904 41.2236C59.0578 41.118 59.2313 41.0421 59.4246 40.9958C59.6193 40.9481 59.8294 40.9583 60.0551 41.0261C60.2808 41.094 60.5149 41.2517 60.7575 41.4992L62.7702 43.5521L62.2915 44.0215L61.8778 43.5995L61.8535 43.6234C61.8873 43.7228 61.9041 43.8482 61.904 43.9996C61.9038 44.1509 61.8674 44.3153 61.7946 44.4927C61.7219 44.6701 61.5949 44.8476 61.4137 45.0253ZM61.0651 44.5236C61.2544 44.338 61.3775 44.1444 61.4344 43.9427C61.4927 43.7397 61.4973 43.5469 61.4482 43.3643C61.4005 43.1803 61.313 43.0234 61.1857 42.8936L60.7561 42.4554C60.7597 42.4996 60.7369 42.5657 60.6878 42.6536C60.6388 42.7388 60.5769 42.8326 60.5022 42.935C60.4276 43.0347 60.3537 43.1311 60.2804 43.2241C60.2072 43.3145 60.1482 43.3882 60.1034 43.4453C59.9949 43.5836 59.9045 43.724 59.8321 43.8665C59.7597 44.0064 59.7255 44.1447 59.7295 44.2814C59.7336 44.4153 59.7952 44.5432 59.9146 44.6649C60.0777 44.8312 60.2625 44.8967 60.4691 44.8612C60.6757 44.8231 60.8744 44.7106 61.0651 44.5236Z" fill="#010101"/>
<path d="M30.7202 122.1L30.7779 116.283L34.2891 116.317L34.2829 116.942L31.4762 116.915L31.4567 118.88L34.0816 118.906L34.0754 119.531L31.4505 119.505L31.4309 121.482L34.2831 121.511L34.2769 122.136L30.7202 122.1ZM37.0571 122.254C36.6935 122.251 36.3734 122.156 36.0968 121.969C35.8202 121.781 35.605 121.517 35.4512 121.179C35.2973 120.838 35.2227 120.437 35.2273 119.975C35.2318 119.516 35.3144 119.119 35.4749 118.784C35.6354 118.448 35.8568 118.19 36.1389 118.009C36.421 117.828 36.7457 117.739 37.1131 117.743C37.3972 117.746 37.6212 117.796 37.785 117.892C37.9507 117.986 38.0766 118.094 38.1625 118.214C38.2503 118.332 38.3185 118.429 38.367 118.506L38.4238 118.506L38.4451 116.359L39.1155 116.365L39.0579 122.183L38.4102 122.177L38.4168 121.506L38.3373 121.505C38.2873 121.585 38.2162 121.684 38.1241 121.804C38.032 121.923 37.9012 122.029 37.7317 122.122C37.5622 122.213 37.3374 122.257 37.0571 122.254ZM37.1539 121.653C37.4229 121.655 37.6508 121.588 37.8378 121.449C38.0248 121.309 38.1679 121.115 38.2669 120.866C38.366 120.615 38.4172 120.324 38.4204 119.995C38.4237 119.669 38.3791 119.384 38.2869 119.138C38.1946 118.891 38.0564 118.699 37.8721 118.56C37.6879 118.42 37.4594 118.349 37.1867 118.346C36.9026 118.343 36.6652 118.414 36.4743 118.558C36.2854 118.7 36.1424 118.895 36.0452 119.142C35.95 119.387 35.9009 119.663 35.8978 119.97C35.8948 120.28 35.9393 120.563 36.0315 120.818C36.1256 121.071 36.2656 121.273 36.4516 121.424C36.6396 121.574 36.8737 121.65 37.1539 121.653ZM43.1464 120.439L43.1719 117.86L43.8424 117.867L43.7991 122.23L43.1287 122.223L43.136 121.485L43.0906 121.484C42.9861 121.705 42.8252 121.892 42.6077 122.045C42.3903 122.196 42.1168 122.27 41.7873 122.267C41.5146 122.264 41.2728 122.202 41.0618 122.081C40.8509 121.957 40.6861 121.774 40.5673 121.53C40.4485 121.285 40.3909 120.977 40.3946 120.605L40.4221 117.833L41.0925 117.839L41.0655 120.567C41.0623 120.885 41.1488 121.139 41.325 121.33C41.503 121.522 41.7312 121.619 42.0096 121.621C42.1763 121.623 42.3462 121.582 42.5194 121.499C42.6945 121.415 42.8416 121.286 42.9607 121.111C43.0818 120.936 43.1437 120.712 43.1464 120.439ZM46.7988 122.351C46.3897 122.347 46.0384 122.247 45.7449 122.05C45.4514 121.854 45.2267 121.586 45.071 121.245C44.9153 120.905 44.8396 120.517 44.8439 120.081C44.8483 119.638 44.9336 119.248 45.0998 118.91C45.268 118.571 45.4998 118.307 45.7952 118.119C46.0926 117.929 46.4382 117.836 46.8321 117.839C47.1389 117.842 47.4149 117.902 47.6599 118.018C47.905 118.134 48.1051 118.295 48.2603 118.501C48.4155 118.707 48.5106 118.947 48.5458 119.22L47.8754 119.213C47.8262 119.014 47.7143 118.837 47.5397 118.682C47.367 118.525 47.133 118.445 46.8375 118.442C46.5762 118.439 46.3463 118.505 46.148 118.64C45.9516 118.772 45.7973 118.961 45.685 119.206C45.5746 119.449 45.5178 119.736 45.5145 120.065C45.5112 120.402 45.5613 120.696 45.6649 120.947C45.7704 121.198 45.92 121.394 46.1137 121.534C46.3092 121.674 46.5396 121.746 46.8047 121.748C46.979 121.75 47.1374 121.721 47.2801 121.662C47.4227 121.603 47.5438 121.517 47.6434 121.404C47.743 121.292 47.8145 121.156 47.8577 120.997L48.5281 121.004C48.4877 121.261 48.3916 121.492 48.24 121.697C48.0902 121.9 47.8926 122.061 47.6471 122.18C47.4035 122.297 47.1207 122.354 46.7988 122.351ZM50.7786 122.401C50.5021 122.399 50.2517 122.344 50.0273 122.238C49.803 122.129 49.6256 121.975 49.495 121.775C49.3644 121.573 49.3005 121.33 49.3033 121.046C49.3058 120.796 49.357 120.594 49.4571 120.439C49.5571 120.283 49.6899 120.161 49.8556 120.074C50.0212 119.987 50.2037 119.922 50.403 119.881C50.6042 119.837 50.8062 119.803 51.0091 119.779C51.2746 119.747 51.4898 119.724 51.6547 119.708C51.8216 119.691 51.9431 119.661 52.0193 119.618C52.0974 119.575 52.1369 119.5 52.138 119.392L52.1382 119.369C52.141 119.089 52.0665 118.871 51.9146 118.714C51.7646 118.557 51.5353 118.477 51.2266 118.474C50.9066 118.471 50.6549 118.538 50.4717 118.677C50.2885 118.815 50.1592 118.963 50.0838 119.122L49.4497 118.888C49.566 118.624 49.7195 118.419 49.9104 118.273C50.1031 118.126 50.3125 118.024 50.5384 117.967C50.7663 117.909 50.9901 117.881 51.2097 117.883C51.3499 117.884 51.5107 117.903 51.6922 117.939C51.8756 117.973 52.052 118.042 52.2214 118.146C52.3927 118.25 52.5342 118.405 52.6458 118.613C52.7573 118.821 52.8114 119.098 52.808 119.444L52.7795 122.319L52.1091 122.312L52.1149 121.722L52.0808 121.721C52.0345 121.815 51.9577 121.916 51.8506 122.023C51.7434 122.13 51.6014 122.22 51.4246 122.294C51.2477 122.368 51.0324 122.404 50.7786 122.401ZM50.8868 121.8C51.152 121.803 51.376 121.753 51.5588 121.651C51.7435 121.548 51.8831 121.415 51.9775 121.251C52.0739 121.088 52.1229 120.915 52.1247 120.733L52.1308 120.119C52.1021 120.153 52.0393 120.184 51.9424 120.211C51.8474 120.237 51.7374 120.259 51.6122 120.279C51.4889 120.297 51.3684 120.313 51.2509 120.327C51.1352 120.339 51.0414 120.349 50.9693 120.358C50.7948 120.379 50.6316 120.414 50.4796 120.464C50.3295 120.512 50.2075 120.585 50.1137 120.685C50.0219 120.782 49.9751 120.916 49.9734 121.087C49.9711 121.32 50.0555 121.497 50.2267 121.618C50.3997 121.737 50.6198 121.798 50.8868 121.8Z" fill="#2742D0"/>
<path d="M176.446 117.331L176.453 116.706L180.816 116.749L180.81 117.374L178.98 117.356L178.929 122.549L178.224 122.542L178.276 117.349L176.446 117.331ZM181.302 122.573L181.345 118.209L181.993 118.216L181.986 118.875L182.032 118.875C182.113 118.66 182.259 118.486 182.469 118.354C182.678 118.222 182.914 118.157 183.175 118.159C183.224 118.16 183.286 118.161 183.36 118.164C183.434 118.167 183.489 118.17 183.527 118.174L183.52 118.856C183.498 118.85 183.446 118.841 183.364 118.829C183.285 118.815 183.201 118.807 183.112 118.806C182.9 118.804 182.71 118.847 182.542 118.934C182.377 119.02 182.245 119.14 182.147 119.294C182.051 119.446 182.001 119.621 181.999 119.818L181.972 122.579L181.302 122.573ZM185.561 122.717C185.285 122.714 185.034 122.66 184.81 122.553C184.586 122.445 184.408 122.291 184.277 122.091C184.147 121.889 184.083 121.646 184.086 121.362C184.088 121.112 184.14 120.909 184.24 120.755C184.34 120.599 184.472 120.477 184.638 120.39C184.804 120.302 184.986 120.238 185.186 120.196C185.387 120.153 185.589 120.119 185.792 120.094C186.057 120.063 186.272 120.039 186.437 120.024C186.604 120.007 186.726 119.977 186.802 119.934C186.88 119.891 186.919 119.816 186.921 119.708L186.921 119.685C186.924 119.405 186.849 119.186 186.697 119.029C186.547 118.873 186.318 118.793 186.009 118.79C185.689 118.786 185.437 118.854 185.254 118.992C185.071 119.131 184.942 119.279 184.866 119.437L184.232 119.204C184.348 118.94 184.502 118.735 184.693 118.589C184.886 118.441 185.095 118.339 185.321 118.283C185.549 118.224 185.773 118.196 185.992 118.198C186.132 118.2 186.293 118.219 186.475 118.254C186.658 118.288 186.834 118.357 187.004 118.461C187.175 118.565 187.317 118.721 187.428 118.929C187.54 119.136 187.594 119.413 187.591 119.76L187.562 122.635L186.892 122.628L186.897 122.037L186.863 122.037C186.817 122.131 186.74 122.232 186.633 122.339C186.526 122.445 186.384 122.536 186.207 122.61C186.03 122.684 185.815 122.72 185.561 122.717ZM185.669 122.116C185.934 122.119 186.158 122.069 186.341 121.966C186.526 121.864 186.666 121.731 186.76 121.567C186.856 121.403 186.905 121.23 186.907 121.049L186.913 120.435C186.885 120.469 186.822 120.499 186.725 120.527C186.63 120.552 186.52 120.575 186.395 120.595C186.271 120.612 186.151 120.628 186.033 120.642C185.918 120.654 185.824 120.665 185.752 120.674C185.577 120.695 185.414 120.73 185.262 120.779C185.112 120.827 184.99 120.901 184.896 121C184.804 121.098 184.758 121.232 184.756 121.402C184.754 121.635 184.838 121.812 185.009 121.933C185.182 122.052 185.402 122.113 185.669 122.116ZM189.482 120.029L189.456 122.653L188.786 122.647L188.829 118.283L189.477 118.29L189.47 118.972L189.527 118.972C189.631 118.752 189.788 118.575 189.998 118.443C190.208 118.308 190.477 118.243 190.807 118.246C191.102 118.249 191.36 118.312 191.58 118.436C191.801 118.557 191.971 118.741 192.092 118.986C192.213 119.23 192.271 119.537 192.268 119.908L192.24 122.681L191.57 122.674L191.597 119.947C191.6 119.604 191.514 119.337 191.338 119.144C191.161 118.949 190.918 118.85 190.608 118.847C190.394 118.844 190.202 118.889 190.032 118.98C189.865 119.071 189.732 119.205 189.633 119.382C189.535 119.559 189.485 119.775 189.482 120.029ZM196.589 119.338L195.986 119.502C195.949 119.401 195.894 119.303 195.821 119.208C195.75 119.111 195.652 119.03 195.528 118.966C195.403 118.903 195.244 118.87 195.049 118.868C194.782 118.865 194.558 118.924 194.379 119.046C194.202 119.165 194.112 119.319 194.11 119.506C194.109 119.673 194.168 119.805 194.288 119.903C194.409 120.001 194.597 120.083 194.854 120.15L195.5 120.316C195.889 120.414 196.179 120.562 196.368 120.759C196.557 120.954 196.651 121.204 196.648 121.509C196.645 121.759 196.571 121.982 196.425 122.177C196.281 122.373 196.081 122.526 195.824 122.637C195.567 122.748 195.269 122.802 194.93 122.799C194.485 122.794 194.118 122.694 193.828 122.498C193.538 122.302 193.356 122.018 193.282 121.646L193.92 121.493C193.979 121.729 194.091 121.906 194.259 122.025C194.428 122.144 194.65 122.205 194.925 122.208C195.237 122.211 195.486 122.147 195.671 122.016C195.858 121.884 195.952 121.723 195.954 121.536C195.956 121.384 195.904 121.257 195.799 121.154C195.694 121.049 195.532 120.969 195.312 120.916L194.587 120.738C194.188 120.64 193.896 120.49 193.711 120.289C193.527 120.087 193.437 119.835 193.44 119.534C193.442 119.288 193.513 119.07 193.653 118.882C193.796 118.694 193.987 118.548 194.229 118.442C194.472 118.336 194.748 118.285 195.054 118.288C195.486 118.293 195.824 118.391 196.069 118.582C196.315 118.774 196.488 119.026 196.589 119.338ZM199.631 118.39L199.625 118.959L197.273 118.935L197.279 118.367L199.631 118.39ZM197.94 122.738L197.989 117.772C197.992 117.522 198.053 117.314 198.172 117.149C198.291 116.983 198.444 116.86 198.633 116.778C198.821 116.697 199.019 116.657 199.228 116.659C199.392 116.661 199.527 116.675 199.631 116.703C199.735 116.73 199.812 116.756 199.863 116.779L199.664 117.357C199.63 117.345 199.583 117.33 199.522 117.313C199.464 117.295 199.386 117.286 199.29 117.285C199.068 117.283 198.907 117.337 198.808 117.448C198.71 117.558 198.66 117.722 198.658 117.938L198.61 122.744L197.94 122.738ZM202.119 122.87C201.725 122.866 201.381 122.769 201.085 122.578C200.792 122.388 200.563 122.123 200.4 121.785C200.238 121.446 200.16 121.051 200.164 120.6C200.169 120.146 200.255 119.75 200.423 119.413C200.593 119.075 200.827 118.814 201.124 118.63C201.424 118.445 201.77 118.355 202.164 118.359C202.558 118.363 202.902 118.46 203.195 118.65C203.491 118.841 203.719 119.106 203.881 119.447C204.044 119.787 204.123 120.185 204.119 120.64C204.114 121.09 204.027 121.483 203.857 121.819C203.689 122.154 203.455 122.414 203.156 122.599C202.859 122.783 202.513 122.874 202.119 122.87ZM202.125 122.268C202.425 122.271 202.672 122.196 202.866 122.045C203.061 121.893 203.206 121.693 203.301 121.444C203.396 121.195 203.446 120.925 203.448 120.633C203.451 120.341 203.408 120.069 203.317 119.816C203.227 119.563 203.086 119.358 202.894 119.201C202.703 119.044 202.457 118.964 202.158 118.961C201.859 118.958 201.612 119.033 201.417 119.187C201.222 119.34 201.077 119.542 200.982 119.793C200.887 120.044 200.838 120.315 200.835 120.607C200.832 120.899 200.876 121.17 200.966 121.421C201.056 121.672 201.197 121.875 201.389 122.03C201.581 122.186 201.826 122.265 202.125 122.268ZM205.121 122.809L205.164 118.445L205.812 118.452L205.805 119.111L205.851 119.111C205.932 118.896 206.078 118.722 206.288 118.59C206.497 118.458 206.733 118.393 206.994 118.395C207.043 118.396 207.105 118.397 207.179 118.4C207.253 118.403 207.309 118.406 207.346 118.41L207.34 119.092C207.317 119.086 207.265 119.077 207.184 119.065C207.104 119.051 207.02 119.043 206.931 119.042C206.719 119.04 206.529 119.083 206.361 119.17C206.196 119.256 206.064 119.376 205.966 119.53C205.87 119.682 205.821 119.857 205.819 120.054L205.791 122.815L205.121 122.809ZM208.097 122.838L208.14 118.475L208.788 118.481L208.781 119.163L208.838 119.164C208.931 118.931 209.08 118.752 209.284 118.625C209.488 118.497 209.732 118.434 210.016 118.437C210.304 118.439 210.543 118.507 210.733 118.64C210.925 118.77 211.073 118.953 211.179 119.187L211.224 119.187C211.338 118.963 211.508 118.786 211.733 118.655C211.957 118.523 212.226 118.458 212.539 118.462C212.929 118.465 213.247 118.591 213.492 118.837C213.738 119.082 213.858 119.461 213.853 119.975L213.824 122.895L213.154 122.888L213.183 119.968C213.186 119.646 213.1 119.415 212.925 119.275C212.751 119.135 212.544 119.064 212.305 119.062C211.999 119.058 211.76 119.149 211.59 119.333C211.419 119.515 211.333 119.747 211.33 120.029L211.302 122.87L210.62 122.863L210.649 119.875C210.652 119.627 210.573 119.426 210.414 119.273C210.254 119.118 210.048 119.039 209.794 119.037C209.62 119.035 209.457 119.08 209.304 119.171C209.154 119.262 209.031 119.39 208.937 119.554C208.844 119.716 208.797 119.904 208.795 120.118L208.768 122.845L208.097 122.838ZM216.333 123.022C216.057 123.019 215.806 122.965 215.582 122.858C215.357 122.75 215.18 122.596 215.049 122.396C214.919 122.194 214.855 121.951 214.858 121.666C214.86 121.416 214.911 121.214 215.012 121.06C215.112 120.904 215.244 120.782 215.41 120.695C215.576 120.607 215.758 120.543 215.957 120.501C216.159 120.458 216.361 120.424 216.564 120.399C216.829 120.368 217.044 120.344 217.209 120.329C217.376 120.312 217.498 120.282 217.574 120.239C217.652 120.196 217.691 120.121 217.692 120.013L217.693 119.99C217.695 119.71 217.621 119.491 217.469 119.334C217.319 119.177 217.09 119.098 216.781 119.094C216.461 119.091 216.209 119.159 216.026 119.297C215.843 119.436 215.714 119.584 215.638 119.742L215.004 119.509C215.12 119.245 215.274 119.04 215.465 118.894C215.658 118.746 215.867 118.644 216.093 118.588C216.321 118.529 216.545 118.501 216.764 118.503C216.904 118.505 217.065 118.523 217.247 118.559C217.43 118.593 217.606 118.662 217.776 118.766C217.947 118.87 218.089 119.026 218.2 119.234C218.312 119.441 218.366 119.718 218.362 120.065L218.334 122.94L217.664 122.933L217.669 122.342L217.635 122.342C217.589 122.436 217.512 122.537 217.405 122.643C217.298 122.75 217.156 122.841 216.979 122.915C216.802 122.989 216.587 123.025 216.333 123.022ZM216.441 122.421C216.706 122.423 216.93 122.374 217.113 122.271C217.298 122.169 217.438 122.036 217.532 121.872C217.628 121.708 217.677 121.535 217.679 121.354L217.685 120.74C217.657 120.774 217.594 120.804 217.497 120.832C217.402 120.857 217.292 120.88 217.167 120.9C217.043 120.917 216.923 120.933 216.805 120.947C216.69 120.959 216.596 120.97 216.524 120.978C216.349 120.999 216.186 121.035 216.034 121.084C215.884 121.132 215.762 121.206 215.668 121.305C215.576 121.403 215.53 121.537 215.528 121.707C215.526 121.94 215.61 122.117 215.781 122.238C215.954 122.357 216.174 122.418 216.441 122.421Z" fill="#2742D0"/>
<path d="M105.973 198.82L106.031 193.002L107.997 193.022C108.453 193.026 108.826 193.112 109.114 193.28C109.404 193.446 109.617 193.668 109.755 193.948C109.892 194.228 109.959 194.539 109.956 194.882C109.952 195.225 109.879 195.536 109.736 195.815C109.595 196.094 109.379 196.315 109.088 196.479C108.796 196.641 108.424 196.719 107.972 196.715L106.563 196.701L106.569 196.076L107.955 196.09C108.268 196.093 108.519 196.041 108.709 195.935C108.9 195.829 109.039 195.685 109.126 195.502C109.215 195.317 109.26 195.108 109.263 194.875C109.265 194.642 109.223 194.433 109.138 194.249C109.055 194.064 108.918 193.919 108.728 193.813C108.537 193.705 108.284 193.65 107.968 193.646L106.729 193.634L106.678 198.827L105.973 198.82ZM110.96 198.869L111.004 194.506L111.651 194.512L111.645 195.172L111.69 195.172C111.772 194.957 111.918 194.783 112.127 194.651C112.337 194.518 112.572 194.453 112.834 194.456C112.883 194.456 112.945 194.458 113.018 194.461C113.092 194.463 113.148 194.467 113.186 194.471L113.179 195.153C113.156 195.147 113.104 195.138 113.023 195.126C112.944 195.111 112.86 195.104 112.77 195.103C112.558 195.101 112.369 195.144 112.201 195.231C112.035 195.317 111.904 195.436 111.805 195.591C111.709 195.743 111.66 195.918 111.658 196.115L111.631 198.876L110.96 198.869ZM115.576 199.006C115.182 199.002 114.837 198.905 114.542 198.715C114.248 198.524 114.02 198.26 113.856 197.921C113.695 197.582 113.616 197.187 113.621 196.737C113.625 196.282 113.712 195.886 113.88 195.549C114.05 195.211 114.283 194.951 114.581 194.766C114.88 194.581 115.226 194.491 115.62 194.495C116.014 194.499 116.358 194.596 116.652 194.786C116.947 194.977 117.176 195.242 117.337 195.583C117.5 195.924 117.58 196.321 117.575 196.776C117.571 197.227 117.483 197.62 117.313 197.955C117.145 198.291 116.912 198.551 116.613 198.735C116.315 198.92 115.97 199.01 115.576 199.006ZM115.582 198.404C115.881 198.407 116.128 198.333 116.323 198.181C116.517 198.03 116.662 197.829 116.758 197.58C116.853 197.331 116.902 197.061 116.905 196.769C116.908 196.478 116.864 196.205 116.774 195.953C116.683 195.7 116.542 195.495 116.351 195.337C116.159 195.18 115.914 195.1 115.614 195.097C115.315 195.094 115.068 195.169 114.874 195.323C114.679 195.476 114.534 195.678 114.439 195.929C114.343 196.18 114.294 196.452 114.291 196.743C114.288 197.035 114.332 197.306 114.422 197.557C114.513 197.808 114.654 198.011 114.845 198.166C115.037 198.322 115.282 198.401 115.582 198.404ZM120.518 194.6L120.512 195.168L118.251 195.146L118.257 194.578L120.518 194.6ZM118.926 193.539L119.597 193.546L119.555 197.705C119.554 197.894 119.58 198.036 119.634 198.132C119.689 198.225 119.761 198.288 119.848 198.321C119.936 198.352 120.03 198.368 120.128 198.369C120.202 198.37 120.263 198.367 120.31 198.36C120.358 198.351 120.396 198.344 120.424 198.338L120.555 198.942C120.509 198.958 120.445 198.975 120.364 198.991C120.282 199.009 120.179 199.018 120.054 199.016C119.864 199.015 119.679 198.972 119.498 198.889C119.319 198.806 119.171 198.68 119.053 198.512C118.937 198.344 118.881 198.134 118.883 197.88L118.926 193.539ZM123.265 199.082C122.845 199.078 122.483 198.982 122.18 198.793C121.879 198.603 121.647 198.339 121.486 198.002C121.326 197.663 121.249 197.271 121.253 196.824C121.258 196.377 121.343 195.984 121.509 195.644C121.677 195.303 121.909 195.038 122.205 194.85C122.502 194.66 122.848 194.567 123.241 194.57C123.469 194.573 123.693 194.613 123.914 194.691C124.134 194.769 124.335 194.894 124.515 195.066C124.695 195.236 124.838 195.461 124.943 195.741C125.048 196.02 125.099 196.364 125.095 196.771L125.092 197.055L121.728 197.022L121.734 196.442L124.416 196.469C124.418 196.222 124.371 196.002 124.275 195.808C124.18 195.614 124.043 195.46 123.865 195.347C123.688 195.233 123.478 195.175 123.236 195.173C122.968 195.17 122.737 195.234 122.54 195.365C122.346 195.493 122.196 195.662 122.089 195.872C121.983 196.081 121.929 196.306 121.926 196.546L121.923 196.933C121.919 197.262 121.973 197.542 122.085 197.772C122.198 198.001 122.356 198.176 122.56 198.297C122.763 198.416 123 198.477 123.271 198.48C123.447 198.482 123.606 198.459 123.749 198.411C123.893 198.361 124.018 198.287 124.123 198.187C124.228 198.086 124.31 197.96 124.369 197.809L125.014 197.997C124.944 198.216 124.828 198.408 124.665 198.573C124.502 198.737 124.302 198.863 124.065 198.954C123.827 199.042 123.56 199.085 123.265 199.082ZM127.837 200.764C127.513 200.761 127.235 200.716 127.003 200.631C126.771 200.547 126.577 200.437 126.423 200.301C126.271 200.167 126.151 200.024 126.061 199.871L126.599 199.502C126.659 199.582 126.735 199.674 126.826 199.777C126.918 199.882 127.044 199.973 127.204 200.05C127.367 200.13 127.579 200.171 127.842 200.173C128.195 200.177 128.486 200.094 128.717 199.926C128.948 199.758 129.065 199.492 129.069 199.128L129.078 198.242L129.021 198.242C128.971 198.321 128.9 198.418 128.808 198.535C128.717 198.65 128.588 198.752 128.418 198.841C128.251 198.928 128.025 198.97 127.741 198.968C127.388 198.964 127.073 198.878 126.794 198.708C126.518 198.539 126.299 198.294 126.14 197.974C125.982 197.655 125.905 197.267 125.91 196.813C125.914 196.366 125.997 195.978 126.157 195.648C126.318 195.316 126.539 195.061 126.821 194.882C127.103 194.701 127.428 194.612 127.795 194.616C128.079 194.618 128.304 194.668 128.47 194.764C128.638 194.859 128.765 194.966 128.853 195.086C128.943 195.205 129.012 195.302 129.06 195.378L129.129 195.379L129.136 194.686L129.783 194.692L129.739 199.181C129.735 199.556 129.647 199.86 129.474 200.093C129.303 200.328 129.074 200.499 128.787 200.606C128.502 200.715 128.185 200.768 127.837 200.764ZM127.838 198.366C128.107 198.369 128.334 198.31 128.521 198.188C128.708 198.067 128.851 197.891 128.95 197.661C129.049 197.431 129.1 197.155 129.103 196.833C129.106 196.519 129.061 196.241 128.969 195.999C128.877 195.758 128.738 195.568 128.554 195.43C128.37 195.292 128.142 195.221 127.869 195.219C127.585 195.216 127.347 195.285 127.156 195.428C126.968 195.57 126.825 195.761 126.727 196.003C126.632 196.244 126.583 196.513 126.58 196.808C126.577 197.111 126.622 197.38 126.714 197.614C126.809 197.846 126.949 198.029 127.135 198.163C127.323 198.296 127.557 198.363 127.838 198.366ZM132.796 199.177C132.375 199.173 132.014 199.076 131.71 198.888C131.409 198.697 131.178 198.433 131.017 198.097C130.857 197.758 130.78 197.365 130.784 196.918C130.788 196.471 130.874 196.078 131.04 195.739C131.208 195.398 131.44 195.133 131.735 194.944C132.033 194.754 132.378 194.661 132.772 194.665C133 194.667 133.224 194.707 133.444 194.785C133.665 194.863 133.866 194.988 134.046 195.161C134.226 195.331 134.369 195.556 134.474 195.835C134.579 196.115 134.63 196.458 134.626 196.865L134.623 197.149L131.259 197.116L131.265 196.536L133.947 196.563C133.949 196.317 133.902 196.097 133.806 195.903C133.711 195.708 133.574 195.555 133.395 195.441C133.218 195.328 133.009 195.27 132.766 195.267C132.499 195.265 132.268 195.329 132.071 195.459C131.877 195.588 131.726 195.757 131.62 195.966C131.514 196.175 131.46 196.4 131.457 196.641L131.453 197.027C131.45 197.357 131.504 197.636 131.615 197.867C131.729 198.095 131.887 198.27 132.09 198.391C132.294 198.511 132.531 198.572 132.802 198.575C132.978 198.576 133.137 198.553 133.28 198.505C133.424 198.456 133.549 198.381 133.654 198.282C133.759 198.181 133.841 198.054 133.899 197.904L134.545 198.092C134.475 198.311 134.358 198.503 134.196 198.668C134.033 198.831 133.833 198.958 133.595 199.048C133.358 199.137 133.091 199.18 132.796 199.177Z" fill="#2742D0"/>
<path d="M208.878 161.05L210.158 159.791L214.238 163.938L212.902 165.253C212.499 165.649 212.073 165.905 211.624 166.02C211.175 166.137 210.723 166.116 210.266 165.957C209.811 165.799 209.372 165.506 208.949 165.077C208.524 164.644 208.235 164.197 208.083 163.734C207.931 163.272 207.92 162.812 208.05 162.355C208.181 161.9 208.457 161.465 208.878 161.05ZM210.094 160.731L209.349 161.464C209.006 161.801 208.787 162.147 208.691 162.501C208.596 162.855 208.613 163.209 208.743 163.562C208.873 163.915 209.103 164.261 209.436 164.598C209.765 164.933 210.103 165.168 210.45 165.302C210.799 165.437 211.145 165.463 211.49 165.378C211.836 165.296 212.172 165.095 212.496 164.776L213.298 163.987L210.094 160.731ZM204.756 164.978C205.055 164.683 205.379 164.495 205.727 164.413C206.074 164.335 206.424 164.357 206.777 164.48C207.129 164.606 207.462 164.829 207.776 165.147C208.089 165.466 208.307 165.804 208.43 166.161C208.553 166.521 208.577 166.872 208.502 167.214C208.427 167.559 208.249 167.87 207.968 168.146C207.806 168.306 207.62 168.436 207.409 168.537C207.197 168.639 206.967 168.692 206.718 168.698C206.47 168.706 206.21 168.648 205.938 168.525C205.666 168.403 205.387 168.196 205.101 167.906L204.902 167.703L207.3 165.344L207.706 165.757L205.795 167.638C205.967 167.814 206.157 167.936 206.362 168.004C206.567 168.074 206.772 168.086 206.979 168.04C207.184 167.994 207.373 167.887 207.546 167.717C207.736 167.53 207.854 167.32 207.9 167.089C207.947 166.86 207.933 166.635 207.86 166.412C207.787 166.189 207.666 165.991 207.497 165.82L207.226 165.545C206.995 165.31 206.759 165.15 206.517 165.067C206.275 164.986 206.039 164.974 205.81 165.033C205.582 165.093 205.371 165.217 205.178 165.407C205.053 165.531 204.956 165.66 204.89 165.795C204.823 165.932 204.788 166.073 204.784 166.218C204.781 166.364 204.813 166.511 204.879 166.658L204.289 166.983C204.184 166.779 204.13 166.561 204.128 166.329C204.127 166.099 204.179 165.867 204.282 165.635C204.387 165.404 204.545 165.185 204.756 164.978ZM202.976 171.607L203.286 171.063C203.383 171.108 203.491 171.138 203.61 171.154C203.73 171.172 203.856 171.16 203.988 171.117C204.121 171.074 204.257 170.984 204.396 170.847C204.587 170.66 204.702 170.46 204.743 170.247C204.783 170.037 204.738 169.866 204.606 169.732C204.49 169.613 204.354 169.562 204.2 169.578C204.046 169.594 203.854 169.669 203.626 169.804L203.052 170.145C202.708 170.351 202.399 170.452 202.126 170.447C201.854 170.443 201.611 170.333 201.397 170.116C201.222 169.937 201.116 169.728 201.081 169.486C201.044 169.246 201.077 168.996 201.179 168.736C201.282 168.475 201.454 168.226 201.696 167.989C202.013 167.676 202.343 167.487 202.687 167.42C203.03 167.353 203.36 167.425 203.675 167.635L203.333 168.195C203.125 168.07 202.92 168.025 202.718 168.059C202.514 168.095 202.314 168.209 202.118 168.402C201.895 168.621 201.765 168.842 201.727 169.066C201.689 169.292 201.736 169.471 201.867 169.605C201.974 169.713 202.1 169.766 202.248 169.765C202.396 169.765 202.567 169.706 202.759 169.588L203.397 169.2C203.749 168.987 204.061 168.886 204.334 168.896C204.607 168.909 204.849 169.023 205.06 169.237C205.233 169.413 205.337 169.617 205.371 169.849C205.404 170.082 205.372 170.321 205.277 170.567C205.18 170.814 205.022 171.045 204.803 171.26C204.495 171.563 204.187 171.733 203.879 171.771C203.569 171.81 203.268 171.755 202.976 171.607ZM198.457 171.175C198.757 170.88 199.08 170.692 199.428 170.61C199.775 170.531 200.125 170.554 200.478 170.677C200.831 170.803 201.164 171.025 201.477 171.344C201.79 171.663 202.009 172.001 202.132 172.358C202.255 172.718 202.279 173.069 202.203 173.411C202.128 173.756 201.95 174.067 201.67 174.343C201.507 174.502 201.321 174.633 201.11 174.734C200.899 174.836 200.669 174.889 200.419 174.895C200.172 174.903 199.912 174.845 199.639 174.722C199.367 174.599 199.088 174.393 198.803 174.103L198.604 173.9L201.001 171.541L201.408 171.954L199.496 173.835C199.669 174.011 199.858 174.133 200.064 174.201C200.268 174.271 200.473 174.283 200.68 174.236C200.885 174.191 201.074 174.084 201.247 173.914C201.437 173.726 201.556 173.517 201.602 173.286C201.648 173.057 201.634 172.831 201.561 172.608C201.488 172.385 201.367 172.188 201.198 172.017L200.927 171.741C200.696 171.506 200.46 171.347 200.218 171.264C199.976 171.183 199.741 171.171 199.511 171.23C199.283 171.289 199.072 171.414 198.879 171.604C198.754 171.728 198.658 171.857 198.591 171.992C198.524 172.129 198.489 172.27 198.485 172.415C198.483 172.56 198.514 172.707 198.58 172.855L197.991 173.18C197.885 172.975 197.831 172.757 197.829 172.526C197.828 172.295 197.88 172.064 197.984 171.832C198.089 171.601 198.246 171.382 198.457 171.175ZM197.869 175.563L196.028 173.692L196.506 173.222L199.566 176.333L199.104 176.787L198.626 176.301L198.586 176.341C198.668 176.57 198.682 176.806 198.628 177.048C198.575 177.292 198.431 177.529 198.196 177.76C197.986 177.967 197.759 178.105 197.516 178.174C197.274 178.245 197.024 178.236 196.765 178.148C196.507 178.061 196.248 177.886 195.988 177.621L194.043 175.645L194.521 175.175L196.434 177.119C196.674 177.363 196.925 177.491 197.186 177.503C197.448 177.515 197.69 177.413 197.912 177.195C198.064 177.045 198.168 176.878 198.223 176.693C198.277 176.51 198.276 176.321 198.22 176.127C198.164 175.932 198.047 175.744 197.869 175.563ZM193.798 182.007L191.888 177.765L192.374 177.287L196.585 179.266L196.066 179.776L192.769 178.142L192.736 178.174L194.316 181.497L193.798 182.007ZM188.891 180.586C189.172 180.31 189.484 180.134 189.827 180.06C190.169 179.986 190.518 180.011 190.873 180.134C191.227 180.259 191.562 180.482 191.878 180.804C192.197 181.128 192.417 181.468 192.537 181.825C192.656 182.184 192.676 182.534 192.597 182.875C192.516 183.217 192.335 183.526 192.055 183.802C191.774 184.079 191.462 184.253 191.12 184.327C190.777 184.402 190.427 184.376 190.072 184.25C189.716 184.125 189.378 183.901 189.059 183.577C188.743 183.256 188.526 182.916 188.409 182.559C188.29 182.203 188.27 181.854 188.351 181.512C188.43 181.171 188.61 180.863 188.891 180.586ZM189.313 181.016C189.1 181.226 188.978 181.453 188.948 181.698C188.918 181.943 188.957 182.187 189.067 182.43C189.176 182.673 189.333 182.899 189.537 183.107C189.742 183.315 189.965 183.476 190.208 183.59C190.451 183.705 190.696 183.75 190.942 183.725C191.189 183.7 191.419 183.583 191.632 183.373C191.846 183.163 191.967 182.935 191.995 182.689C192.024 182.443 191.983 182.197 191.873 181.953C191.762 181.708 191.605 181.482 191.4 181.274C191.196 181.066 190.973 180.905 190.731 180.792C190.49 180.679 190.246 180.636 190.001 180.662C189.756 180.688 189.526 180.806 189.313 181.016ZM190.418 187.373L186.338 183.226L186.815 182.756L190.896 186.903L190.418 187.373ZM185.979 189.7L184.069 185.458L184.555 184.98L188.765 186.958L188.247 187.469L184.95 185.835L184.917 185.866L186.497 189.19L185.979 189.7ZM182.288 187.21L185.348 190.321L184.87 190.791L181.81 187.68L182.288 187.21ZM185.615 191.078C185.708 190.987 185.82 190.939 185.95 190.936C186.078 190.935 186.186 190.978 186.274 191.067C186.362 191.157 186.404 191.265 186.4 191.394C186.395 191.524 186.346 191.635 186.253 191.726C186.159 191.818 186.049 191.864 185.92 191.866C185.79 191.869 185.681 191.826 185.594 191.737C185.506 191.648 185.465 191.538 185.47 191.408C185.473 191.28 185.522 191.17 185.615 191.078ZM180.934 188.541L183.995 191.652L183.533 192.106L183.055 191.62L183.014 191.66C183.113 191.89 183.135 192.122 183.081 192.356C183.028 192.591 182.9 192.808 182.698 193.008C182.493 193.209 182.276 193.331 182.048 193.372C181.82 193.416 181.586 193.392 181.346 193.302L181.313 193.334C181.392 193.573 181.398 193.818 181.331 194.069C181.266 194.322 181.122 194.558 180.9 194.777C180.622 195.05 180.308 195.187 179.96 195.187C179.613 195.188 179.26 195.006 178.9 194.64L176.852 192.558L177.33 192.088L179.378 194.17C179.604 194.399 179.828 194.501 180.05 194.477C180.273 194.452 180.469 194.355 180.639 194.188C180.858 193.973 180.962 193.74 180.952 193.489C180.944 193.24 180.84 193.015 180.642 192.814L178.65 190.789L179.136 190.311L181.232 192.441C181.406 192.618 181.604 192.704 181.825 192.699C182.047 192.696 182.249 192.605 182.429 192.427C182.554 192.305 182.637 192.157 182.68 191.985C182.722 191.814 182.718 191.637 182.668 191.454C182.619 191.275 182.519 191.108 182.369 190.956L180.456 189.012L180.934 188.541ZM174.61 194.636C174.91 194.341 175.233 194.153 175.581 194.071C175.928 193.993 176.278 194.015 176.631 194.138C176.983 194.264 177.316 194.487 177.63 194.805C177.943 195.124 178.162 195.462 178.285 195.819C178.408 196.179 178.431 196.53 178.356 196.872C178.281 197.217 178.103 197.528 177.822 197.804C177.66 197.964 177.474 198.094 177.263 198.195C177.052 198.297 176.822 198.35 176.572 198.356C176.325 198.364 176.065 198.306 175.792 198.183C175.52 198.061 175.241 197.854 174.956 197.564L174.756 197.361L177.154 195.002L177.561 195.415L175.649 197.296C175.822 197.472 176.011 197.594 176.216 197.662C176.421 197.732 176.626 197.744 176.833 197.698C177.038 197.652 177.227 197.545 177.4 197.375C177.59 197.188 177.709 196.978 177.755 196.747C177.801 196.518 177.787 196.293 177.714 196.07C177.641 195.847 177.52 195.649 177.351 195.478L177.08 195.203C176.849 194.968 176.613 194.808 176.371 194.725C176.129 194.644 175.894 194.632 175.664 194.691C175.436 194.751 175.225 194.875 175.032 195.065C174.907 195.189 174.811 195.318 174.744 195.453C174.677 195.59 174.642 195.731 174.638 195.876C174.635 196.022 174.667 196.169 174.733 196.316L174.144 196.641C174.038 196.437 173.984 196.219 173.982 195.987C173.981 195.757 174.033 195.525 174.137 195.293C174.242 195.062 174.399 194.843 174.61 194.636ZM174.022 199.025L172.181 197.153L172.659 196.683L175.719 199.794L175.257 200.248L174.779 199.762L174.739 199.802C174.821 200.032 174.835 200.267 174.781 200.509C174.728 200.753 174.584 200.99 174.349 201.221C174.139 201.428 173.912 201.566 173.669 201.635C173.427 201.706 173.177 201.697 172.918 201.609C172.66 201.523 172.401 201.347 172.141 201.083L170.196 199.106L170.674 198.636L172.587 200.58C172.827 200.824 173.078 200.952 173.339 200.964C173.601 200.977 173.843 200.874 174.065 200.656C174.217 200.506 174.321 200.339 174.376 200.155C174.43 199.972 174.429 199.783 174.373 199.588C174.317 199.393 174.2 199.206 174.022 199.025ZM171.03 204.407L170.632 204.002L172.244 202.416L172.642 202.821L171.03 204.407ZM172.906 204.028L172.428 204.498L169.511 201.534C169.378 201.399 169.259 201.317 169.153 201.288C169.048 201.261 168.953 201.267 168.868 201.305C168.783 201.346 168.706 201.401 168.635 201.47C168.583 201.522 168.542 201.567 168.514 201.606C168.487 201.646 168.465 201.678 168.449 201.702L167.929 201.368C167.95 201.324 167.983 201.267 168.029 201.198C168.074 201.128 168.141 201.048 168.23 200.961C168.365 200.828 168.526 200.727 168.712 200.657C168.898 200.589 169.091 200.573 169.293 200.608C169.494 200.644 169.683 200.753 169.861 200.934L172.906 204.028ZM165.957 203.149C166.238 202.873 166.55 202.697 166.893 202.622C167.236 202.549 167.584 202.574 167.939 202.697C168.293 202.822 168.628 203.045 168.944 203.366C169.263 203.69 169.483 204.031 169.603 204.388C169.722 204.747 169.742 205.096 169.663 205.437C169.582 205.779 169.402 206.089 169.121 206.365C168.84 206.641 168.529 206.816 168.186 206.89C167.843 206.965 167.494 206.939 167.138 206.813C166.782 206.688 166.444 206.464 166.125 206.14C165.809 205.818 165.592 205.479 165.475 205.122C165.356 204.766 165.337 204.417 165.417 204.075C165.496 203.734 165.676 203.425 165.957 203.149ZM166.379 203.578C166.166 203.788 166.044 204.016 166.014 204.26C165.984 204.505 166.024 204.749 166.133 204.993C166.242 205.236 166.399 205.461 166.603 205.669C166.808 205.877 167.032 206.038 167.274 206.153C167.517 206.267 167.762 206.312 168.009 206.288C168.255 206.263 168.485 206.145 168.699 205.936C168.912 205.726 169.033 205.498 169.062 205.251C169.09 205.005 169.05 204.76 168.939 204.515C168.829 204.271 168.671 204.044 168.467 203.836C168.262 203.628 168.039 203.468 167.797 203.355C167.556 203.242 167.313 203.198 167.067 203.224C166.822 203.25 166.593 203.368 166.379 203.578Z" fill="#010101"/>
<path d="M70.3464 206.422C70.1652 206.648 70.1029 206.903 70.1596 207.188C70.2164 207.472 70.3683 207.74 70.6155 207.991C70.7962 208.174 70.984 208.306 71.1789 208.385C71.3725 208.463 71.5591 208.489 71.7388 208.463C71.9171 208.437 72.0724 208.358 72.2047 208.228C72.3153 208.119 72.3846 207.999 72.4124 207.868C72.4375 207.737 72.4352 207.604 72.4054 207.468C72.3743 207.334 72.3305 207.204 72.2738 207.079C72.2159 206.956 72.1591 206.845 72.1036 206.749L71.8024 206.216C71.7244 206.08 71.6453 205.921 71.565 205.74C71.4834 205.557 71.426 205.363 71.3928 205.156C71.3569 204.95 71.3665 204.741 71.4217 204.53C71.4769 204.318 71.6017 204.117 71.796 203.926C72.0201 203.705 72.2803 203.565 72.5768 203.504C72.8719 203.442 73.183 203.47 73.5102 203.589C73.8361 203.707 74.1558 203.925 74.4694 204.244C74.7618 204.541 74.967 204.845 75.0851 205.157C75.2019 205.467 75.2357 205.768 75.1866 206.061C75.1361 206.353 75.0055 206.618 74.7947 206.858L74.2844 206.34C74.4277 206.172 74.5054 205.992 74.5176 205.799C74.5272 205.606 74.4871 205.414 74.3975 205.224C74.3053 205.033 74.1781 204.855 74.016 204.69C73.8273 204.499 73.6268 204.357 73.4146 204.266C73.201 204.176 72.9944 204.141 72.7946 204.163C72.5936 204.185 72.4175 204.271 72.2663 204.42C72.1287 204.555 72.0545 204.704 72.0439 204.866C72.0333 205.028 72.0627 205.198 72.1323 205.377C72.2019 205.555 72.2882 205.738 72.3913 205.923L72.7478 206.577C72.9736 206.992 73.0931 207.38 73.1064 207.739C73.1197 208.098 72.9867 208.415 72.7073 208.69C72.4752 208.918 72.211 209.055 71.9147 209.1C71.6157 209.144 71.3133 209.107 71.0075 208.988C70.6991 208.869 70.4146 208.677 70.1542 208.413C69.8911 208.146 69.7051 207.861 69.5963 207.559C69.4861 207.258 69.4536 206.966 69.4986 206.682C69.5423 206.397 69.6655 206.148 69.868 205.936L70.3464 206.422ZM68.9719 201.349L67.1338 203.159L66.6634 202.681L69.7728 199.62L70.2432 200.097L69.7169 200.616L69.7488 200.648C69.9784 200.565 70.2243 200.547 70.4865 200.591C70.7473 200.638 70.9933 200.778 71.2245 201.013C71.4158 201.207 71.5434 201.422 71.6072 201.657C71.6697 201.893 71.657 202.139 71.5694 202.396C71.4803 202.654 71.3035 202.913 71.039 203.173L69.0633 205.118L68.5929 204.641L70.5362 202.727C70.7629 202.504 70.8813 202.263 70.8914 202.003C70.9001 201.742 70.8068 201.512 70.6115 201.314C70.4945 201.195 70.3452 201.104 70.1636 201.041C69.9806 200.977 69.7852 200.964 69.5773 201.004C69.3681 201.043 69.1663 201.158 68.9719 201.349ZM64.3297 198.918L64.8737 199.228C64.8287 199.325 64.7984 199.433 64.7828 199.552C64.7644 199.671 64.7768 199.797 64.82 199.93C64.8632 200.063 64.9532 200.199 65.0901 200.338C65.2774 200.528 65.4774 200.644 65.69 200.684C65.9 200.725 66.0718 200.679 66.2054 200.548C66.3241 200.431 66.3754 200.295 66.3592 200.141C66.343 199.987 66.2675 199.795 66.1326 199.567L65.7915 198.994C65.5853 198.649 65.4846 198.34 65.4893 198.067C65.4928 197.795 65.6032 197.552 65.8204 197.339C65.9986 197.163 66.2083 197.058 66.4497 197.022C66.6897 196.985 66.9399 197.018 67.2002 197.12C67.4606 197.223 67.7097 197.395 67.9475 197.636C68.2598 197.953 68.4494 198.284 68.5164 198.627C68.5834 198.97 68.5119 199.3 68.3018 199.616L67.742 199.274C67.8668 199.066 67.9119 198.861 67.8774 198.658C67.8414 198.454 67.7271 198.255 67.5345 198.059C67.3152 197.836 67.0939 197.706 66.8705 197.668C66.6445 197.63 66.4647 197.677 66.3311 197.809C66.2231 197.915 66.1699 198.042 66.1714 198.189C66.1716 198.338 66.2306 198.508 66.3483 198.701L66.7371 199.338C66.95 199.69 67.0513 200.002 67.0412 200.275C67.0284 200.548 66.9146 200.79 66.7001 201.001C66.5246 201.174 66.3209 201.278 66.089 201.312C65.8557 201.345 65.6162 201.314 65.3705 201.218C65.1235 201.121 64.8924 200.963 64.6771 200.745C64.3741 200.437 64.2038 200.129 64.166 199.821C64.1268 199.511 64.1814 199.21 64.3297 198.918ZM61.5379 197.476L61.9428 197.077L63.5294 198.688L63.1245 199.087L61.5379 197.476ZM61.9171 199.351L61.4467 198.873L64.4104 195.955C64.5453 195.822 64.6273 195.703 64.6562 195.597C64.6825 195.492 64.6765 195.397 64.6383 195.312C64.5975 195.227 64.5425 195.15 64.4734 195.08C64.4216 195.027 64.3764 194.986 64.3377 194.958C64.2978 194.931 64.2658 194.909 64.2418 194.893L64.5753 194.373C64.6193 194.394 64.676 194.427 64.7453 194.473C64.8159 194.518 64.8951 194.585 64.9828 194.674C65.1157 194.809 65.2169 194.97 65.2864 195.156C65.3546 195.342 65.3712 195.535 65.3361 195.737C65.2998 195.938 65.1912 196.127 65.0103 196.305L61.9171 199.351ZM62.7538 192.361C63.0488 192.661 63.2371 192.984 63.3188 193.332C63.3978 193.679 63.3756 194.03 63.2524 194.382C63.1264 194.735 62.9042 195.068 62.5857 195.381C62.2672 195.695 61.9294 195.913 61.5722 196.036C61.2123 196.16 60.8612 196.184 60.519 196.109C60.174 196.034 59.8634 195.856 59.587 195.575C59.4275 195.413 59.297 195.227 59.1956 195.016C59.0941 194.805 59.0403 194.574 59.0342 194.325C59.0267 194.078 59.0843 193.817 59.2069 193.545C59.3296 193.273 59.536 192.994 59.8261 192.708L60.0286 192.509L62.3885 194.906L61.9756 195.312L60.094 193.401C59.9185 193.574 59.7965 193.763 59.728 193.969C59.6581 194.173 59.6465 194.379 59.6931 194.586C59.7384 194.791 59.846 194.98 60.0161 195.153C60.2035 195.343 60.4128 195.461 60.6442 195.507C60.8728 195.553 61.0986 195.539 61.3215 195.466C61.5444 195.393 61.7415 195.272 61.9129 195.103L62.1882 194.832C62.423 194.601 62.5822 194.364 62.6658 194.122C62.7467 193.881 62.7579 193.645 62.6994 193.416C62.6396 193.187 62.5146 192.977 62.3246 192.784C62.201 192.658 62.0719 192.562 61.9371 192.496C61.7997 192.429 61.6587 192.394 61.5141 192.39C61.3681 192.387 61.2212 192.419 61.0734 192.485L60.7485 191.896C60.9529 191.79 61.1709 191.736 61.4026 191.734C61.633 191.733 61.8643 191.785 62.0965 191.888C62.3274 191.993 62.5465 192.151 62.7538 192.361ZM58.3649 191.775L60.2354 189.933L60.7058 190.411L57.5964 193.472L57.1419 193.011L57.6278 192.533L57.5879 192.492C57.3583 192.575 57.1224 192.589 56.8804 192.535C56.6371 192.482 56.3998 192.338 56.1686 192.103C55.9613 191.893 55.8231 191.666 55.754 191.423C55.6836 191.182 55.6922 190.931 55.78 190.672C55.8663 190.414 56.0418 190.155 56.3063 189.895L58.282 187.949L58.7524 188.427L56.8091 190.341C56.5648 190.581 56.437 190.832 56.4256 191.093C56.4128 191.355 56.5154 191.597 56.7333 191.818C56.8835 191.971 57.0508 192.075 57.2351 192.13C57.4182 192.183 57.607 192.182 57.8017 192.126C57.9963 192.07 58.184 191.953 58.3649 191.775ZM52.9816 188.786L53.3865 188.387L54.9731 189.998L54.5682 190.397L52.9816 188.786ZM53.3608 190.661L52.8904 190.183L55.8541 187.265C55.989 187.132 56.071 187.013 56.0999 186.907C56.1262 186.802 56.1202 186.707 56.082 186.622C56.0412 186.537 55.9862 186.46 55.9171 186.39C55.8653 186.337 55.8201 186.297 55.7814 186.268C55.7415 186.241 55.7095 186.219 55.6855 186.203L56.019 185.683C56.063 185.704 56.1197 185.737 56.189 185.783C56.2596 185.828 56.3388 185.895 56.4265 185.984C56.5594 186.119 56.6606 186.28 56.7301 186.466C56.7983 186.652 56.8149 186.845 56.7798 187.047C56.7435 187.248 56.6349 187.437 56.454 187.615L53.3608 190.661ZM54.5554 184.019C54.7494 184.216 54.8883 184.431 54.9722 184.665C55.0548 184.9 55.0717 185.134 55.023 185.368C54.973 185.604 54.8467 185.821 54.6443 186.02C54.4662 186.196 54.2872 186.303 54.1075 186.342C53.9264 186.382 53.7463 186.374 53.5672 186.319C53.3882 186.264 53.2134 186.181 53.0428 186.07C52.8696 185.959 52.7024 185.84 52.5414 185.715C52.331 185.55 52.162 185.414 52.0343 185.309C51.9038 185.203 51.7965 185.139 51.7123 185.116C51.6268 185.091 51.5456 185.116 51.4687 185.192L51.4525 185.208C51.2527 185.405 51.1513 185.612 51.1483 185.83C51.144 186.047 51.2501 186.266 51.4667 186.486C51.6912 186.714 51.9172 186.843 52.1447 186.875C52.3721 186.906 52.5684 186.892 52.7336 186.833L53.0181 187.446C52.7495 187.551 52.4961 187.588 52.2579 187.557C52.0171 187.525 51.7967 187.45 51.5967 187.331C51.3941 187.211 51.2157 187.073 51.0616 186.917C50.9632 186.817 50.8624 186.69 50.7591 186.537C50.6532 186.383 50.5769 186.21 50.5301 186.016C50.4821 185.822 50.4918 185.612 50.5591 185.386C50.6265 185.16 50.7837 184.926 51.0307 184.682L53.0793 182.665L53.5497 183.143L53.1286 183.558L53.1525 183.582C53.2519 183.548 53.3772 183.531 53.5286 183.531C53.6799 183.53 53.8444 183.567 54.0219 183.639C54.1995 183.711 54.3773 183.838 54.5554 184.019ZM54.0545 184.368C53.8684 184.179 53.6745 184.057 53.4727 184C53.2696 183.942 53.0768 183.938 52.8943 183.988C52.7104 184.036 52.5537 184.124 52.4241 184.251L51.9869 184.682C52.0311 184.678 52.0972 184.701 52.1852 184.75C52.2706 184.799 52.3645 184.86 52.4671 184.935C52.5669 185.009 52.6635 185.083 52.7566 185.156C52.8471 185.229 52.921 185.288 52.9783 185.332C53.1167 185.441 53.2573 185.531 53.4 185.603C53.5401 185.675 53.6784 185.709 53.8151 185.704C53.949 185.7 54.0768 185.638 54.1982 185.519C54.3642 185.355 54.4293 185.17 54.3934 184.964C54.3548 184.757 54.2418 184.559 54.0545 184.368ZM52.1569 181.729L48.0111 185.811L47.5407 185.333L49.0711 183.826L49.0312 183.786C48.9427 183.804 48.826 183.823 48.6812 183.843C48.5338 183.863 48.3692 183.847 48.1874 183.795C48.003 183.743 47.8111 183.615 47.6118 183.413C47.354 183.151 47.1923 182.856 47.1265 182.527C47.0608 182.199 47.0928 181.86 47.2228 181.512C47.3527 181.163 47.581 180.828 47.9076 180.506C48.2368 180.182 48.5774 179.957 48.9293 179.831C49.2798 179.707 49.6188 179.679 49.9464 179.747C50.2727 179.816 50.5634 179.981 50.8185 180.24C51.0152 180.439 51.1395 180.632 51.1917 180.817C51.2425 181.004 51.2572 181.171 51.236 181.32C51.2134 181.469 51.1911 181.59 51.1689 181.681L51.2247 181.737L51.7025 181.267L52.1569 181.729ZM50.1398 182.79C50.3746 182.558 50.5479 182.32 50.6596 182.075C50.77 181.83 50.8107 181.592 50.7817 181.36C50.7513 181.13 50.6418 180.919 50.4531 180.727C50.2564 180.527 50.0397 180.412 49.8029 180.382C49.5634 180.352 49.3207 180.392 49.0748 180.501C48.8261 180.611 48.5912 180.774 48.3699 180.992C48.1512 181.207 47.9874 181.435 47.8784 181.675C47.7667 181.916 47.726 182.154 47.7564 182.39C47.784 182.625 47.8975 182.845 48.0968 183.047C48.2881 183.241 48.4982 183.356 48.7269 183.391C48.9543 183.428 49.1889 183.394 49.4308 183.288C49.6714 183.184 49.9077 183.018 50.1398 182.79ZM48.7346 178.253L45.6252 181.314L45.1548 180.837L48.2642 177.775L48.7346 178.253ZM44.8678 181.582C44.9595 181.675 45.0068 181.786 45.0099 181.916C45.0115 182.045 44.9678 182.153 44.8788 182.241C44.7897 182.328 44.6809 182.37 44.5524 182.367C44.4225 182.362 44.3117 182.313 44.22 182.219C44.1283 182.126 44.0817 182.016 44.08 181.887C44.077 181.757 44.12 181.648 44.2091 181.56C44.2981 181.473 44.4076 181.431 44.5375 181.436C44.666 181.44 44.7761 181.489 44.8678 181.582ZM42.7864 180.504L46.9322 176.422L47.4026 176.9L43.2568 180.982L42.7864 180.504ZM46.0707 175.547L42.9613 178.609L42.4909 178.131L45.6003 175.07L46.0707 175.547ZM42.2039 178.876C42.2956 178.969 42.3429 179.081 42.3459 179.211C42.3476 179.339 42.3039 179.447 42.2149 179.535C42.1258 179.623 42.017 179.665 41.8884 179.661C41.7586 179.656 41.6478 179.607 41.5561 179.514C41.4644 179.421 41.4177 179.31 41.4161 179.181C41.413 179.051 41.4561 178.943 41.5451 178.855C41.6342 178.767 41.7437 178.726 41.8736 178.731C42.0021 178.735 42.1122 178.783 42.2039 178.876ZM43.6475 172.957C43.9026 173.216 44.0624 173.509 44.1268 173.836C44.1899 174.165 44.1564 174.503 44.0265 174.852C43.8952 175.202 43.6649 175.539 43.3357 175.863C43.0091 176.185 42.6705 176.408 42.32 176.532C41.9695 176.657 41.6304 176.684 41.3029 176.613C40.9753 176.542 40.6826 176.376 40.4248 176.114C40.2255 175.911 40.1018 175.718 40.0537 175.534C40.0029 175.35 39.9894 175.186 40.0133 175.04C40.0345 174.894 40.0549 174.777 40.0743 174.689L40.0344 174.648L38.504 176.155L38.0336 175.677L42.1795 171.595L42.6339 172.057L42.1562 172.527L42.212 172.584C42.3032 172.563 42.4239 172.543 42.5741 172.522C42.7229 172.503 42.8901 172.521 43.0759 172.574C43.2603 172.629 43.4508 172.757 43.6475 172.957ZM43.1545 173.314C42.9658 173.123 42.7564 173.01 42.5263 172.976C42.2949 172.943 42.0562 172.98 41.8103 173.087C41.5631 173.195 41.322 173.364 41.0872 173.596C40.8551 173.824 40.6852 174.058 40.5775 174.297C40.4685 174.537 40.4306 174.771 40.4636 174.999C40.4953 175.228 40.6068 175.44 40.7982 175.634C40.9975 175.837 41.2156 175.954 41.4524 175.987C41.6865 176.02 41.9252 175.983 42.1684 175.876C42.4089 175.769 42.6385 175.609 42.8572 175.393C43.0785 175.175 43.2464 174.944 43.3608 174.698C43.4725 174.453 43.5159 174.21 43.4909 173.972C43.4633 173.733 43.3512 173.514 43.1545 173.314ZM40.4246 169.667C40.6186 169.864 40.7575 170.08 40.8414 170.313C40.924 170.548 40.9409 170.783 40.8922 171.017C40.8422 171.252 40.716 171.469 40.5135 171.669C40.3354 171.844 40.1564 171.951 39.9767 171.99C39.7956 172.03 39.6155 172.023 39.4365 171.968C39.2574 171.913 39.0826 171.83 38.9121 171.719C38.7388 171.607 38.5717 171.489 38.4106 171.363C38.2003 171.198 38.0312 171.063 37.9035 170.957C37.773 170.852 37.6657 170.788 37.5815 170.764C37.496 170.739 37.4148 170.765 37.3379 170.841L37.3217 170.857C37.1219 171.053 37.0206 171.261 37.0175 171.479C37.0132 171.696 37.1193 171.914 37.3359 172.134C37.5604 172.362 37.7864 172.492 38.0139 172.523C38.2413 172.554 38.4376 172.541 38.6028 172.482L38.8873 173.094C38.6187 173.2 38.3653 173.236 38.1271 173.205C37.8863 173.174 37.6659 173.098 37.4659 172.979C37.2633 172.86 37.0849 172.722 36.9308 172.565C36.8324 172.465 36.7316 172.339 36.6284 172.185C36.5224 172.032 36.4461 171.858 36.3994 171.665C36.3513 171.47 36.361 171.26 36.4283 171.034C36.4957 170.809 36.6529 170.574 36.8999 170.331L38.9485 168.314L39.4189 168.792L38.9978 169.206L39.0217 169.23C39.1211 169.196 39.2465 169.179 39.3978 169.179C39.5491 169.179 39.7136 169.215 39.8911 169.287C40.0687 169.36 40.2465 169.486 40.4246 169.667ZM39.9237 170.017C39.7376 169.828 39.5437 169.705 39.3419 169.649C39.1388 169.591 38.946 169.587 38.7635 169.636C38.5796 169.684 38.4229 169.772 38.2934 169.9L37.8561 170.33C37.9003 170.327 37.9664 170.349 38.0545 170.398C38.1398 170.447 38.2337 170.509 38.3363 170.583C38.4361 170.658 38.5327 170.731 38.6258 170.804C38.7163 170.877 38.7902 170.936 38.8475 170.981C38.9859 171.089 39.1265 171.179 39.2692 171.251C39.4093 171.323 39.5477 171.357 39.6843 171.353C39.8183 171.349 39.946 171.287 40.0674 171.167C40.2334 171.004 40.2985 170.819 40.2626 170.612C40.224 170.406 40.111 170.207 39.9237 170.017ZM36.9986 166.204C37.2538 166.463 37.4135 166.756 37.478 167.084C37.5411 167.412 37.5076 167.751 37.3777 168.099C37.2464 168.449 37.0161 168.786 36.6868 169.11C36.3602 169.432 36.0217 169.655 35.6712 169.78C35.3207 169.904 34.9816 169.931 34.6541 169.86C34.3265 169.789 34.0338 169.623 33.776 169.361C33.5767 169.159 33.453 168.965 33.4049 168.782C33.354 168.598 33.3406 168.433 33.3645 168.287C33.3857 168.141 33.406 168.024 33.4255 167.936L33.3856 167.896L31.8552 169.402L31.3848 168.925L35.5306 164.843L35.9851 165.304L35.5074 165.775L35.5632 165.831C35.6544 165.81 35.7751 165.79 35.9252 165.77C36.074 165.751 36.2413 165.768 36.4271 165.822C36.6114 165.877 36.802 166.004 36.9986 166.204ZM36.5057 166.562C36.317 166.37 36.1076 166.257 35.8775 166.223C35.6461 166.191 35.4074 166.228 35.1615 166.334C34.9142 166.442 34.6732 166.612 34.4384 166.843C34.2063 167.072 34.0364 167.305 33.9287 167.544C33.8197 167.784 33.7817 168.018 33.8148 168.246C33.8465 168.476 33.958 168.687 34.1494 168.882C34.3487 169.084 34.5668 169.202 34.8035 169.234C35.0377 169.267 35.2763 169.23 35.5196 169.123C35.7601 169.017 35.9897 168.856 36.2083 168.641C36.4297 168.423 36.5975 168.191 36.7119 167.945C36.8237 167.7 36.867 167.458 36.8421 167.219C36.8145 166.981 36.7024 166.761 36.5057 166.562ZM33.385 162.534C33.68 162.833 33.8683 163.157 33.95 163.504C34.029 163.852 34.0068 164.202 33.8836 164.555C33.7576 164.907 33.5354 165.24 33.2169 165.554C32.8984 165.867 32.5606 166.086 32.2034 166.209C31.8435 166.332 31.4924 166.356 31.1502 166.281C30.8052 166.206 30.4946 166.028 30.2182 165.748C30.0587 165.586 29.9282 165.399 29.8267 165.188C29.7253 164.977 29.6715 164.747 29.6654 164.498C29.6579 164.25 29.7155 163.99 29.8381 163.718C29.9608 163.445 30.1672 163.166 30.4573 162.881L30.6598 162.681L33.0197 165.078L32.6068 165.485L30.7252 163.574C30.5497 163.747 30.4277 163.936 30.3592 164.142C30.2893 164.346 30.2777 164.551 30.3243 164.758C30.3696 164.963 30.4772 165.152 30.6473 165.325C30.8347 165.515 31.044 165.633 31.2754 165.679C31.504 165.725 31.7298 165.712 31.9527 165.638C32.1756 165.565 32.3727 165.444 32.5441 165.275L32.8194 165.004C33.0542 164.773 33.2134 164.537 33.297 164.295C33.3779 164.053 33.3891 163.818 33.3306 163.588C33.2708 163.36 33.1458 163.149 32.9558 162.956C32.8322 162.831 32.7031 162.735 32.5683 162.668C32.4309 162.601 32.2899 162.566 32.1453 162.562C31.9993 162.56 31.8524 162.592 31.7046 162.657L31.3797 162.068C31.5841 161.963 31.8021 161.909 32.0338 161.907C32.2642 161.906 32.4955 161.957 32.7277 162.061C32.9586 162.166 33.1777 162.323 33.385 162.534Z" fill="#010101"/>
</g>
<defs>
<filter id="filter0_b_44_131" x="88.5642" y="110.867" width="60.8215" height="17.4709" filterUnits="userSpaceOnUse" color-interpolation-filters="sRGB">
<feFlood flood-opacity="0" result="BackgroundImageFix"/>
<feGaussianBlur in="BackgroundImageFix" stdDeviation="2"/>
<feComposite in2="SourceAlpha" operator="in" result="effect1_backgroundBlur_44_131"/>
<feBlend mode="normal" in="SourceGraphic" in2="effect1_backgroundBlur_44_131" result="shape"/>
</filter>
<clipPath id="clip0_44_131">
<rect width="240" height="240" rx="120" fill="white"/>
</clipPath>
</defs>
</svg>
