<svg width="338" height="30" viewBox="0 0 338 30" fill="none" xmlns="http://www.w3.org/2000/svg">
<g clip-path="url(#clip0_51_2)">
<rect width="338" height="30" rx="15" fill="white"/>
<rect x="0.5" y="0.5" width="337" height="29" rx="14.5" fill="#FF0101" stroke="#2742D0"/>
<path d="M29.8587 22V10.3636H34.2223C35.1162 10.3636 35.8662 10.5303 36.4723 10.8636C37.0822 11.197 37.5424 11.6553 37.853 12.2386C38.1674 12.8182 38.3246 13.4773 38.3246 14.2159C38.3246 14.9621 38.1674 15.625 37.853 16.2045C37.5386 16.7841 37.0746 17.2405 36.4609 17.5739C35.8473 17.9034 35.0916 18.0682 34.1939 18.0682H31.3018V16.3352H33.9098C34.4325 16.3352 34.8606 16.2443 35.1939 16.0625C35.5272 15.8807 35.7734 15.6307 35.9325 15.3125C36.0954 14.9943 36.1768 14.6288 36.1768 14.2159C36.1768 13.803 36.0954 13.4394 35.9325 13.125C35.7734 12.8106 35.5253 12.5663 35.1882 12.392C34.8549 12.214 34.425 12.125 33.8984 12.125H31.9666V22H29.8587ZM73.3999 22H71.1499L75.2464 10.3636H77.8487L81.951 22H79.701L76.593 12.75H76.5021L73.3999 22ZM73.4737 17.4375H79.6101V19.1307H73.4737V17.4375ZM119.202 22V10.3636H123.566C124.46 10.3636 125.21 10.5189 125.816 10.8295C126.426 11.1402 126.886 11.5758 127.197 12.1364C127.511 12.6932 127.668 13.3428 127.668 14.0852C127.668 14.8314 127.509 15.4792 127.191 16.0284C126.877 16.5739 126.413 16.9962 125.799 17.2955C125.185 17.5909 124.432 17.7386 123.538 17.7386H120.43V15.9886H123.254C123.776 15.9886 124.204 15.9167 124.538 15.7727C124.871 15.625 125.117 15.411 125.276 15.1307C125.439 14.8466 125.521 14.4981 125.521 14.0852C125.521 13.6723 125.439 13.3201 125.276 13.0284C125.113 12.733 124.865 12.5095 124.532 12.358C124.199 12.2027 123.769 12.125 123.242 12.125H121.31V22H119.202ZM125.214 16.7273L128.094 22H125.742L122.913 16.7273H125.214ZM173.239 22H169.296V10.3636H173.319C174.474 10.3636 175.467 10.5966 176.296 11.0625C177.129 11.5246 177.77 12.1894 178.217 13.0568C178.664 13.9242 178.887 14.9621 178.887 16.1705C178.887 17.3826 178.662 18.4242 178.211 19.2955C177.764 20.1667 177.118 20.8352 176.273 21.3011C175.433 21.767 174.421 22 173.239 22ZM171.404 20.1761H173.137C173.948 20.1761 174.624 20.0284 175.165 19.733C175.707 19.4337 176.114 18.9886 176.387 18.3977C176.66 17.803 176.796 17.0606 176.796 16.1705C176.796 15.2803 176.66 14.5417 176.387 13.9545C176.114 13.3636 175.711 12.9223 175.177 12.6307C174.647 12.3352 173.987 12.1875 173.2 12.1875H171.404V20.1761ZM218.103 22H215.853L219.95 10.3636H222.552L226.654 22H224.404L221.296 12.75H221.205L218.103 22ZM218.177 17.4375H224.313V19.1307H218.177V17.4375ZM262.045 10.3636V22H259.937V10.3636H262.045ZM306.37 13.5625C306.317 13.0663 306.094 12.6799 305.7 12.4034C305.309 12.1269 304.802 11.9886 304.177 11.9886C303.737 11.9886 303.361 12.0549 303.046 12.1875C302.732 12.3201 302.491 12.5 302.325 12.7273C302.158 12.9545 302.073 13.214 302.069 13.5057C302.069 13.7481 302.124 13.9583 302.234 14.1364C302.347 14.3144 302.501 14.4659 302.694 14.5909C302.887 14.7121 303.101 14.8144 303.336 14.8977C303.571 14.9811 303.808 15.0511 304.046 15.108L305.137 15.3807C305.576 15.483 305.999 15.6212 306.404 15.7955C306.813 15.9697 307.179 16.1894 307.501 16.4545C307.826 16.7197 308.084 17.0398 308.273 17.4148C308.463 17.7898 308.558 18.2292 308.558 18.733C308.558 19.4148 308.383 20.0152 308.035 20.5341C307.686 21.0492 307.183 21.4527 306.523 21.7443C305.868 22.0322 305.075 22.1761 304.143 22.1761C303.237 22.1761 302.451 22.036 301.785 21.7557C301.122 21.4754 300.603 21.0663 300.228 20.5284C299.857 19.9905 299.656 19.3352 299.626 18.5625H301.7C301.73 18.9678 301.855 19.3049 302.075 19.5739C302.294 19.8428 302.58 20.0436 302.933 20.1761C303.289 20.3087 303.686 20.375 304.126 20.375C304.584 20.375 304.986 20.3068 305.33 20.1705C305.679 20.0303 305.951 19.8371 306.148 19.5909C306.345 19.3409 306.446 19.0492 306.45 18.7159C306.446 18.4129 306.357 18.1629 306.183 17.9659C306.008 17.7652 305.764 17.5985 305.45 17.4659C305.139 17.3295 304.775 17.2083 304.359 17.1023L303.035 16.7614C302.076 16.5152 301.319 16.142 300.762 15.642C300.209 15.1383 299.933 14.4697 299.933 13.6364C299.933 12.9508 300.118 12.3504 300.489 11.8352C300.864 11.3201 301.374 10.9205 302.018 10.6364C302.662 10.3485 303.391 10.2045 304.205 10.2045C305.031 10.2045 305.754 10.3485 306.376 10.6364C307.001 10.9205 307.491 11.3163 307.847 11.8239C308.203 12.3277 308.387 12.9072 308.398 13.5625H306.37Z" fill="#FFB801"/>
</g>
<defs>
<clipPath id="clip0_51_2">
<rect width="338" height="30" rx="15" fill="white"/>
</clipPath>
</defs>
</svg>
