<svg width="338" height="30" viewBox="0 0 338 30" fill="none" xmlns="http://www.w3.org/2000/svg">
<g clip-path="url(#clip0_51_10)">
<rect width="338" height="30" rx="15" fill="white"/>
<rect x="-1" y="-1" width="340" height="32.4309" rx="16.2154" fill="#2742D0" stroke="#FF0101" stroke-width="2"/>
<path d="M49.0135 22V10.3636H53.8203C54.6915 10.3636 55.4434 10.5341 56.076 10.875C56.7124 11.2121 57.2029 11.6837 57.5476 12.2898C57.8923 12.892 58.0646 13.5928 58.0646 14.392C58.0646 15.1951 57.8885 15.8977 57.5362 16.5C57.1877 17.0985 56.6896 17.5625 56.0419 17.892C55.3942 18.2216 54.6252 18.3864 53.7351 18.3864H50.7692V16.1705H53.2124C53.6366 16.1705 53.9908 16.0966 54.2749 15.9489C54.5627 15.8011 54.7805 15.5947 54.9283 15.3295C55.076 15.0606 55.1499 14.7481 55.1499 14.392C55.1499 14.0322 55.076 13.7216 54.9283 13.4602C54.7805 13.1951 54.5627 12.9905 54.2749 12.8466C53.987 12.7027 53.6328 12.6307 53.2124 12.6307H51.826V22H49.0135ZM89.468 22H86.4453L90.3714 10.3636H94.1158L98.0419 22H95.0192L92.2862 13.2955H92.1953L89.468 22ZM89.0646 17.4205H95.3828V19.5568H89.0646V17.4205ZM130.232 22V10.3636H135.039C135.91 10.3636 136.662 10.5208 137.295 10.8352C137.931 11.1458 138.422 11.5928 138.766 12.1761C139.111 12.7557 139.283 13.4432 139.283 14.2386C139.283 15.0455 139.107 15.7311 138.755 16.2955C138.403 16.8561 137.903 17.2841 137.255 17.5795C136.607 17.8712 135.84 18.017 134.954 18.017H131.914V15.8011H134.431C134.855 15.8011 135.21 15.7462 135.494 15.6364C135.781 15.5227 135.999 15.3523 136.147 15.125C136.295 14.8939 136.369 14.5985 136.369 14.2386C136.369 13.8788 136.295 13.5814 136.147 13.3466C135.999 13.108 135.781 12.9299 135.494 12.8125C135.206 12.6913 134.852 12.6307 134.431 12.6307H133.045V22H130.232ZM136.783 16.6818L139.681 22H136.613L133.772 16.6818H136.783ZM179.502 22H175.201V10.3636H179.496C180.682 10.3636 181.703 10.5966 182.559 11.0625C183.419 11.5246 184.082 12.1913 184.548 13.0625C185.013 13.9299 185.246 14.9678 185.246 16.1761C185.246 17.3883 185.013 18.4299 184.548 19.3011C184.085 20.1723 183.424 20.8409 182.565 21.3068C181.705 21.7689 180.684 22 179.502 22ZM178.013 19.6023H179.394C180.046 19.6023 180.597 19.4924 181.048 19.2727C181.502 19.0492 181.845 18.6875 182.076 18.1875C182.311 17.6837 182.428 17.0133 182.428 16.1761C182.428 15.339 182.311 14.6723 182.076 14.1761C181.841 13.6761 181.495 13.3163 181.036 13.0966C180.582 12.8731 180.021 12.7614 179.354 12.7614H178.013V19.6023ZM220.343 22H217.32L221.246 10.3636H224.991L228.917 22H225.894L223.161 13.2955H223.07L220.343 22ZM219.94 17.4205H226.258V19.5568H219.94V17.4205ZM260.482 10.3636V22H257.67V10.3636H260.482ZM299.475 13.8523C299.437 13.4356 299.269 13.1117 298.969 12.8807C298.674 12.6458 298.252 12.5284 297.702 12.5284C297.339 12.5284 297.036 12.5758 296.793 12.6705C296.551 12.7652 296.369 12.8958 296.248 13.0625C296.127 13.2254 296.064 13.4129 296.06 13.625C296.053 13.7992 296.087 13.9527 296.163 14.0852C296.242 14.2178 296.356 14.3352 296.504 14.4375C296.655 14.536 296.837 14.6231 297.049 14.6989C297.261 14.7746 297.5 14.8409 297.765 14.8977L298.765 15.125C299.341 15.25 299.848 15.4167 300.288 15.625C300.731 15.8333 301.102 16.0814 301.401 16.3693C301.704 16.6572 301.933 16.9886 302.089 17.3636C302.244 17.7386 302.324 18.1591 302.327 18.625C302.324 19.3598 302.138 19.9905 301.771 20.517C301.403 21.0436 300.875 21.447 300.185 21.7273C299.5 22.0076 298.672 22.1477 297.702 22.1477C296.729 22.1477 295.88 22.0019 295.157 21.7102C294.433 21.4186 293.871 20.9754 293.469 20.3807C293.068 19.786 292.862 19.0341 292.85 18.125H295.543C295.566 18.5 295.666 18.8125 295.844 19.0625C296.022 19.3125 296.267 19.5019 296.577 19.6307C296.892 19.7595 297.255 19.8239 297.668 19.8239C298.047 19.8239 298.369 19.7727 298.634 19.6705C298.903 19.5682 299.11 19.4261 299.254 19.2443C299.397 19.0625 299.471 18.8542 299.475 18.6193C299.471 18.3996 299.403 18.2121 299.271 18.0568C299.138 17.8977 298.933 17.7614 298.657 17.6477C298.384 17.5303 298.036 17.4223 297.612 17.3239L296.396 17.0398C295.388 16.8087 294.594 16.4356 294.015 15.9205C293.435 15.4015 293.147 14.7008 293.151 13.8182C293.147 13.0985 293.341 12.4678 293.731 11.9261C294.121 11.3845 294.661 10.9621 295.35 10.6591C296.04 10.3561 296.826 10.2045 297.708 10.2045C298.61 10.2045 299.392 10.358 300.055 10.6648C300.721 10.9678 301.238 11.3939 301.606 11.9432C301.973 12.4924 302.161 13.1288 302.168 13.8523H299.475Z" fill="#FFB801"/>
</g>
<defs>
<clipPath id="clip0_51_10">
<rect width="338" height="30" rx="15" fill="white"/>
</clipPath>
</defs>
</svg>
