<svg width="875" height="356" viewBox="0 0 875 356" fill="none" xmlns="http://www.w3.org/2000/svg">
<path fill-rule="evenodd" clip-rule="evenodd" d="M0 48H875V136H0V48Z" fill="#6200EE"/>
<path fill-rule="evenodd" clip-rule="evenodd" d="M0 136H437V180H0V136Z" fill="#23036A"/>
<path fill-rule="evenodd" clip-rule="evenodd" d="M0 180H437V224H0V180Z" fill="#30009C"/>
<path fill-rule="evenodd" clip-rule="evenodd" d="M0 224H437V268H0V224Z" fill="#3700B3"/>
<path fill-rule="evenodd" clip-rule="evenodd" d="M0 268H437V312H0V268Z" fill="#5600E8"/>
<path fill-rule="evenodd" clip-rule="evenodd" d="M0 312H437V356H0V312Z" fill="#6200EE"/>
<path fill-rule="evenodd" clip-rule="evenodd" d="M437 136H875V180H437V136Z" fill="#7F39FB"/>
<path fill-rule="evenodd" clip-rule="evenodd" d="M437 180H875V224H437V180Z" fill="#985EFF"/>
<path fill-rule="evenodd" clip-rule="evenodd" d="M437 224H875V268H437V224Z" fill="url(#paint0_linear_242_26684)" fill-opacity="0.38"/>
<path fill-rule="evenodd" clip-rule="evenodd" d="M437 268H875V312H437V268Z" fill="#DBB2FF"/>
<path fill-rule="evenodd" clip-rule="evenodd" d="M437 312H875V356H437V312Z" fill="#F2E7FE"/>
<path d="M803.915 120.197H802.384L801.864 123H800.716L801.235 120.197H799.656V119.117H801.44L801.837 116.978H800.176V115.891H802.042L802.575 113.047H803.717L803.184 115.891H804.722L805.255 113.047H806.396L805.863 115.891H807.285V116.978H805.658L805.262 119.117H806.772V120.197H805.057L804.537 123H803.396L803.915 120.197ZM802.589 119.117H804.12L804.517 116.978H802.985L802.589 119.117ZM813.858 112.999V114.373H813.653C812.723 114.387 811.98 114.642 811.424 115.139C810.868 115.635 810.538 116.34 810.433 117.251C810.966 116.69 811.648 116.41 812.477 116.41C813.357 116.41 814.049 116.72 814.555 117.34C815.066 117.96 815.321 118.759 815.321 119.739C815.321 120.751 815.022 121.571 814.425 122.2C813.833 122.825 813.054 123.137 812.087 123.137C811.094 123.137 810.287 122.77 809.668 122.036C809.052 121.302 808.745 120.341 808.745 119.151V118.584C808.745 116.839 809.169 115.471 810.016 114.482C810.868 113.493 812.092 112.999 813.687 112.999H813.858ZM812.074 117.75C811.709 117.75 811.374 117.853 811.069 118.058C810.768 118.263 810.547 118.536 810.406 118.878V119.384C810.406 120.122 810.561 120.71 810.871 121.147C811.181 121.58 811.582 121.797 812.074 121.797C812.566 121.797 812.956 121.612 813.243 121.243C813.53 120.874 813.673 120.389 813.673 119.787C813.673 119.186 813.528 118.696 813.236 118.317C812.944 117.939 812.557 117.75 812.074 117.75ZM823.739 123H817.047V121.858L820.362 118.242C820.841 117.709 821.181 117.265 821.381 116.909C821.586 116.549 821.689 116.189 821.689 115.829C821.689 115.355 821.554 114.972 821.285 114.681C821.021 114.389 820.663 114.243 820.212 114.243C819.674 114.243 819.257 114.407 818.961 114.735C818.665 115.063 818.517 115.512 818.517 116.082H816.856C816.856 115.476 816.992 114.931 817.266 114.448C817.544 113.961 817.938 113.582 818.448 113.313C818.963 113.045 819.556 112.91 820.226 112.91C821.192 112.91 821.953 113.154 822.509 113.642C823.07 114.125 823.35 114.795 823.35 115.651C823.35 116.148 823.209 116.67 822.926 117.217C822.648 117.759 822.19 118.377 821.552 119.069L819.118 121.674H823.739V123ZM831.891 118.81C831.891 120.241 831.623 121.321 831.085 122.05C830.552 122.774 829.738 123.137 828.644 123.137C827.569 123.137 826.758 122.784 826.211 122.077C825.668 121.366 825.39 120.316 825.377 118.926V117.203C825.377 115.772 825.643 114.699 826.177 113.983C826.714 113.268 827.532 112.91 828.631 112.91C829.72 112.91 830.531 113.259 831.064 113.956C831.602 114.653 831.878 115.697 831.891 117.087V118.81ZM830.23 116.95C830.23 116.016 830.103 115.332 829.847 114.899C829.592 114.462 829.187 114.243 828.631 114.243C828.088 114.243 827.69 114.451 827.434 114.865C827.179 115.275 827.045 115.918 827.031 116.793V119.049C827.031 119.979 827.161 120.671 827.421 121.127C827.68 121.583 828.088 121.811 828.644 121.811C829.178 121.811 829.572 121.601 829.827 121.182C830.082 120.758 830.217 120.097 830.23 119.199V116.95ZM840.248 118.81C840.248 120.241 839.98 121.321 839.442 122.05C838.909 122.774 838.095 123.137 837.001 123.137C835.926 123.137 835.115 122.784 834.568 122.077C834.025 121.366 833.747 120.316 833.734 118.926V117.203C833.734 115.772 834 114.699 834.534 113.983C835.071 113.268 835.889 112.91 836.988 112.91C838.077 112.91 838.888 113.259 839.421 113.956C839.959 114.653 840.235 115.697 840.248 117.087V118.81ZM838.587 116.95C838.587 116.016 838.46 115.332 838.204 114.899C837.949 114.462 837.544 114.243 836.988 114.243C836.445 114.243 836.047 114.451 835.791 114.865C835.536 115.275 835.402 115.918 835.388 116.793V119.049C835.388 119.979 835.518 120.671 835.778 121.127C836.037 121.583 836.445 121.811 837.001 121.811C837.535 121.811 837.929 121.601 838.184 121.182C838.439 120.758 838.574 120.097 838.587 119.199V116.95ZM848.202 118.557H844.114V121.619H848.893V123H842.385V113.047H848.845V114.441H844.114V117.189H848.202V118.557ZM856.518 118.557H852.43V121.619H857.209V123H850.701V113.047H857.161V114.441H852.43V117.189H856.518V118.557Z" fill="black" fill-opacity="0.87"/>
<path d="M18.7412 119.302V123H17.0117V113.047H20.8193C21.9313 113.047 22.8132 113.336 23.4648 113.915C24.1211 114.494 24.4492 115.259 24.4492 116.212C24.4492 117.187 24.1279 117.946 23.4854 118.488C22.8473 119.031 21.9518 119.302 20.7988 119.302H18.7412ZM18.7412 117.914H20.8193C21.4346 117.914 21.904 117.771 22.2275 117.483C22.5511 117.192 22.7129 116.772 22.7129 116.226C22.7129 115.688 22.5488 115.259 22.2207 114.94C21.8926 114.617 21.4414 114.451 20.8672 114.441H18.7412V117.914ZM30.0787 117.121C29.86 117.085 29.6344 117.066 29.402 117.066C28.6409 117.066 28.1282 117.358 27.8639 117.941V123H26.2027V115.604H27.7887L27.8297 116.431C28.2307 115.788 28.7867 115.467 29.4977 115.467C29.7346 115.467 29.9306 115.499 30.0855 115.562L30.0787 117.121ZM33.2951 123H31.634V115.604H33.2951V123ZM31.5314 113.683C31.5314 113.427 31.6112 113.215 31.7707 113.047C31.9348 112.878 32.1672 112.794 32.468 112.794C32.7688 112.794 33.0012 112.878 33.1652 113.047C33.3293 113.215 33.4113 113.427 33.4113 113.683C33.4113 113.933 33.3293 114.143 33.1652 114.312C33.0012 114.476 32.7688 114.558 32.468 114.558C32.1672 114.558 31.9348 114.476 31.7707 114.312C31.6112 114.143 31.5314 113.933 31.5314 113.683ZM37.0721 115.604L37.1199 116.376C37.6395 115.77 38.3504 115.467 39.2527 115.467C40.2417 115.467 40.9184 115.845 41.283 116.602C41.8208 115.845 42.5773 115.467 43.5525 115.467C44.3683 115.467 44.9744 115.692 45.3709 116.144C45.7719 116.595 45.977 117.26 45.9861 118.14V123H44.325V118.188C44.325 117.718 44.2225 117.374 44.0174 117.155C43.8123 116.937 43.4728 116.827 42.9988 116.827C42.6206 116.827 42.3107 116.93 42.0691 117.135C41.8322 117.335 41.6658 117.6 41.5701 117.928L41.577 123H39.9158V118.133C39.893 117.262 39.4487 116.827 38.5828 116.827C37.9174 116.827 37.4458 117.098 37.1678 117.641V123H35.5066V115.604H37.0721ZM52.5111 123C52.4382 122.859 52.3744 122.629 52.3197 122.31C51.7911 122.861 51.1439 123.137 50.3783 123.137C49.6355 123.137 49.0294 122.925 48.56 122.501C48.0906 122.077 47.8559 121.553 47.8559 120.929C47.8559 120.14 48.1475 119.536 48.7309 119.117C49.3188 118.693 50.1573 118.481 51.2465 118.481H52.265V117.996C52.265 117.613 52.1579 117.308 51.9438 117.08C51.7296 116.848 51.4037 116.731 50.9662 116.731C50.588 116.731 50.2781 116.827 50.0365 117.019C49.795 117.205 49.6742 117.445 49.6742 117.736H48.0131C48.0131 117.331 48.1475 116.952 48.4164 116.602C48.6853 116.246 49.0499 115.968 49.5102 115.768C49.975 115.567 50.4923 115.467 51.0619 115.467C51.9278 115.467 52.6182 115.686 53.1332 116.123C53.6482 116.556 53.9125 117.167 53.9262 117.955V121.291C53.9262 121.956 54.0196 122.487 54.2064 122.884V123H52.5111ZM50.6859 121.804C51.0141 121.804 51.3217 121.724 51.6088 121.564C51.9005 121.405 52.1192 121.191 52.265 120.922V119.527H51.3695C50.7543 119.527 50.2917 119.634 49.9818 119.849C49.6719 120.063 49.517 120.366 49.517 120.758C49.517 121.077 49.6218 121.332 49.8314 121.523C50.0456 121.71 50.3305 121.804 50.6859 121.804ZM59.9385 117.121C59.7197 117.085 59.4941 117.066 59.2617 117.066C58.5007 117.066 57.988 117.358 57.7236 117.941V123H56.0625V115.604H57.6484L57.6895 116.431C58.0905 115.788 58.6465 115.467 59.3574 115.467C59.5944 115.467 59.7904 115.499 59.9453 115.562L59.9385 117.121ZM64.0982 120.621L65.6021 115.604H67.3727L64.4332 124.121C63.982 125.365 63.2164 125.987 62.1363 125.987C61.8948 125.987 61.6282 125.946 61.3365 125.864V124.579L61.651 124.6C62.0702 124.6 62.3847 124.522 62.5943 124.367C62.8085 124.217 62.9771 123.962 63.1002 123.602L63.3395 122.966L60.7418 115.604H62.5328L64.0982 120.621ZM74.3865 123H72.7254V112.5H74.3865V123ZM87.0742 123H80.3818V121.858L83.6973 118.242C84.1758 117.709 84.5153 117.265 84.7158 116.909C84.9209 116.549 85.0234 116.189 85.0234 115.829C85.0234 115.355 84.889 114.972 84.6201 114.681C84.3558 114.389 83.998 114.243 83.5469 114.243C83.0091 114.243 82.5921 114.407 82.2959 114.735C81.9997 115.063 81.8516 115.512 81.8516 116.082H80.1904C80.1904 115.476 80.3271 114.931 80.6006 114.448C80.8786 113.961 81.2728 113.582 81.7832 113.313C82.2982 113.045 82.8906 112.91 83.5605 112.91C84.5267 112.91 85.2878 113.154 85.8438 113.642C86.4043 114.125 86.6846 114.795 86.6846 115.651C86.6846 116.148 86.5433 116.67 86.2607 117.217C85.9827 117.759 85.5247 118.377 84.8867 119.069L82.4531 121.674H87.0742V123ZM95.2262 118.81C95.2262 120.241 94.9573 121.321 94.4195 122.05C93.8863 122.774 93.0729 123.137 91.9791 123.137C90.9036 123.137 90.0924 122.784 89.5455 122.077C89.0032 121.366 88.7252 120.316 88.7115 118.926V117.203C88.7115 115.772 88.9781 114.699 89.5113 113.983C90.0491 113.268 90.8671 112.91 91.9654 112.91C93.0546 112.91 93.8658 113.259 94.399 113.956C94.9368 114.653 95.2125 115.697 95.2262 117.087V118.81ZM93.565 116.95C93.565 116.016 93.4374 115.332 93.1822 114.899C92.927 114.462 92.5214 114.243 91.9654 114.243C91.4231 114.243 91.0244 114.451 90.7691 114.865C90.5139 115.275 90.3795 115.918 90.3658 116.793V119.049C90.3658 119.979 90.4957 120.671 90.7555 121.127C91.0152 121.583 91.4231 121.811 91.9791 121.811C92.5123 121.811 92.9065 121.601 93.1617 121.182C93.4169 120.758 93.5514 120.097 93.565 119.199V116.95ZM103.583 118.81C103.583 120.241 103.314 121.321 102.777 122.05C102.243 122.774 101.43 123.137 100.336 123.137C99.2606 123.137 98.4494 122.784 97.9025 122.077C97.3602 121.366 97.0822 120.316 97.0686 118.926V117.203C97.0686 115.772 97.3352 114.699 97.8684 113.983C98.4061 113.268 99.2242 112.91 100.322 112.91C101.412 112.91 102.223 113.259 102.756 113.956C103.294 114.653 103.57 115.697 103.583 117.087V118.81ZM101.922 116.95C101.922 116.016 101.794 115.332 101.539 114.899C101.284 114.462 100.878 114.243 100.322 114.243C99.7801 114.243 99.3814 114.451 99.1262 114.865C98.871 115.275 98.7365 115.918 98.7229 116.793V119.049C98.7229 119.979 98.8527 120.671 99.1125 121.127C99.3723 121.583 99.7801 121.811 100.336 121.811C100.869 121.811 101.264 121.601 101.519 121.182C101.774 120.758 101.908 120.097 101.922 119.199V116.95Z" fill="black" fill-opacity="0.87"/>
<path d="M3.91602 13.7168V19H1.44531V4.78125H6.88477C8.47331 4.78125 9.73307 5.19466 10.6641 6.02148C11.6016 6.84831 12.0703 7.94206 12.0703 9.30273C12.0703 10.696 11.6113 11.7799 10.6934 12.5547C9.7819 13.3294 8.5026 13.7168 6.85547 13.7168H3.91602ZM3.91602 11.7344H6.88477C7.76367 11.7344 8.43424 11.5293 8.89648 11.1191C9.35872 10.7025 9.58984 10.1035 9.58984 9.32227C9.58984 8.55404 9.35547 7.94206 8.88672 7.48633C8.41797 7.02409 7.77344 6.78646 6.95312 6.77344H3.91602V11.7344ZM19.691 10.6016C19.3785 10.5495 19.0562 10.5234 18.7242 10.5234C17.637 10.5234 16.9046 10.9401 16.527 11.7734V19H14.1539V8.43359H16.4195L16.4781 9.61523C17.051 8.69727 17.8453 8.23828 18.8609 8.23828C19.1995 8.23828 19.4794 8.28385 19.7008 8.375L19.691 10.6016ZM23.8645 19H21.4914V8.43359H23.8645V19ZM21.3449 5.68945C21.3449 5.32487 21.4589 5.02214 21.6867 4.78125C21.9211 4.54036 22.2531 4.41992 22.6828 4.41992C23.1125 4.41992 23.4445 4.54036 23.6789 4.78125C23.9133 5.02214 24.0305 5.32487 24.0305 5.68945C24.0305 6.04753 23.9133 6.34701 23.6789 6.58789C23.4445 6.82227 23.1125 6.93945 22.6828 6.93945C22.2531 6.93945 21.9211 6.82227 21.6867 6.58789C21.4589 6.34701 21.3449 6.04753 21.3449 5.68945ZM28.8387 8.43359L28.907 9.53711C29.6492 8.67122 30.6648 8.23828 31.9539 8.23828C33.3667 8.23828 34.3335 8.77865 34.8543 9.85938C35.6225 8.77865 36.7033 8.23828 38.0965 8.23828C39.2618 8.23828 40.1277 8.56055 40.6941 9.20508C41.2671 9.84961 41.56 10.8001 41.573 12.0566V19H39.2V12.125C39.2 11.4544 39.0535 10.9629 38.7605 10.6504C38.4676 10.3379 37.9826 10.1816 37.3055 10.1816C36.7651 10.1816 36.3224 10.3281 35.9773 10.6211C35.6388 10.9076 35.4012 11.2852 35.2645 11.7539L35.2742 19H32.9012V12.0469C32.8686 10.8034 32.2339 10.1816 30.9969 10.1816C30.0464 10.1816 29.3725 10.569 28.9754 11.3438V19H26.6023V8.43359H28.8387ZM50.473 19C50.3689 18.7982 50.2777 18.4694 50.1996 18.0137C49.4444 18.8014 48.5199 19.1953 47.4262 19.1953C46.365 19.1953 45.4991 18.8926 44.8285 18.2871C44.1579 17.6816 43.8227 16.9329 43.8227 16.041C43.8227 14.9147 44.2393 14.0521 45.0727 13.4531C45.9125 12.8477 47.1104 12.5449 48.6664 12.5449H50.1215V11.8516C50.1215 11.3047 49.9685 10.8685 49.6625 10.543C49.3565 10.2109 48.891 10.0449 48.266 10.0449C47.7256 10.0449 47.2829 10.1816 46.9379 10.4551C46.5928 10.722 46.4203 11.0638 46.4203 11.4805H44.0473C44.0473 10.901 44.2393 10.3607 44.6234 9.85938C45.0076 9.35156 45.5284 8.95443 46.1859 8.66797C46.85 8.38151 47.5889 8.23828 48.4027 8.23828C49.6397 8.23828 50.626 8.55078 51.3617 9.17578C52.0974 9.79427 52.475 10.6667 52.4945 11.793V16.5586C52.4945 17.5091 52.628 18.2676 52.8949 18.834V19H50.473ZM47.8656 17.291C48.3344 17.291 48.7738 17.1771 49.184 16.9492C49.6006 16.7214 49.9131 16.4154 50.1215 16.0312V14.0391H48.8422C47.9633 14.0391 47.3025 14.1921 46.8598 14.498C46.4171 14.804 46.1957 15.237 46.1957 15.7969C46.1957 16.2526 46.3454 16.6172 46.6449 16.8906C46.9509 17.1576 47.3578 17.291 47.8656 17.291ZM60.6621 10.6016C60.3496 10.5495 60.0273 10.5234 59.6953 10.5234C58.6081 10.5234 57.8757 10.9401 57.498 11.7734V19H55.125V8.43359H57.3906L57.4492 9.61523C58.0221 8.69727 58.8164 8.23828 59.832 8.23828C60.1706 8.23828 60.4505 8.28385 60.6719 8.375L60.6621 10.6016ZM66.1832 15.6016L68.3316 8.43359H70.8609L66.6617 20.6016C66.0172 22.3789 64.9234 23.2676 63.3805 23.2676C63.0354 23.2676 62.6546 23.209 62.2379 23.0918V21.2559L62.6871 21.2852C63.2861 21.2852 63.7353 21.1745 64.0348 20.9531C64.3408 20.7383 64.5816 20.3737 64.7574 19.8594L65.0992 18.9512L61.3883 8.43359H63.9469L66.1832 15.6016Z" fill="black" fill-opacity="0.87"/>
<path d="M365.915 160.197H364.384L363.864 163H362.716L363.235 160.197H361.656V159.117H363.44L363.837 156.978H362.176V155.891H364.042L364.575 153.047H365.717L365.184 155.891H366.722L367.255 153.047H368.396L367.863 155.891H369.285V156.978H367.658L367.262 159.117H368.772V160.197H367.057L366.537 163H365.396L365.915 160.197ZM364.589 159.117H366.12L366.517 156.978H364.985L364.589 159.117ZM377.382 163H370.69V161.858L374.005 158.242C374.484 157.709 374.824 157.265 375.024 156.909C375.229 156.549 375.332 156.189 375.332 155.829C375.332 155.355 375.197 154.972 374.928 154.681C374.664 154.389 374.306 154.243 373.855 154.243C373.317 154.243 372.9 154.407 372.604 154.735C372.308 155.063 372.16 155.512 372.16 156.082H370.499C370.499 155.476 370.635 154.931 370.909 154.448C371.187 153.961 371.581 153.582 372.091 153.313C372.606 153.045 373.199 152.91 373.869 152.91C374.835 152.91 375.596 153.154 376.152 153.642C376.712 154.125 376.993 154.795 376.993 155.651C376.993 156.148 376.851 156.67 376.569 157.217C376.291 157.759 375.833 158.377 375.195 159.069L372.761 161.674H377.382V163ZM380.968 157.265H381.98C382.49 157.26 382.893 157.128 383.19 156.868C383.49 156.608 383.641 156.232 383.641 155.74C383.641 155.266 383.515 154.899 383.265 154.64C383.019 154.375 382.64 154.243 382.13 154.243C381.683 154.243 381.317 154.373 381.029 154.633C380.742 154.888 380.599 155.223 380.599 155.638H378.938C378.938 155.127 379.072 154.662 379.341 154.243C379.614 153.824 379.993 153.498 380.476 153.266C380.963 153.029 381.508 152.91 382.11 152.91C383.103 152.91 383.882 153.161 384.447 153.662C385.017 154.159 385.302 154.852 385.302 155.74C385.302 156.187 385.158 156.608 384.871 157.005C384.589 157.397 384.222 157.693 383.771 157.894C384.318 158.08 384.732 158.374 385.015 158.775C385.302 159.176 385.446 159.655 385.446 160.211C385.446 161.104 385.138 161.815 384.523 162.344C383.912 162.872 383.108 163.137 382.11 163.137C381.153 163.137 380.369 162.882 379.758 162.371C379.147 161.861 378.842 161.182 378.842 160.334H380.503C380.503 160.771 380.649 161.127 380.941 161.4C381.237 161.674 381.633 161.811 382.13 161.811C382.645 161.811 383.051 161.674 383.347 161.4C383.643 161.127 383.791 160.73 383.791 160.211C383.791 159.687 383.636 159.284 383.326 159.001C383.016 158.718 382.556 158.577 381.946 158.577H380.968V157.265ZM393.891 158.81C393.891 160.241 393.623 161.321 393.085 162.05C392.552 162.774 391.738 163.137 390.644 163.137C389.569 163.137 388.758 162.784 388.211 162.077C387.668 161.366 387.39 160.316 387.377 158.926V157.203C387.377 155.772 387.643 154.699 388.177 153.983C388.714 153.268 389.532 152.91 390.631 152.91C391.72 152.91 392.531 153.259 393.064 153.956C393.602 154.653 393.878 155.697 393.891 157.087V158.81ZM392.23 156.95C392.23 156.016 392.103 155.332 391.847 154.899C391.592 154.462 391.187 154.243 390.631 154.243C390.088 154.243 389.69 154.451 389.434 154.865C389.179 155.275 389.045 155.918 389.031 156.793V159.049C389.031 159.979 389.161 160.671 389.421 161.127C389.68 161.583 390.088 161.811 390.644 161.811C391.178 161.811 391.572 161.601 391.827 161.182C392.082 160.758 392.217 160.097 392.23 159.199V156.95ZM397.682 157.265H398.694C399.204 157.26 399.607 157.128 399.904 156.868C400.204 156.608 400.355 156.232 400.355 155.74C400.355 155.266 400.23 154.899 399.979 154.64C399.733 154.375 399.355 154.243 398.844 154.243C398.398 154.243 398.031 154.373 397.744 154.633C397.456 154.888 397.313 155.223 397.313 155.638H395.652C395.652 155.127 395.786 154.662 396.055 154.243C396.329 153.824 396.707 153.498 397.19 153.266C397.677 153.029 398.222 152.91 398.824 152.91C399.817 152.91 400.596 153.161 401.162 153.662C401.731 154.159 402.016 154.852 402.016 155.74C402.016 156.187 401.872 156.608 401.585 157.005C401.303 157.397 400.936 157.693 400.485 157.894C401.032 158.08 401.446 158.374 401.729 158.775C402.016 159.176 402.16 159.655 402.16 160.211C402.16 161.104 401.852 161.815 401.237 162.344C400.626 162.872 399.822 163.137 398.824 163.137C397.867 163.137 397.083 162.882 396.472 162.371C395.861 161.861 395.556 161.182 395.556 160.334H397.217C397.217 160.771 397.363 161.127 397.655 161.4C397.951 161.674 398.347 161.811 398.844 161.811C399.359 161.811 399.765 161.674 400.061 161.4C400.357 161.127 400.505 160.73 400.505 160.211C400.505 159.687 400.35 159.284 400.04 159.001C399.731 158.718 399.27 158.577 398.66 158.577H397.682V157.265ZM409.286 152.999V154.373H409.081C408.151 154.387 407.409 154.642 406.853 155.139C406.297 155.635 405.966 156.34 405.861 157.251C406.395 156.69 407.076 156.41 407.905 156.41C408.785 156.41 409.478 156.72 409.983 157.34C410.494 157.96 410.749 158.759 410.749 159.739C410.749 160.751 410.451 161.571 409.854 162.2C409.261 162.825 408.482 163.137 407.516 163.137C406.522 163.137 405.715 162.77 405.096 162.036C404.48 161.302 404.173 160.341 404.173 159.151V158.584C404.173 156.839 404.597 155.471 405.444 154.482C406.297 153.493 407.52 152.999 409.115 152.999H409.286ZM407.502 157.75C407.137 157.75 406.802 157.853 406.497 158.058C406.196 158.263 405.975 158.536 405.834 158.878V159.384C405.834 160.122 405.989 160.71 406.299 161.147C406.609 161.58 407.01 161.797 407.502 161.797C407.994 161.797 408.384 161.612 408.671 161.243C408.958 160.874 409.102 160.389 409.102 159.787C409.102 159.186 408.956 158.696 408.664 158.317C408.372 157.939 407.985 157.75 407.502 157.75ZM418.313 160.683H414.458L413.651 163H411.853L415.613 153.047H417.165L420.931 163H419.127L418.313 160.683ZM414.943 159.288H417.828L416.385 155.159L414.943 159.288Z" fill="white" fill-opacity="0.87"/>
<path d="M365.915 204.197H364.384L363.864 207H362.716L363.235 204.197H361.656V203.117H363.44L363.837 200.978H362.176V199.891H364.042L364.575 197.047H365.717L365.184 199.891H366.722L367.255 197.047H368.396L367.863 199.891H369.285V200.978H367.658L367.262 203.117H368.772V204.197H367.057L366.537 207H365.396L365.915 204.197ZM364.589 203.117H366.12L366.517 200.978H364.985L364.589 203.117ZM372.611 201.265H373.623C374.133 201.26 374.536 201.128 374.833 200.868C375.133 200.608 375.284 200.232 375.284 199.74C375.284 199.266 375.158 198.899 374.908 198.64C374.662 198.375 374.283 198.243 373.773 198.243C373.326 198.243 372.96 198.373 372.672 198.633C372.385 198.888 372.242 199.223 372.242 199.638H370.581C370.581 199.127 370.715 198.662 370.984 198.243C371.257 197.824 371.636 197.498 372.119 197.266C372.606 197.029 373.151 196.91 373.753 196.91C374.746 196.91 375.525 197.161 376.09 197.662C376.66 198.159 376.945 198.852 376.945 199.74C376.945 200.187 376.801 200.608 376.514 201.005C376.232 201.397 375.865 201.693 375.414 201.894C375.961 202.08 376.375 202.374 376.658 202.775C376.945 203.176 377.088 203.655 377.088 204.211C377.088 205.104 376.781 205.815 376.166 206.344C375.555 206.872 374.751 207.137 373.753 207.137C372.796 207.137 372.012 206.882 371.401 206.371C370.79 205.861 370.485 205.182 370.485 204.334H372.146C372.146 204.771 372.292 205.127 372.584 205.4C372.88 205.674 373.276 205.811 373.773 205.811C374.288 205.811 374.694 205.674 374.99 205.4C375.286 205.127 375.434 204.73 375.434 204.211C375.434 203.687 375.279 203.284 374.969 203.001C374.659 202.718 374.199 202.577 373.588 202.577H372.611V201.265ZM385.534 202.81C385.534 204.241 385.265 205.321 384.728 206.05C384.195 206.774 383.381 207.137 382.287 207.137C381.212 207.137 380.401 206.784 379.854 206.077C379.311 205.366 379.033 204.316 379.02 202.926V201.203C379.02 199.772 379.286 198.699 379.82 197.983C380.357 197.268 381.175 196.91 382.274 196.91C383.363 196.91 384.174 197.259 384.707 197.956C385.245 198.653 385.521 199.697 385.534 201.087V202.81ZM383.873 200.95C383.873 200.016 383.746 199.332 383.49 198.899C383.235 198.462 382.83 198.243 382.274 198.243C381.731 198.243 381.333 198.451 381.077 198.865C380.822 199.275 380.688 199.918 380.674 200.793V203.049C380.674 203.979 380.804 204.671 381.064 205.127C381.323 205.583 381.731 205.811 382.287 205.811C382.821 205.811 383.215 205.601 383.47 205.182C383.725 204.758 383.86 204.097 383.873 203.199V200.95ZM393.891 202.81C393.891 204.241 393.623 205.321 393.085 206.05C392.552 206.774 391.738 207.137 390.644 207.137C389.569 207.137 388.758 206.784 388.211 206.077C387.668 205.366 387.39 204.316 387.377 202.926V201.203C387.377 199.772 387.643 198.699 388.177 197.983C388.714 197.268 389.532 196.91 390.631 196.91C391.72 196.91 392.531 197.259 393.064 197.956C393.602 198.653 393.878 199.697 393.891 201.087V202.81ZM392.23 200.95C392.23 200.016 392.103 199.332 391.847 198.899C391.592 198.462 391.187 198.243 390.631 198.243C390.088 198.243 389.69 198.451 389.434 198.865C389.179 199.275 389.045 199.918 389.031 200.793V203.049C389.031 203.979 389.161 204.671 389.421 205.127C389.68 205.583 390.088 205.811 390.644 205.811C391.178 205.811 391.572 205.601 391.827 205.182C392.082 204.758 392.217 204.097 392.23 203.199V200.95ZM402.248 202.81C402.248 204.241 401.98 205.321 401.442 206.05C400.909 206.774 400.095 207.137 399.001 207.137C397.926 207.137 397.115 206.784 396.568 206.077C396.025 205.366 395.747 204.316 395.734 202.926V201.203C395.734 199.772 396 198.699 396.534 197.983C397.071 197.268 397.889 196.91 398.988 196.91C400.077 196.91 400.888 197.259 401.421 197.956C401.959 198.653 402.235 199.697 402.248 201.087V202.81ZM400.587 200.95C400.587 200.016 400.46 199.332 400.204 198.899C399.949 198.462 399.544 198.243 398.988 198.243C398.445 198.243 398.047 198.451 397.791 198.865C397.536 199.275 397.402 199.918 397.388 200.793V203.049C397.388 203.979 397.518 204.671 397.778 205.127C398.037 205.583 398.445 205.811 399.001 205.811C399.535 205.811 399.929 205.601 400.184 205.182C400.439 204.758 400.574 204.097 400.587 203.199V200.95ZM408.828 202.837C408.272 203.425 407.623 203.719 406.88 203.719C406.005 203.719 405.308 203.413 404.788 202.803C404.269 202.188 404.009 201.381 404.009 200.383C404.009 199.727 404.141 199.132 404.405 198.599C404.67 198.065 405.046 197.651 405.533 197.354C406.021 197.058 406.586 196.91 407.229 196.91C408.231 196.91 409.026 197.284 409.614 198.031C410.202 198.779 410.496 199.779 410.496 201.032V201.497C410.496 203.293 410.09 204.662 409.279 205.605C408.468 206.549 407.258 207.027 405.649 207.041H405.451V205.667H405.69C406.67 205.653 407.422 205.419 407.946 204.963C408.47 204.503 408.764 203.794 408.828 202.837ZM407.229 202.42C407.561 202.42 407.873 202.324 408.165 202.133C408.457 201.941 408.682 201.677 408.842 201.34V200.69C408.842 199.957 408.691 199.367 408.391 198.92C408.09 198.473 407.7 198.25 407.222 198.25C406.743 198.25 406.36 198.448 406.073 198.845C405.791 199.237 405.649 199.733 405.649 200.335C405.649 200.959 405.793 201.463 406.08 201.846C406.367 202.229 406.75 202.42 407.229 202.42ZM420.337 203.76C420.236 204.822 419.844 205.651 419.161 206.248C418.477 206.84 417.568 207.137 416.433 207.137C415.64 207.137 414.941 206.95 414.335 206.576C413.733 206.198 413.268 205.662 412.94 204.97C412.612 204.277 412.441 203.473 412.427 202.557V201.627C412.427 200.688 412.594 199.861 412.926 199.146C413.259 198.43 413.735 197.879 414.355 197.491C414.979 197.104 415.699 196.91 416.515 196.91C417.614 196.91 418.498 197.209 419.168 197.806C419.838 198.403 420.227 199.246 420.337 200.335H418.614C418.532 199.619 418.322 199.104 417.985 198.79C417.652 198.471 417.162 198.312 416.515 198.312C415.763 198.312 415.185 198.587 414.779 199.139C414.378 199.686 414.173 200.49 414.164 201.552V202.434C414.164 203.509 414.355 204.329 414.738 204.895C415.125 205.46 415.69 205.742 416.433 205.742C417.112 205.742 417.623 205.59 417.964 205.284C418.306 204.979 418.523 204.471 418.614 203.76H420.337Z" fill="white" fill-opacity="0.87"/>
<path d="M365.915 248.197H364.384L363.864 251H362.716L363.235 248.197H361.656V247.117H363.44L363.837 244.978H362.176V243.891H364.042L364.575 241.047H365.717L365.184 243.891H366.722L367.255 241.047H368.396L367.863 243.891H369.285V244.978H367.658L367.262 247.117H368.772V248.197H367.057L366.537 251H365.396L365.915 248.197ZM364.589 247.117H366.12L366.517 244.978H364.985L364.589 247.117ZM372.611 245.265H373.623C374.133 245.26 374.536 245.128 374.833 244.868C375.133 244.608 375.284 244.232 375.284 243.74C375.284 243.266 375.158 242.899 374.908 242.64C374.662 242.375 374.283 242.243 373.773 242.243C373.326 242.243 372.96 242.373 372.672 242.633C372.385 242.888 372.242 243.223 372.242 243.638H370.581C370.581 243.127 370.715 242.662 370.984 242.243C371.257 241.824 371.636 241.498 372.119 241.266C372.606 241.029 373.151 240.91 373.753 240.91C374.746 240.91 375.525 241.161 376.09 241.662C376.66 242.159 376.945 242.852 376.945 243.74C376.945 244.187 376.801 244.608 376.514 245.005C376.232 245.397 375.865 245.693 375.414 245.894C375.961 246.08 376.375 246.374 376.658 246.775C376.945 247.176 377.088 247.655 377.088 248.211C377.088 249.104 376.781 249.815 376.166 250.344C375.555 250.872 374.751 251.137 373.753 251.137C372.796 251.137 372.012 250.882 371.401 250.371C370.79 249.861 370.485 249.182 370.485 248.334H372.146C372.146 248.771 372.292 249.127 372.584 249.4C372.88 249.674 373.276 249.811 373.773 249.811C374.288 249.811 374.694 249.674 374.99 249.4C375.286 249.127 375.434 248.73 375.434 248.211C375.434 247.687 375.279 247.284 374.969 247.001C374.659 246.718 374.199 246.577 373.588 246.577H372.611V245.265ZM385.671 241.97L381.693 251H379.949L383.921 242.38H378.774V241.047H385.671V241.97ZM393.891 246.81C393.891 248.241 393.623 249.321 393.085 250.05C392.552 250.774 391.738 251.137 390.644 251.137C389.569 251.137 388.758 250.784 388.211 250.077C387.668 249.366 387.39 248.316 387.377 246.926V245.203C387.377 243.772 387.643 242.699 388.177 241.983C388.714 241.268 389.532 240.91 390.631 240.91C391.72 240.91 392.531 241.259 393.064 241.956C393.602 242.653 393.878 243.697 393.891 245.087V246.81ZM392.23 244.95C392.23 244.016 392.103 243.332 391.847 242.899C391.592 242.462 391.187 242.243 390.631 242.243C390.088 242.243 389.69 242.451 389.434 242.865C389.179 243.275 389.045 243.918 389.031 244.793V247.049C389.031 247.979 389.161 248.671 389.421 249.127C389.68 249.583 390.088 249.811 390.644 249.811C391.178 249.811 391.572 249.601 391.827 249.182C392.082 248.758 392.217 248.097 392.23 247.199V244.95ZM402.248 246.81C402.248 248.241 401.98 249.321 401.442 250.05C400.909 250.774 400.095 251.137 399.001 251.137C397.926 251.137 397.115 250.784 396.568 250.077C396.025 249.366 395.747 248.316 395.734 246.926V245.203C395.734 243.772 396 242.699 396.534 241.983C397.071 241.268 397.889 240.91 398.988 240.91C400.077 240.91 400.888 241.259 401.421 241.956C401.959 242.653 402.235 243.697 402.248 245.087V246.81ZM400.587 244.95C400.587 244.016 400.46 243.332 400.204 242.899C399.949 242.462 399.544 242.243 398.988 242.243C398.445 242.243 398.047 242.451 397.791 242.865C397.536 243.275 397.402 243.918 397.388 244.793V247.049C397.388 247.979 397.518 248.671 397.778 249.127C398.037 249.583 398.445 249.811 399.001 249.811C399.535 249.811 399.929 249.601 400.184 249.182C400.439 248.758 400.574 248.097 400.587 247.199V244.95ZM404.385 251V241.047H407.796C408.922 241.047 409.778 241.272 410.366 241.724C410.954 242.175 411.248 242.847 411.248 243.74C411.248 244.196 411.125 244.606 410.879 244.971C410.633 245.335 410.273 245.618 409.799 245.818C410.337 245.964 410.751 246.24 411.043 246.646C411.339 247.047 411.487 247.53 411.487 248.095C411.487 249.029 411.187 249.747 410.585 250.248C409.988 250.749 409.131 251 408.015 251H404.385ZM406.114 246.509V249.619H408.035C408.577 249.619 409.001 249.485 409.307 249.216C409.612 248.947 409.765 248.573 409.765 248.095C409.765 247.06 409.236 246.532 408.179 246.509H406.114ZM406.114 245.237H407.81C408.347 245.237 408.767 245.117 409.067 244.875C409.373 244.629 409.525 244.283 409.525 243.836C409.525 243.344 409.384 242.988 409.102 242.77C408.824 242.551 408.388 242.441 407.796 242.441H406.114V245.237ZM415.271 245.265H416.283C416.793 245.26 417.197 245.128 417.493 244.868C417.794 244.608 417.944 244.232 417.944 243.74C417.944 243.266 417.819 242.899 417.568 242.64C417.322 242.375 416.944 242.243 416.433 242.243C415.987 242.243 415.62 242.373 415.333 242.633C415.046 242.888 414.902 243.223 414.902 243.638H413.241C413.241 243.127 413.375 242.662 413.644 242.243C413.918 241.824 414.296 241.498 414.779 241.266C415.267 241.029 415.811 240.91 416.413 240.91C417.406 240.91 418.185 241.161 418.751 241.662C419.32 242.159 419.605 242.852 419.605 243.74C419.605 244.187 419.462 244.608 419.174 245.005C418.892 245.397 418.525 245.693 418.074 245.894C418.621 246.08 419.035 246.374 419.318 246.775C419.605 247.176 419.749 247.655 419.749 248.211C419.749 249.104 419.441 249.815 418.826 250.344C418.215 250.872 417.411 251.137 416.413 251.137C415.456 251.137 414.672 250.882 414.061 250.371C413.45 249.861 413.145 249.182 413.145 248.334H414.806C414.806 248.771 414.952 249.127 415.244 249.4C415.54 249.674 415.936 249.811 416.433 249.811C416.948 249.811 417.354 249.674 417.65 249.4C417.946 249.127 418.094 248.73 418.094 248.211C418.094 247.687 417.939 247.284 417.629 247.001C417.32 246.718 416.859 246.577 416.249 246.577H415.271V245.265Z" fill="white" fill-opacity="0.87"/>
<path d="M365.915 292.197H364.384L363.864 295H362.716L363.235 292.197H361.656V291.117H363.44L363.837 288.978H362.176V287.891H364.042L364.575 285.047H365.717L365.184 287.891H366.722L367.255 285.047H368.396L367.863 287.891H369.285V288.978H367.658L367.262 291.117H368.772V292.197H367.057L366.537 295H365.396L365.915 292.197ZM364.589 291.117H366.12L366.517 288.978H364.985L364.589 291.117ZM371.134 290.064L371.674 285.047H377.02V286.482H373.055L372.782 288.861C373.242 288.597 373.762 288.465 374.34 288.465C375.288 288.465 376.024 288.768 376.548 289.374C377.077 289.98 377.341 290.796 377.341 291.821C377.341 292.833 377.05 293.64 376.466 294.241C375.883 294.838 375.083 295.137 374.067 295.137C373.156 295.137 372.399 294.879 371.797 294.364C371.2 293.845 370.877 293.161 370.827 292.313H372.433C372.497 292.797 372.67 293.168 372.953 293.428C373.235 293.683 373.604 293.811 374.06 293.811C374.571 293.811 374.967 293.628 375.25 293.264C375.537 292.899 375.68 292.402 375.68 291.773C375.68 291.167 375.523 290.689 375.209 290.338C374.894 289.982 374.461 289.805 373.91 289.805C373.609 289.805 373.354 289.846 373.144 289.928C372.935 290.005 372.707 290.16 372.461 290.393L371.134 290.064ZM384.215 284.999V286.373H384.01C383.08 286.387 382.337 286.642 381.781 287.139C381.225 287.635 380.895 288.34 380.79 289.251C381.323 288.69 382.005 288.41 382.834 288.41C383.714 288.41 384.406 288.72 384.912 289.34C385.423 289.96 385.678 290.759 385.678 291.739C385.678 292.751 385.379 293.571 384.782 294.2C384.19 294.825 383.411 295.137 382.445 295.137C381.451 295.137 380.644 294.77 380.025 294.036C379.409 293.302 379.102 292.341 379.102 291.151V290.584C379.102 288.839 379.526 287.471 380.373 286.482C381.225 285.493 382.449 284.999 384.044 284.999H384.215ZM382.431 289.75C382.066 289.75 381.731 289.853 381.426 290.058C381.125 290.263 380.904 290.536 380.763 290.878V291.384C380.763 292.122 380.918 292.71 381.228 293.147C381.538 293.58 381.939 293.797 382.431 293.797C382.923 293.797 383.313 293.612 383.6 293.243C383.887 292.874 384.03 292.389 384.03 291.787C384.03 291.186 383.885 290.696 383.593 290.317C383.301 289.939 382.914 289.75 382.431 289.75ZM393.891 290.81C393.891 292.241 393.623 293.321 393.085 294.05C392.552 294.774 391.738 295.137 390.644 295.137C389.569 295.137 388.758 294.784 388.211 294.077C387.668 293.366 387.39 292.316 387.377 290.926V289.203C387.377 287.772 387.643 286.699 388.177 285.983C388.714 285.268 389.532 284.91 390.631 284.91C391.72 284.91 392.531 285.259 393.064 285.956C393.602 286.653 393.878 287.697 393.891 289.087V290.81ZM392.23 288.95C392.23 288.016 392.103 287.332 391.847 286.899C391.592 286.462 391.187 286.243 390.631 286.243C390.088 286.243 389.69 286.451 389.434 286.865C389.179 287.275 389.045 287.918 389.031 288.793V291.049C389.031 291.979 389.161 292.671 389.421 293.127C389.68 293.583 390.088 293.811 390.644 293.811C391.178 293.811 391.572 293.601 391.827 293.182C392.082 292.758 392.217 292.097 392.23 291.199V288.95ZM402.248 290.81C402.248 292.241 401.98 293.321 401.442 294.05C400.909 294.774 400.095 295.137 399.001 295.137C397.926 295.137 397.115 294.784 396.568 294.077C396.025 293.366 395.747 292.316 395.734 290.926V289.203C395.734 287.772 396 286.699 396.534 285.983C397.071 285.268 397.889 284.91 398.988 284.91C400.077 284.91 400.888 285.259 401.421 285.956C401.959 286.653 402.235 287.697 402.248 289.087V290.81ZM400.587 288.95C400.587 288.016 400.46 287.332 400.204 286.899C399.949 286.462 399.544 286.243 398.988 286.243C398.445 286.243 398.047 286.451 397.791 286.865C397.536 287.275 397.402 287.918 397.388 288.793V291.049C397.388 291.979 397.518 292.671 397.778 293.127C398.037 293.583 398.445 293.811 399.001 293.811C399.535 293.811 399.929 293.601 400.184 293.182C400.439 292.758 400.574 292.097 400.587 291.199V288.95ZM410.202 290.557H406.114V293.619H410.893V295H404.385V285.047H410.845V286.441H406.114V289.189H410.202V290.557ZM418.703 287.672C418.703 288.16 418.577 288.595 418.327 288.978C418.076 289.356 417.734 289.654 417.301 289.873C417.821 290.115 418.22 290.445 418.498 290.864C418.78 291.284 418.921 291.757 418.921 292.286C418.921 293.161 418.625 293.856 418.033 294.371C417.44 294.882 416.652 295.137 415.668 295.137C414.679 295.137 413.886 294.879 413.289 294.364C412.696 293.849 412.4 293.157 412.4 292.286C412.4 291.753 412.541 291.274 412.824 290.851C413.106 290.427 413.503 290.101 414.013 289.873C413.585 289.654 413.245 289.356 412.995 288.978C412.749 288.595 412.626 288.16 412.626 287.672C412.626 286.824 412.899 286.152 413.446 285.655C413.993 285.159 414.731 284.91 415.661 284.91C416.595 284.91 417.336 285.159 417.882 285.655C418.429 286.152 418.703 286.824 418.703 287.672ZM417.26 292.204C417.26 291.712 417.112 291.315 416.816 291.015C416.524 290.709 416.137 290.557 415.654 290.557C415.171 290.557 414.783 290.707 414.492 291.008C414.205 291.309 414.061 291.707 414.061 292.204C414.061 292.692 414.202 293.081 414.485 293.373C414.772 293.665 415.166 293.811 415.668 293.811C416.169 293.811 416.559 293.669 416.837 293.387C417.119 293.104 417.26 292.71 417.26 292.204ZM417.048 287.733C417.048 287.3 416.923 286.945 416.672 286.667C416.422 286.384 416.085 286.243 415.661 286.243C415.237 286.243 414.902 286.378 414.656 286.646C414.41 286.911 414.287 287.273 414.287 287.733C414.287 288.189 414.41 288.551 414.656 288.82C414.907 289.089 415.244 289.224 415.668 289.224C416.091 289.224 416.426 289.089 416.672 288.82C416.923 288.551 417.048 288.189 417.048 287.733Z" fill="white" fill-opacity="0.87"/>
<path d="M365.915 336.197H364.384L363.864 339H362.716L363.235 336.197H361.656V335.117H363.44L363.837 332.978H362.176V331.891H364.042L364.575 329.047H365.717L365.184 331.891H366.722L367.255 329.047H368.396L367.863 331.891H369.285V332.978H367.658L367.262 335.117H368.772V336.197H367.057L366.537 339H365.396L365.915 336.197ZM364.589 335.117H366.12L366.517 332.978H364.985L364.589 335.117ZM375.858 328.999V330.373H375.653C374.723 330.387 373.98 330.642 373.424 331.139C372.868 331.635 372.538 332.34 372.433 333.251C372.966 332.69 373.648 332.41 374.477 332.41C375.357 332.41 376.049 332.72 376.555 333.34C377.066 333.96 377.321 334.759 377.321 335.739C377.321 336.751 377.022 337.571 376.425 338.2C375.833 338.825 375.054 339.137 374.087 339.137C373.094 339.137 372.287 338.77 371.668 338.036C371.052 337.302 370.745 336.341 370.745 335.151V334.584C370.745 332.839 371.169 331.471 372.016 330.482C372.868 329.493 374.092 328.999 375.687 328.999H375.858ZM374.074 333.75C373.709 333.75 373.374 333.853 373.069 334.058C372.768 334.263 372.547 334.536 372.406 334.878V335.384C372.406 336.122 372.561 336.71 372.871 337.147C373.181 337.58 373.582 337.797 374.074 337.797C374.566 337.797 374.956 337.612 375.243 337.243C375.53 336.874 375.673 336.389 375.673 335.787C375.673 335.186 375.528 334.696 375.236 334.317C374.944 333.939 374.557 333.75 374.074 333.75ZM385.739 339H379.047V337.858L382.362 334.242C382.841 333.709 383.181 333.265 383.381 332.909C383.586 332.549 383.689 332.189 383.689 331.829C383.689 331.355 383.554 330.972 383.285 330.681C383.021 330.389 382.663 330.243 382.212 330.243C381.674 330.243 381.257 330.407 380.961 330.735C380.665 331.063 380.517 331.512 380.517 332.082H378.856C378.856 331.476 378.992 330.931 379.266 330.448C379.544 329.961 379.938 329.582 380.448 329.313C380.963 329.045 381.556 328.91 382.226 328.91C383.192 328.91 383.953 329.154 384.509 329.642C385.07 330.125 385.35 330.795 385.35 331.651C385.35 332.148 385.209 332.67 384.926 333.217C384.648 333.759 384.19 334.377 383.552 335.069L381.118 337.674H385.739V339ZM393.891 334.81C393.891 336.241 393.623 337.321 393.085 338.05C392.552 338.774 391.738 339.137 390.644 339.137C389.569 339.137 388.758 338.784 388.211 338.077C387.668 337.366 387.39 336.316 387.377 334.926V333.203C387.377 331.772 387.643 330.699 388.177 329.983C388.714 329.268 389.532 328.91 390.631 328.91C391.72 328.91 392.531 329.259 393.064 329.956C393.602 330.653 393.878 331.697 393.891 333.087V334.81ZM392.23 332.95C392.23 332.016 392.103 331.332 391.847 330.899C391.592 330.462 391.187 330.243 390.631 330.243C390.088 330.243 389.69 330.451 389.434 330.865C389.179 331.275 389.045 331.918 389.031 332.793V335.049C389.031 335.979 389.161 336.671 389.421 337.127C389.68 337.583 390.088 337.811 390.644 337.811C391.178 337.811 391.572 337.601 391.827 337.182C392.082 336.758 392.217 336.097 392.23 335.199V332.95ZM402.248 334.81C402.248 336.241 401.98 337.321 401.442 338.05C400.909 338.774 400.095 339.137 399.001 339.137C397.926 339.137 397.115 338.784 396.568 338.077C396.025 337.366 395.747 336.316 395.734 334.926V333.203C395.734 331.772 396 330.699 396.534 329.983C397.071 329.268 397.889 328.91 398.988 328.91C400.077 328.91 400.888 329.259 401.421 329.956C401.959 330.653 402.235 331.697 402.248 333.087V334.81ZM400.587 332.95C400.587 332.016 400.46 331.332 400.204 330.899C399.949 330.462 399.544 330.243 398.988 330.243C398.445 330.243 398.047 330.451 397.791 330.865C397.536 331.275 397.402 331.918 397.388 332.793V335.049C397.388 335.979 397.518 336.671 397.778 337.127C398.037 337.583 398.445 337.811 399.001 337.811C399.535 337.811 399.929 337.601 400.184 337.182C400.439 336.758 400.574 336.097 400.587 335.199V332.95ZM410.202 334.557H406.114V337.619H410.893V339H404.385V329.047H410.845V330.441H406.114V333.189H410.202V334.557ZM418.518 334.557H414.43V337.619H419.209V339H412.701V329.047H419.161V330.441H414.43V333.189H418.518V334.557Z" fill="white" fill-opacity="0.87"/>
<path d="M803.915 336.197H802.384L801.864 339H800.716L801.235 336.197H799.656V335.117H801.44L801.837 332.978H800.176V331.891H802.042L802.575 329.047H803.717L803.184 331.891H804.722L805.255 329.047H806.396L805.863 331.891H807.285V332.978H805.658L805.262 335.117H806.772V336.197H805.057L804.537 339H803.396L803.915 336.197ZM802.589 335.117H804.12L804.517 332.978H802.985L802.589 335.117ZM814.692 334.782H810.686V339H808.957V329.047H815.28V330.441H810.686V333.401H814.692V334.782ZM823.48 339H816.787V337.858L820.103 334.242C820.581 333.709 820.921 333.265 821.121 332.909C821.326 332.549 821.429 332.189 821.429 331.829C821.429 331.355 821.294 330.972 821.026 330.681C820.761 330.389 820.404 330.243 819.952 330.243C819.415 330.243 818.998 330.407 818.701 330.735C818.405 331.063 818.257 331.512 818.257 332.082H816.596C816.596 331.476 816.733 330.931 817.006 330.448C817.284 329.961 817.678 329.582 818.189 329.313C818.704 329.045 819.296 328.91 819.966 328.91C820.932 328.91 821.693 329.154 822.249 329.642C822.81 330.125 823.09 330.795 823.09 331.651C823.09 332.148 822.949 332.67 822.666 333.217C822.388 333.759 821.93 334.377 821.292 335.069L818.859 337.674H823.48V339ZM831.228 334.557H827.14V337.619H831.919V339H825.411V329.047H831.871V330.441H827.14V333.189H831.228V334.557ZM840.084 329.97L836.106 339H834.363L838.334 330.38H833.187V329.047H840.084V329.97ZM847.819 334.782H843.813V339H842.084V329.047H848.407V330.441H843.813V333.401H847.819V334.782ZM855.999 334.557H851.911V337.619H856.689V339H850.181V329.047H856.641V330.441H851.911V333.189H855.999V334.557Z" fill="black" fill-opacity="0.87"/>
<path d="M803.915 293.197H802.384L801.864 296H800.716L801.235 293.197H799.656V292.117H801.44L801.837 289.978H800.176V288.891H802.042L802.575 286.047H803.717L803.184 288.891H804.722L805.255 286.047H806.396L805.863 288.891H807.285V289.978H805.658L805.262 292.117H806.772V293.197H805.057L804.537 296H803.396L803.915 293.197ZM802.589 292.117H804.12L804.517 289.978H802.985L802.589 292.117ZM808.957 296V286.047H811.896C812.776 286.047 813.555 286.243 814.234 286.635C814.918 287.027 815.446 287.583 815.82 288.303C816.194 289.023 816.38 289.848 816.38 290.777V291.276C816.38 292.22 816.191 293.049 815.813 293.765C815.439 294.48 814.904 295.032 814.207 295.419C813.514 295.806 812.719 296 811.821 296H808.957ZM810.686 287.441V294.619H811.814C812.721 294.619 813.416 294.337 813.899 293.771C814.387 293.202 814.635 292.386 814.644 291.324V290.771C814.644 289.69 814.409 288.866 813.94 288.296C813.471 287.726 812.789 287.441 811.896 287.441H810.686ZM818.503 296V286.047H821.914C823.04 286.047 823.897 286.272 824.485 286.724C825.072 287.175 825.366 287.847 825.366 288.74C825.366 289.196 825.243 289.606 824.997 289.971C824.751 290.335 824.391 290.618 823.917 290.818C824.455 290.964 824.87 291.24 825.161 291.646C825.458 292.047 825.606 292.53 825.606 293.095C825.606 294.029 825.305 294.747 824.703 295.248C824.106 295.749 823.25 296 822.133 296H818.503ZM820.233 291.509V294.619H822.154C822.696 294.619 823.12 294.485 823.425 294.216C823.73 293.947 823.883 293.573 823.883 293.095C823.883 292.06 823.354 291.532 822.297 291.509H820.233ZM820.233 290.237H821.928C822.466 290.237 822.885 290.117 823.186 289.875C823.491 289.629 823.644 289.283 823.644 288.836C823.644 288.344 823.502 287.988 823.22 287.77C822.942 287.551 822.507 287.441 821.914 287.441H820.233V290.237ZM827.735 296V286.047H831.146C832.272 286.047 833.129 286.272 833.717 286.724C834.304 287.175 834.598 287.847 834.598 288.74C834.598 289.196 834.475 289.606 834.229 289.971C833.983 290.335 833.623 290.618 833.149 290.818C833.687 290.964 834.102 291.24 834.393 291.646C834.69 292.047 834.838 292.53 834.838 293.095C834.838 294.029 834.537 294.747 833.935 295.248C833.338 295.749 832.482 296 831.365 296H827.735ZM829.465 291.509V294.619H831.386C831.928 294.619 832.352 294.485 832.657 294.216C832.962 293.947 833.115 293.573 833.115 293.095C833.115 292.06 832.586 291.532 831.529 291.509H829.465ZM829.465 290.237H831.16C831.698 290.237 832.117 290.117 832.418 289.875C832.723 289.629 832.876 289.283 832.876 288.836C832.876 288.344 832.735 287.988 832.452 287.77C832.174 287.551 831.739 287.441 831.146 287.441H829.465V290.237ZM843.393 296H836.701V294.858L840.016 291.242C840.495 290.709 840.834 290.265 841.035 289.909C841.24 289.549 841.342 289.189 841.342 288.829C841.342 288.355 841.208 287.972 840.939 287.681C840.675 287.389 840.317 287.243 839.866 287.243C839.328 287.243 838.911 287.407 838.615 287.735C838.318 288.063 838.17 288.512 838.17 289.082H836.509C836.509 288.476 836.646 287.931 836.919 287.448C837.197 286.961 837.592 286.582 838.102 286.313C838.617 286.045 839.209 285.91 839.879 285.91C840.845 285.91 841.607 286.154 842.162 286.642C842.723 287.125 843.003 287.795 843.003 288.651C843.003 289.148 842.862 289.67 842.579 290.217C842.301 290.759 841.843 291.377 841.205 292.069L838.772 294.674H843.393V296ZM851.06 291.782H847.054V296H845.324V286.047H851.647V287.441H847.054V290.401H851.06V291.782ZM859.157 291.782H855.151V296H853.421V286.047H859.745V287.441H855.151V290.401H859.157V291.782Z" fill="black" fill-opacity="0.87"/>
<path d="M803.915 248.197H802.384L801.864 251H800.716L801.235 248.197H799.656V247.117H801.44L801.837 244.978H800.176V243.891H802.042L802.575 241.047H803.717L803.184 243.891H804.722L805.255 241.047H806.396L805.863 243.891H807.285V244.978H805.658L805.262 247.117H806.772V248.197H805.057L804.537 251H803.396L803.915 248.197ZM802.589 247.117H804.12L804.517 244.978H802.985L802.589 247.117ZM808.957 251V241.047H812.368C813.493 241.047 814.35 241.272 814.938 241.724C815.526 242.175 815.82 242.847 815.82 243.74C815.82 244.196 815.697 244.606 815.451 244.971C815.205 245.335 814.845 245.618 814.371 245.818C814.908 245.964 815.323 246.24 815.615 246.646C815.911 247.047 816.059 247.53 816.059 248.095C816.059 249.029 815.758 249.747 815.157 250.248C814.56 250.749 813.703 251 812.587 251H808.957ZM810.686 246.509V249.619H812.607C813.149 249.619 813.573 249.485 813.879 249.216C814.184 248.947 814.337 248.573 814.337 248.095C814.337 247.06 813.808 246.532 812.751 246.509H810.686ZM810.686 245.237H812.381C812.919 245.237 813.338 245.117 813.639 244.875C813.945 244.629 814.097 244.283 814.097 243.836C814.097 243.344 813.956 242.988 813.673 242.77C813.395 242.551 812.96 242.441 812.368 242.441H810.686V245.237ZM818.189 251V241.047H821.6C822.725 241.047 823.582 241.272 824.17 241.724C824.758 242.175 825.052 242.847 825.052 243.74C825.052 244.196 824.929 244.606 824.683 244.971C824.437 245.335 824.077 245.618 823.603 245.818C824.14 245.964 824.555 246.24 824.847 246.646C825.143 247.047 825.291 247.53 825.291 248.095C825.291 249.029 824.99 249.747 824.389 250.248C823.792 250.749 822.935 251 821.819 251H818.189ZM819.918 246.509V249.619H821.839C822.381 249.619 822.805 249.485 823.111 249.216C823.416 248.947 823.569 248.573 823.569 248.095C823.569 247.06 823.04 246.532 821.983 246.509H819.918ZM819.918 245.237H821.613C822.151 245.237 822.571 245.117 822.871 244.875C823.177 244.629 823.329 244.283 823.329 243.836C823.329 243.344 823.188 242.988 822.905 242.77C822.627 242.551 822.192 242.441 821.6 242.441H819.918V245.237ZM833.423 243.672C833.423 244.16 833.297 244.595 833.047 244.978C832.796 245.356 832.454 245.654 832.021 245.873C832.541 246.115 832.94 246.445 833.218 246.864C833.5 247.284 833.641 247.757 833.641 248.286C833.641 249.161 833.345 249.856 832.753 250.371C832.16 250.882 831.372 251.137 830.388 251.137C829.399 251.137 828.606 250.879 828.009 250.364C827.416 249.849 827.12 249.157 827.12 248.286C827.12 247.753 827.261 247.274 827.544 246.851C827.826 246.427 828.223 246.101 828.733 245.873C828.305 245.654 827.965 245.356 827.715 244.978C827.469 244.595 827.346 244.16 827.346 243.672C827.346 242.824 827.619 242.152 828.166 241.655C828.713 241.159 829.451 240.91 830.381 240.91C831.315 240.91 832.055 241.159 832.602 241.655C833.149 242.152 833.423 242.824 833.423 243.672ZM831.98 248.204C831.98 247.712 831.832 247.315 831.536 247.015C831.244 246.709 830.857 246.557 830.374 246.557C829.891 246.557 829.503 246.707 829.212 247.008C828.925 247.309 828.781 247.707 828.781 248.204C828.781 248.692 828.922 249.081 829.205 249.373C829.492 249.665 829.886 249.811 830.388 249.811C830.889 249.811 831.278 249.669 831.556 249.387C831.839 249.104 831.98 248.71 831.98 248.204ZM831.768 243.733C831.768 243.3 831.643 242.945 831.392 242.667C831.142 242.384 830.804 242.243 830.381 242.243C829.957 242.243 829.622 242.378 829.376 242.646C829.13 242.911 829.007 243.273 829.007 243.733C829.007 244.189 829.13 244.551 829.376 244.82C829.626 245.089 829.964 245.224 830.388 245.224C830.811 245.224 831.146 245.089 831.392 244.82C831.643 244.551 831.768 244.189 831.768 243.733ZM840.679 240.999V242.373H840.474C839.544 242.387 838.801 242.642 838.246 243.139C837.69 243.635 837.359 244.34 837.254 245.251C837.787 244.69 838.469 244.41 839.298 244.41C840.178 244.41 840.871 244.72 841.376 245.34C841.887 245.96 842.142 246.759 842.142 247.739C842.142 248.751 841.843 249.571 841.246 250.2C840.654 250.825 839.875 251.137 838.909 251.137C837.915 251.137 837.108 250.77 836.489 250.036C835.873 249.302 835.566 248.341 835.566 247.151V246.584C835.566 244.839 835.99 243.471 836.837 242.482C837.69 241.493 838.913 240.999 840.508 240.999H840.679ZM838.895 245.75C838.53 245.75 838.195 245.853 837.89 246.058C837.589 246.263 837.368 246.536 837.227 246.878V247.384C837.227 248.122 837.382 248.71 837.692 249.147C838.002 249.58 838.403 249.797 838.895 249.797C839.387 249.797 839.777 249.612 840.064 249.243C840.351 248.874 840.495 248.389 840.495 247.787C840.495 247.186 840.349 246.696 840.057 246.317C839.765 245.939 839.378 245.75 838.895 245.75ZM849.87 246.782H845.864V251H844.135V241.047H850.458V242.441H845.864V245.401H849.87V246.782ZM859.827 247.76C859.726 248.822 859.335 249.651 858.651 250.248C857.967 250.84 857.058 251.137 855.923 251.137C855.13 251.137 854.431 250.95 853.825 250.576C853.223 250.198 852.758 249.662 852.43 248.97C852.102 248.277 851.931 247.473 851.918 246.557V245.627C851.918 244.688 852.084 243.861 852.417 243.146C852.749 242.43 853.226 241.879 853.845 241.491C854.47 241.104 855.19 240.91 856.005 240.91C857.104 240.91 857.988 241.209 858.658 241.806C859.328 242.403 859.717 243.246 859.827 244.335H858.104C858.022 243.619 857.812 243.104 857.475 242.79C857.143 242.471 856.653 242.312 856.005 242.312C855.254 242.312 854.675 242.587 854.269 243.139C853.868 243.686 853.663 244.49 853.654 245.552V246.434C853.654 247.509 853.845 248.329 854.228 248.895C854.615 249.46 855.181 249.742 855.923 249.742C856.602 249.742 857.113 249.59 857.455 249.284C857.796 248.979 858.013 248.471 858.104 247.76H859.827Z" fill="black" fill-opacity="0.87"/>
<path d="M803.915 204.197H802.384L801.864 207H800.716L801.235 204.197H799.656V203.117H801.44L801.837 200.978H800.176V199.891H802.042L802.575 197.047H803.717L803.184 199.891H804.722L805.255 197.047H806.396L805.863 199.891H807.285V200.978H805.658L805.262 203.117H806.772V204.197H805.057L804.537 207H803.396L803.915 204.197ZM802.589 203.117H804.12L804.517 200.978H802.985L802.589 203.117ZM813.4 202.837C812.844 203.425 812.195 203.719 811.452 203.719C810.577 203.719 809.879 203.413 809.36 202.803C808.84 202.188 808.581 201.381 808.581 200.383C808.581 199.727 808.713 199.132 808.977 198.599C809.241 198.065 809.617 197.651 810.105 197.354C810.593 197.058 811.158 196.91 811.8 196.91C812.803 196.91 813.598 197.284 814.186 198.031C814.774 198.779 815.068 199.779 815.068 201.032V201.497C815.068 203.293 814.662 204.662 813.851 205.605C813.04 206.549 811.83 207.027 810.221 207.041H810.023V205.667H810.262C811.242 205.653 811.994 205.419 812.518 204.963C813.042 204.503 813.336 203.794 813.4 202.837ZM811.8 202.42C812.133 202.42 812.445 202.324 812.737 202.133C813.029 201.941 813.254 201.677 813.414 201.34V200.69C813.414 199.957 813.263 199.367 812.962 198.92C812.662 198.473 812.272 198.25 811.794 198.25C811.315 198.25 810.932 198.448 810.645 198.845C810.363 199.237 810.221 199.733 810.221 200.335C810.221 200.959 810.365 201.463 810.652 201.846C810.939 202.229 811.322 202.42 811.8 202.42ZM823.316 199.672C823.316 200.16 823.19 200.595 822.94 200.978C822.689 201.356 822.347 201.654 821.914 201.873C822.434 202.115 822.833 202.445 823.111 202.864C823.393 203.284 823.534 203.757 823.534 204.286C823.534 205.161 823.238 205.856 822.646 206.371C822.053 206.882 821.265 207.137 820.28 207.137C819.292 207.137 818.499 206.879 817.902 206.364C817.309 205.849 817.013 205.157 817.013 204.286C817.013 203.753 817.154 203.274 817.437 202.851C817.719 202.427 818.116 202.101 818.626 201.873C818.198 201.654 817.858 201.356 817.608 200.978C817.362 200.595 817.238 200.16 817.238 199.672C817.238 198.824 817.512 198.152 818.059 197.655C818.606 197.159 819.344 196.91 820.274 196.91C821.208 196.91 821.948 197.159 822.495 197.655C823.042 198.152 823.316 198.824 823.316 199.672ZM821.873 204.204C821.873 203.712 821.725 203.315 821.429 203.015C821.137 202.709 820.75 202.557 820.267 202.557C819.784 202.557 819.396 202.707 819.105 203.008C818.818 203.309 818.674 203.707 818.674 204.204C818.674 204.692 818.815 205.081 819.098 205.373C819.385 205.665 819.779 205.811 820.28 205.811C820.782 205.811 821.171 205.669 821.449 205.387C821.732 205.104 821.873 204.71 821.873 204.204ZM821.661 199.733C821.661 199.3 821.536 198.945 821.285 198.667C821.035 198.384 820.697 198.243 820.274 198.243C819.85 198.243 819.515 198.378 819.269 198.646C819.023 198.911 818.9 199.273 818.9 199.733C818.9 200.189 819.023 200.551 819.269 200.82C819.519 201.089 819.857 201.224 820.28 201.224C820.704 201.224 821.039 201.089 821.285 200.82C821.536 200.551 821.661 200.189 821.661 199.733ZM825.848 202.064L826.388 197.047H831.734V198.482H827.769L827.496 200.861C827.956 200.597 828.476 200.465 829.054 200.465C830.002 200.465 830.738 200.768 831.263 201.374C831.791 201.98 832.055 202.796 832.055 203.821C832.055 204.833 831.764 205.64 831.18 206.241C830.597 206.838 829.797 207.137 828.781 207.137C827.87 207.137 827.113 206.879 826.512 206.364C825.915 205.845 825.591 205.161 825.541 204.313H827.147C827.211 204.797 827.384 205.168 827.667 205.428C827.949 205.683 828.318 205.811 828.774 205.811C829.285 205.811 829.681 205.628 829.964 205.264C830.251 204.899 830.394 204.402 830.394 203.773C830.394 203.167 830.237 202.689 829.923 202.338C829.608 201.982 829.175 201.805 828.624 201.805C828.323 201.805 828.068 201.846 827.858 201.928C827.649 202.005 827.421 202.16 827.175 202.393L825.848 202.064ZM839.845 202.557H835.757V205.619H840.536V207H834.028V197.047H840.488V198.441H835.757V201.189H839.845V202.557ZM848.079 202.782H844.073V207H842.344V197.047H848.667V198.441H844.073V201.401H848.079V202.782ZM856.176 202.782H852.171V207H850.441V197.047H856.764V198.441H852.171V201.401H856.176V202.782Z" fill="black" fill-opacity="0.87"/>
<path d="M803.915 160.197H802.384L801.864 163H800.716L801.235 160.197H799.656V159.117H801.44L801.837 156.978H800.176V155.891H802.042L802.575 153.047H803.717L803.184 155.891H804.722L805.255 153.047H806.396L805.863 155.891H807.285V156.978H805.658L805.262 159.117H806.772V160.197H805.057L804.537 163H803.396L803.915 160.197ZM802.589 159.117H804.12L804.517 156.978H802.985L802.589 159.117ZM815.314 153.97L811.336 163H809.592L813.564 154.38H808.417V153.047H815.314V153.97ZM823.049 158.782H819.043V163H817.314V153.047H823.637V154.441H819.043V157.401H823.049V158.782ZM827.065 157.265H828.077C828.587 157.26 828.991 157.128 829.287 156.868C829.588 156.608 829.738 156.232 829.738 155.74C829.738 155.266 829.613 154.899 829.362 154.64C829.116 154.375 828.738 154.243 828.227 154.243C827.781 154.243 827.414 154.373 827.127 154.633C826.84 154.888 826.696 155.223 826.696 155.638H825.035C825.035 155.127 825.169 154.662 825.438 154.243C825.712 153.824 826.09 153.498 826.573 153.266C827.061 153.029 827.605 152.91 828.207 152.91C829.2 152.91 829.98 153.161 830.545 153.662C831.114 154.159 831.399 154.852 831.399 155.74C831.399 156.187 831.256 156.608 830.969 157.005C830.686 157.397 830.319 157.693 829.868 157.894C830.415 158.08 830.83 158.374 831.112 158.775C831.399 159.176 831.543 159.655 831.543 160.211C831.543 161.104 831.235 161.815 830.62 162.344C830.009 162.872 829.205 163.137 828.207 163.137C827.25 163.137 826.466 162.882 825.855 162.371C825.245 161.861 824.939 161.182 824.939 160.334H826.6C826.6 160.771 826.746 161.127 827.038 161.4C827.334 161.674 827.731 161.811 828.227 161.811C828.742 161.811 829.148 161.674 829.444 161.4C829.74 161.127 829.888 160.73 829.888 160.211C829.888 159.687 829.734 159.284 829.424 159.001C829.114 158.718 828.653 158.577 828.043 158.577H827.065V157.265ZM838.211 158.837C837.655 159.425 837.006 159.719 836.263 159.719C835.388 159.719 834.691 159.413 834.171 158.803C833.652 158.188 833.392 157.381 833.392 156.383C833.392 155.727 833.524 155.132 833.788 154.599C834.053 154.065 834.429 153.651 834.916 153.354C835.404 153.058 835.969 152.91 836.612 152.91C837.614 152.91 838.41 153.284 838.997 154.031C839.585 154.779 839.879 155.779 839.879 157.032V157.497C839.879 159.293 839.474 160.662 838.662 161.605C837.851 162.549 836.641 163.027 835.033 163.041H834.834V161.667H835.074C836.053 161.653 836.805 161.419 837.329 160.963C837.854 160.503 838.148 159.794 838.211 158.837ZM836.612 158.42C836.944 158.42 837.257 158.324 837.548 158.133C837.84 157.941 838.065 157.677 838.225 157.34V156.69C838.225 155.957 838.075 155.367 837.774 154.92C837.473 154.473 837.083 154.25 836.605 154.25C836.126 154.25 835.744 154.448 835.456 154.845C835.174 155.237 835.033 155.733 835.033 156.335C835.033 156.959 835.176 157.463 835.463 157.846C835.75 158.229 836.133 158.42 836.612 158.42ZM847.86 158.782H843.854V163H842.125V153.047H848.448V154.441H843.854V157.401H847.86V158.782ZM850.222 163V153.047H853.633C854.759 153.047 855.616 153.272 856.204 153.724C856.792 154.175 857.086 154.847 857.086 155.74C857.086 156.196 856.963 156.606 856.716 156.971C856.47 157.335 856.11 157.618 855.636 157.818C856.174 157.964 856.589 158.24 856.88 158.646C857.177 159.047 857.325 159.53 857.325 160.095C857.325 161.029 857.024 161.747 856.422 162.248C855.825 162.749 854.969 163 853.852 163H850.222ZM851.952 158.509V161.619H853.873C854.415 161.619 854.839 161.485 855.144 161.216C855.449 160.947 855.602 160.573 855.602 160.095C855.602 159.06 855.074 158.532 854.016 158.509H851.952ZM851.952 157.237H853.647C854.185 157.237 854.604 157.117 854.905 156.875C855.21 156.629 855.363 156.283 855.363 155.836C855.363 155.344 855.222 154.988 854.939 154.77C854.661 154.551 854.226 154.441 853.633 154.441H851.952V157.237Z" fill="black" fill-opacity="0.87"/>
<path d="M21.4551 158.837C20.8991 159.425 20.2497 159.719 19.5068 159.719C18.6318 159.719 17.9346 159.413 17.415 158.803C16.8955 158.188 16.6357 157.381 16.6357 156.383C16.6357 155.727 16.7679 155.132 17.0322 154.599C17.2965 154.065 17.6725 153.651 18.1602 153.354C18.6478 153.058 19.2129 152.91 19.8555 152.91C20.8581 152.91 21.6533 153.284 22.2412 154.031C22.8291 154.779 23.123 155.779 23.123 157.032V157.497C23.123 159.293 22.7174 160.662 21.9062 161.605C21.0951 162.549 19.8851 163.027 18.2764 163.041H18.0781V161.667H18.3174C19.2972 161.653 20.0492 161.419 20.5732 160.963C21.0973 160.503 21.3913 159.794 21.4551 158.837ZM19.8555 158.42C20.1882 158.42 20.5003 158.324 20.792 158.133C21.0837 157.941 21.3092 157.677 21.4688 157.34V156.69C21.4688 155.957 21.3184 155.367 21.0176 154.92C20.7168 154.473 20.3271 154.25 19.8486 154.25C19.3701 154.25 18.9873 154.448 18.7002 154.845C18.4176 155.237 18.2764 155.733 18.2764 156.335C18.2764 156.959 18.4199 157.463 18.707 157.846C18.9941 158.229 19.377 158.42 19.8555 158.42ZM31.5895 158.81C31.5895 160.241 31.3206 161.321 30.7828 162.05C30.2496 162.774 29.4361 163.137 28.3424 163.137C27.2669 163.137 26.4557 162.784 25.9088 162.077C25.3665 161.366 25.0885 160.316 25.0748 158.926V157.203C25.0748 155.772 25.3414 154.699 25.8746 153.983C26.4124 153.268 27.2304 152.91 28.3287 152.91C29.4179 152.91 30.2291 153.259 30.7623 153.956C31.3001 154.653 31.5758 155.697 31.5895 157.087V158.81ZM29.9283 156.95C29.9283 156.016 29.8007 155.332 29.5455 154.899C29.2903 154.462 28.8847 154.243 28.3287 154.243C27.7864 154.243 27.3876 154.451 27.1324 154.865C26.8772 155.275 26.7428 155.918 26.7291 156.793V159.049C26.7291 159.979 26.859 160.671 27.1187 161.127C27.3785 161.583 27.7864 161.811 28.3424 161.811C28.8756 161.811 29.2698 161.601 29.525 161.182C29.7802 160.758 29.9146 160.097 29.9283 159.199V156.95ZM39.9465 158.81C39.9465 160.241 39.6776 161.321 39.1398 162.05C38.6066 162.774 37.7932 163.137 36.6994 163.137C35.6239 163.137 34.8127 162.784 34.2658 162.077C33.7235 161.366 33.4455 160.316 33.4318 158.926V157.203C33.4318 155.772 33.6984 154.699 34.2316 153.983C34.7694 153.268 35.5874 152.91 36.6857 152.91C37.7749 152.91 38.5861 153.259 39.1193 153.956C39.6571 154.653 39.9328 155.697 39.9465 157.087V158.81ZM38.2854 156.95C38.2854 156.016 38.1577 155.332 37.9025 154.899C37.6473 154.462 37.2417 154.243 36.6857 154.243C36.1434 154.243 35.7447 154.451 35.4895 154.865C35.2342 155.275 35.0998 155.918 35.0861 156.793V159.049C35.0861 159.979 35.216 160.671 35.4758 161.127C35.7355 161.583 36.1434 161.811 36.6994 161.811C37.2326 161.811 37.6268 161.601 37.882 161.182C38.1372 160.758 38.2717 160.097 38.2854 159.199V156.95Z" fill="white" fill-opacity="0.87"/>
<path d="M23.0137 199.672C23.0137 200.16 22.8883 200.595 22.6377 200.978C22.387 201.356 22.0452 201.654 21.6123 201.873C22.1318 202.115 22.5306 202.445 22.8086 202.864C23.0911 203.284 23.2324 203.757 23.2324 204.286C23.2324 205.161 22.9362 205.856 22.3438 206.371C21.7513 206.882 20.9629 207.137 19.9785 207.137C18.9896 207.137 18.1966 206.879 17.5996 206.364C17.0072 205.849 16.7109 205.157 16.7109 204.286C16.7109 203.753 16.8522 203.274 17.1348 202.851C17.4173 202.427 17.8138 202.101 18.3242 201.873C17.8958 201.654 17.5563 201.356 17.3057 200.978C17.0596 200.595 16.9365 200.16 16.9365 199.672C16.9365 198.824 17.21 198.152 17.7568 197.655C18.3037 197.159 19.042 196.91 19.9717 196.91C20.9059 196.91 21.6465 197.159 22.1934 197.655C22.7402 198.152 23.0137 198.824 23.0137 199.672ZM21.5713 204.204C21.5713 203.712 21.4232 203.315 21.127 203.015C20.8353 202.709 20.4479 202.557 19.9648 202.557C19.4818 202.557 19.0944 202.707 18.8027 203.008C18.5156 203.309 18.3721 203.707 18.3721 204.204C18.3721 204.692 18.5133 205.081 18.7959 205.373C19.083 205.665 19.4772 205.811 19.9785 205.811C20.4798 205.811 20.8695 205.669 21.1475 205.387C21.43 205.104 21.5713 204.71 21.5713 204.204ZM21.3594 199.733C21.3594 199.3 21.234 198.945 20.9834 198.667C20.7327 198.384 20.3955 198.243 19.9717 198.243C19.5479 198.243 19.2129 198.378 18.9668 198.646C18.7207 198.911 18.5977 199.273 18.5977 199.733C18.5977 200.189 18.7207 200.551 18.9668 200.82C19.2174 201.089 19.5547 201.224 19.9785 201.224C20.4023 201.224 20.7373 201.089 20.9834 200.82C21.234 200.551 21.3594 200.189 21.3594 199.733ZM31.5895 202.81C31.5895 204.241 31.3206 205.321 30.7828 206.05C30.2496 206.774 29.4361 207.137 28.3424 207.137C27.2669 207.137 26.4557 206.784 25.9088 206.077C25.3665 205.366 25.0885 204.316 25.0748 202.926V201.203C25.0748 199.772 25.3414 198.699 25.8746 197.983C26.4124 197.268 27.2304 196.91 28.3287 196.91C29.4179 196.91 30.2291 197.259 30.7623 197.956C31.3001 198.653 31.5758 199.697 31.5895 201.087V202.81ZM29.9283 200.95C29.9283 200.016 29.8007 199.332 29.5455 198.899C29.2903 198.462 28.8847 198.243 28.3287 198.243C27.7864 198.243 27.3876 198.451 27.1324 198.865C26.8772 199.275 26.7428 199.918 26.7291 200.793V203.049C26.7291 203.979 26.859 204.671 27.1187 205.127C27.3785 205.583 27.7864 205.811 28.3424 205.811C28.8756 205.811 29.2698 205.601 29.525 205.182C29.7802 204.758 29.9146 204.097 29.9283 203.199V200.95ZM39.9465 202.81C39.9465 204.241 39.6776 205.321 39.1398 206.05C38.6066 206.774 37.7932 207.137 36.6994 207.137C35.6239 207.137 34.8127 206.784 34.2658 206.077C33.7235 205.366 33.4455 204.316 33.4318 202.926V201.203C33.4318 199.772 33.6984 198.699 34.2316 197.983C34.7694 197.268 35.5874 196.91 36.6857 196.91C37.7749 196.91 38.5861 197.259 39.1193 197.956C39.6571 198.653 39.9328 199.697 39.9465 201.087V202.81ZM38.2854 200.95C38.2854 200.016 38.1577 199.332 37.9025 198.899C37.6473 198.462 37.2417 198.243 36.6857 198.243C36.1434 198.243 35.7447 198.451 35.4895 198.865C35.2342 199.275 35.0998 199.918 35.0861 200.793V203.049C35.0861 203.979 35.216 204.671 35.4758 205.127C35.7355 205.583 36.1434 205.811 36.6994 205.811C37.2326 205.811 37.6268 205.601 37.882 205.182C38.1372 204.758 38.2717 204.097 38.2854 203.199V200.95Z" fill="white" fill-opacity="0.87"/>
<path d="M23.3691 241.97L19.3906 251H17.6475L21.6191 242.38H16.4717V241.047H23.3691V241.97ZM31.5895 246.81C31.5895 248.241 31.3206 249.321 30.7828 250.05C30.2496 250.774 29.4361 251.137 28.3424 251.137C27.2669 251.137 26.4557 250.784 25.9088 250.077C25.3665 249.366 25.0885 248.316 25.0748 246.926V245.203C25.0748 243.772 25.3414 242.699 25.8746 241.983C26.4124 241.268 27.2304 240.91 28.3287 240.91C29.4179 240.91 30.2291 241.259 30.7623 241.956C31.3001 242.653 31.5758 243.697 31.5895 245.087V246.81ZM29.9283 244.95C29.9283 244.016 29.8007 243.332 29.5455 242.899C29.2903 242.462 28.8847 242.243 28.3287 242.243C27.7864 242.243 27.3876 242.451 27.1324 242.865C26.8772 243.275 26.7428 243.918 26.7291 244.793V247.049C26.7291 247.979 26.859 248.671 27.1187 249.127C27.3785 249.583 27.7864 249.811 28.3424 249.811C28.8756 249.811 29.2698 249.601 29.525 249.182C29.7802 248.758 29.9146 248.097 29.9283 247.199V244.95ZM39.9465 246.81C39.9465 248.241 39.6776 249.321 39.1398 250.05C38.6066 250.774 37.7932 251.137 36.6994 251.137C35.6239 251.137 34.8127 250.784 34.2658 250.077C33.7235 249.366 33.4455 248.316 33.4318 246.926V245.203C33.4318 243.772 33.6984 242.699 34.2316 241.983C34.7694 241.268 35.5874 240.91 36.6857 240.91C37.7749 240.91 38.5861 241.259 39.1193 241.956C39.6571 242.653 39.9328 243.697 39.9465 245.087V246.81ZM38.2854 244.95C38.2854 244.016 38.1577 243.332 37.9025 242.899C37.6473 242.462 37.2417 242.243 36.6857 242.243C36.1434 242.243 35.7447 242.451 35.4895 242.865C35.2342 243.275 35.0998 243.918 35.0861 244.793V247.049C35.0861 247.979 35.216 248.671 35.4758 249.127C35.7355 249.583 36.1434 249.811 36.6994 249.811C37.2326 249.811 37.6268 249.601 37.882 249.182C38.1372 248.758 38.2717 248.097 38.2854 247.199V244.95Z" fill="white" fill-opacity="0.87"/>
<path d="M21.9131 284.999V286.373H21.708C20.7783 286.387 20.0355 286.642 19.4795 287.139C18.9235 287.635 18.5931 288.34 18.4883 289.251C19.0215 288.69 19.7028 288.41 20.5322 288.41C21.4118 288.41 22.1045 288.72 22.6104 289.34C23.1208 289.96 23.376 290.759 23.376 291.739C23.376 292.751 23.0775 293.571 22.4805 294.2C21.888 294.825 21.1087 295.137 20.1426 295.137C19.1491 295.137 18.3424 294.77 17.7227 294.036C17.1074 293.302 16.7998 292.341 16.7998 291.151V290.584C16.7998 288.839 17.2236 287.471 18.0713 286.482C18.9235 285.493 20.1471 284.999 21.7422 284.999H21.9131ZM20.1289 289.75C19.7643 289.75 19.4294 289.853 19.124 290.058C18.8232 290.263 18.6022 290.536 18.4609 290.878V291.384C18.4609 292.122 18.6159 292.71 18.9258 293.147C19.2357 293.58 19.6367 293.797 20.1289 293.797C20.6211 293.797 21.0107 293.612 21.2979 293.243C21.585 292.874 21.7285 292.389 21.7285 291.787C21.7285 291.186 21.5827 290.696 21.291 290.317C20.9993 289.939 20.612 289.75 20.1289 289.75ZM31.5895 290.81C31.5895 292.241 31.3206 293.321 30.7828 294.05C30.2496 294.774 29.4361 295.137 28.3424 295.137C27.2669 295.137 26.4557 294.784 25.9088 294.077C25.3665 293.366 25.0885 292.316 25.0748 290.926V289.203C25.0748 287.772 25.3414 286.699 25.8746 285.983C26.4124 285.268 27.2304 284.91 28.3287 284.91C29.4179 284.91 30.2291 285.259 30.7623 285.956C31.3001 286.653 31.5758 287.697 31.5895 289.087V290.81ZM29.9283 288.95C29.9283 288.016 29.8007 287.332 29.5455 286.899C29.2903 286.462 28.8847 286.243 28.3287 286.243C27.7864 286.243 27.3876 286.451 27.1324 286.865C26.8772 287.275 26.7428 287.918 26.7291 288.793V291.049C26.7291 291.979 26.859 292.671 27.1187 293.127C27.3785 293.583 27.7864 293.811 28.3424 293.811C28.8756 293.811 29.2698 293.601 29.525 293.182C29.7802 292.758 29.9146 292.097 29.9283 291.199V288.95ZM39.9465 290.81C39.9465 292.241 39.6776 293.321 39.1398 294.05C38.6066 294.774 37.7932 295.137 36.6994 295.137C35.6239 295.137 34.8127 294.784 34.2658 294.077C33.7235 293.366 33.4455 292.316 33.4318 290.926V289.203C33.4318 287.772 33.6984 286.699 34.2316 285.983C34.7694 285.268 35.5874 284.91 36.6857 284.91C37.7749 284.91 38.5861 285.259 39.1193 285.956C39.6571 286.653 39.9328 287.697 39.9465 289.087V290.81ZM38.2854 288.95C38.2854 288.016 38.1577 287.332 37.9025 286.899C37.6473 286.462 37.2417 286.243 36.6857 286.243C36.1434 286.243 35.7447 286.451 35.4895 286.865C35.2342 287.275 35.0998 287.918 35.0861 288.793V291.049C35.0861 291.979 35.216 292.671 35.4758 293.127C35.7355 293.583 36.1434 293.811 36.6994 293.811C37.2326 293.811 37.6268 293.601 37.882 293.182C38.1372 292.758 38.2717 292.097 38.2854 291.199V288.95Z" fill="white" fill-opacity="0.87"/>
<path d="M17.1895 334.064L17.7295 329.047H23.0752V330.482H19.1104L18.8369 332.861C19.2972 332.597 19.8167 332.465 20.3955 332.465C21.3434 332.465 22.0794 332.768 22.6035 333.374C23.1322 333.98 23.3965 334.796 23.3965 335.821C23.3965 336.833 23.1048 337.64 22.5215 338.241C21.9382 338.838 21.1383 339.137 20.1221 339.137C19.2106 339.137 18.4541 338.879 17.8525 338.364C17.2555 337.845 16.932 337.161 16.8818 336.313H18.4883C18.5521 336.797 18.7253 337.168 19.0078 337.428C19.2904 337.683 19.6595 337.811 20.1152 337.811C20.6257 337.811 21.0221 337.628 21.3047 337.264C21.5918 336.899 21.7354 336.402 21.7354 335.773C21.7354 335.167 21.5781 334.689 21.2637 334.338C20.9492 333.982 20.5163 333.805 19.9648 333.805C19.6641 333.805 19.4089 333.846 19.1992 333.928C18.9896 334.005 18.7617 334.16 18.5156 334.393L17.1895 334.064ZM31.5895 334.81C31.5895 336.241 31.3206 337.321 30.7828 338.05C30.2496 338.774 29.4361 339.137 28.3424 339.137C27.2669 339.137 26.4557 338.784 25.9088 338.077C25.3665 337.366 25.0885 336.316 25.0748 334.926V333.203C25.0748 331.772 25.3414 330.699 25.8746 329.983C26.4124 329.268 27.2304 328.91 28.3287 328.91C29.4179 328.91 30.2291 329.259 30.7623 329.956C31.3001 330.653 31.5758 331.697 31.5895 333.087V334.81ZM29.9283 332.95C29.9283 332.016 29.8007 331.332 29.5455 330.899C29.2903 330.462 28.8847 330.243 28.3287 330.243C27.7864 330.243 27.3876 330.451 27.1324 330.865C26.8772 331.275 26.7428 331.918 26.7291 332.793V335.049C26.7291 335.979 26.859 336.671 27.1187 337.127C27.3785 337.583 27.7864 337.811 28.3424 337.811C28.8756 337.811 29.2698 337.601 29.525 337.182C29.7802 336.758 29.9146 336.097 29.9283 335.199V332.95ZM39.9465 334.81C39.9465 336.241 39.6776 337.321 39.1398 338.05C38.6066 338.774 37.7932 339.137 36.6994 339.137C35.6239 339.137 34.8127 338.784 34.2658 338.077C33.7235 337.366 33.4455 336.316 33.4318 334.926V333.203C33.4318 331.772 33.6984 330.699 34.2316 329.983C34.7694 329.268 35.5874 328.91 36.6857 328.91C37.7749 328.91 38.5861 329.259 39.1193 329.956C39.6571 330.653 39.9328 331.697 39.9465 333.087V334.81ZM38.2854 332.95C38.2854 332.016 38.1577 331.332 37.9025 330.899C37.6473 330.462 37.2417 330.243 36.6857 330.243C36.1434 330.243 35.7447 330.451 35.4895 330.865C35.2342 331.275 35.0998 331.918 35.0861 332.793V335.049C35.0861 335.979 35.216 336.671 35.4758 337.127C35.7355 337.583 36.1434 337.811 36.6994 337.811C37.2326 337.811 37.6268 337.601 37.882 337.182C38.1372 336.758 38.2717 336.097 38.2854 335.199V332.95Z" fill="white" fill-opacity="0.87"/>
<path d="M460.232 334.81C460.232 336.241 459.964 337.321 459.426 338.05C458.893 338.774 458.079 339.137 456.985 339.137C455.91 339.137 455.099 338.784 454.552 338.077C454.009 337.366 453.731 336.316 453.718 334.926V333.203C453.718 331.772 453.984 330.699 454.518 329.983C455.055 329.268 455.873 328.91 456.972 328.91C458.061 328.91 458.872 329.259 459.405 329.956C459.943 330.653 460.219 331.697 460.232 333.087V334.81ZM458.571 332.95C458.571 332.016 458.444 331.332 458.188 330.899C457.933 330.462 457.528 330.243 456.972 330.243C456.429 330.243 456.031 330.451 455.775 330.865C455.52 331.275 455.386 331.918 455.372 332.793V335.049C455.372 335.979 455.502 336.671 455.762 337.127C456.021 337.583 456.429 337.811 456.985 337.811C457.519 337.811 457.913 337.601 458.168 337.182C458.423 336.758 458.558 336.097 458.571 335.199V332.95ZM462.546 334.064L463.087 329.047H468.432V330.482H464.467L464.194 332.861C464.654 332.597 465.174 332.465 465.753 332.465C466.7 332.465 467.436 332.768 467.961 333.374C468.489 333.98 468.754 334.796 468.754 335.821C468.754 336.833 468.462 337.64 467.879 338.241C467.295 338.838 466.495 339.137 465.479 339.137C464.568 339.137 463.811 338.879 463.21 338.364C462.613 337.845 462.289 337.161 462.239 336.313H463.845C463.909 336.797 464.082 337.168 464.365 337.428C464.647 337.683 465.017 337.811 465.472 337.811C465.983 337.811 466.379 337.628 466.662 337.264C466.949 336.899 467.092 336.402 467.092 335.773C467.092 335.167 466.935 334.689 466.621 334.338C466.306 333.982 465.873 333.805 465.322 333.805C465.021 333.805 464.766 333.846 464.556 333.928C464.347 334.005 464.119 334.16 463.873 334.393L462.546 334.064ZM476.946 334.81C476.946 336.241 476.678 337.321 476.14 338.05C475.607 338.774 474.793 339.137 473.699 339.137C472.624 339.137 471.813 338.784 471.266 338.077C470.724 337.366 470.446 336.316 470.432 334.926V333.203C470.432 331.772 470.698 330.699 471.232 329.983C471.769 329.268 472.587 328.91 473.686 328.91C474.775 328.91 475.586 329.259 476.119 329.956C476.657 330.653 476.933 331.697 476.946 333.087V334.81ZM475.285 332.95C475.285 332.016 475.158 331.332 474.903 330.899C474.647 330.462 474.242 330.243 473.686 330.243C473.143 330.243 472.745 330.451 472.489 330.865C472.234 331.275 472.1 331.918 472.086 332.793V335.049C472.086 335.979 472.216 336.671 472.476 337.127C472.736 337.583 473.143 337.811 473.699 337.811C474.233 337.811 474.627 337.601 474.882 337.182C475.137 336.758 475.272 336.097 475.285 335.199V332.95Z" fill="black" fill-opacity="0.87"/>
<path d="M458.243 296H456.589V288.009L454.148 288.843V287.441L458.031 286.013H458.243V296ZM468.589 291.81C468.589 293.241 468.321 294.321 467.783 295.05C467.25 295.774 466.436 296.137 465.342 296.137C464.267 296.137 463.456 295.784 462.909 295.077C462.366 294.366 462.088 293.316 462.075 291.926V290.203C462.075 288.772 462.341 287.699 462.875 286.983C463.412 286.268 464.23 285.91 465.329 285.91C466.418 285.91 467.229 286.259 467.762 286.956C468.3 287.653 468.576 288.697 468.589 290.087V291.81ZM466.928 289.95C466.928 289.016 466.801 288.332 466.546 287.899C466.29 287.462 465.885 287.243 465.329 287.243C464.786 287.243 464.388 287.451 464.132 287.865C463.877 288.275 463.743 288.918 463.729 289.793V292.049C463.729 292.979 463.859 293.671 464.119 294.127C464.379 294.583 464.786 294.811 465.342 294.811C465.876 294.811 466.27 294.601 466.525 294.182C466.78 293.758 466.915 293.097 466.928 292.199V289.95ZM476.946 291.81C476.946 293.241 476.678 294.321 476.14 295.05C475.607 295.774 474.793 296.137 473.699 296.137C472.624 296.137 471.813 295.784 471.266 295.077C470.724 294.366 470.446 293.316 470.432 291.926V290.203C470.432 288.772 470.698 287.699 471.232 286.983C471.769 286.268 472.587 285.91 473.686 285.91C474.775 285.91 475.586 286.259 476.119 286.956C476.657 287.653 476.933 288.697 476.946 290.087V291.81ZM475.285 289.95C475.285 289.016 475.158 288.332 474.903 287.899C474.647 287.462 474.242 287.243 473.686 287.243C473.143 287.243 472.745 287.451 472.489 287.865C472.234 288.275 472.1 288.918 472.086 289.793V292.049C472.086 292.979 472.216 293.671 472.476 294.127C472.736 294.583 473.143 294.811 473.699 294.811C474.233 294.811 474.627 294.601 474.882 294.182C475.137 293.758 475.272 293.097 475.285 292.199V289.95Z" fill="black" fill-opacity="0.87"/>
<path d="M460.438 251H453.745V249.858L457.061 246.242C457.539 245.709 457.879 245.265 458.079 244.909C458.284 244.549 458.387 244.189 458.387 243.829C458.387 243.355 458.252 242.972 457.983 242.681C457.719 242.389 457.361 242.243 456.91 242.243C456.372 242.243 455.955 242.407 455.659 242.735C455.363 243.063 455.215 243.512 455.215 244.082H453.554C453.554 243.476 453.69 242.931 453.964 242.448C454.242 241.961 454.636 241.582 455.146 241.313C455.661 241.045 456.254 240.91 456.924 240.91C457.89 240.91 458.651 241.154 459.207 241.642C459.768 242.125 460.048 242.795 460.048 243.651C460.048 244.148 459.907 244.67 459.624 245.217C459.346 245.759 458.888 246.377 458.25 247.069L455.816 249.674H460.438V251ZM468.589 246.81C468.589 248.241 468.321 249.321 467.783 250.05C467.25 250.774 466.436 251.137 465.342 251.137C464.267 251.137 463.456 250.784 462.909 250.077C462.366 249.366 462.088 248.316 462.075 246.926V245.203C462.075 243.772 462.341 242.699 462.875 241.983C463.412 241.268 464.23 240.91 465.329 240.91C466.418 240.91 467.229 241.259 467.762 241.956C468.3 242.653 468.576 243.697 468.589 245.087V246.81ZM466.928 244.95C466.928 244.016 466.801 243.332 466.546 242.899C466.29 242.462 465.885 242.243 465.329 242.243C464.786 242.243 464.388 242.451 464.132 242.865C463.877 243.275 463.743 243.918 463.729 244.793V247.049C463.729 247.979 463.859 248.671 464.119 249.127C464.379 249.583 464.786 249.811 465.342 249.811C465.876 249.811 466.27 249.601 466.525 249.182C466.78 248.758 466.915 248.097 466.928 247.199V244.95ZM476.946 246.81C476.946 248.241 476.678 249.321 476.14 250.05C475.607 250.774 474.793 251.137 473.699 251.137C472.624 251.137 471.813 250.784 471.266 250.077C470.724 249.366 470.446 248.316 470.432 246.926V245.203C470.432 243.772 470.698 242.699 471.232 241.983C471.769 241.268 472.587 240.91 473.686 240.91C474.775 240.91 475.586 241.259 476.119 241.956C476.657 242.653 476.933 243.697 476.946 245.087V246.81ZM475.285 244.95C475.285 244.016 475.158 243.332 474.903 242.899C474.647 242.462 474.242 242.243 473.686 242.243C473.143 242.243 472.745 242.451 472.489 242.865C472.234 243.275 472.1 243.918 472.086 244.793V247.049C472.086 247.979 472.216 248.671 472.476 249.127C472.736 249.583 473.143 249.811 473.699 249.811C474.233 249.811 474.627 249.601 474.882 249.182C475.137 248.758 475.272 248.097 475.285 247.199V244.95Z" fill="black" fill-opacity="0.87"/>
<path d="M455.666 201.265H456.678C457.188 201.26 457.591 201.128 457.888 200.868C458.188 200.608 458.339 200.232 458.339 199.74C458.339 199.266 458.214 198.899 457.963 198.64C457.717 198.375 457.339 198.243 456.828 198.243C456.382 198.243 456.015 198.373 455.728 198.633C455.44 198.888 455.297 199.223 455.297 199.638H453.636C453.636 199.127 453.77 198.662 454.039 198.243C454.312 197.824 454.691 197.498 455.174 197.266C455.661 197.029 456.206 196.91 456.808 196.91C457.801 196.91 458.58 197.161 459.146 197.662C459.715 198.159 460 198.852 460 199.74C460 200.187 459.856 200.608 459.569 201.005C459.287 201.397 458.92 201.693 458.469 201.894C459.016 202.08 459.43 202.374 459.713 202.775C460 203.176 460.144 203.655 460.144 204.211C460.144 205.104 459.836 205.815 459.221 206.344C458.61 206.872 457.806 207.137 456.808 207.137C455.851 207.137 455.067 206.882 454.456 206.371C453.845 205.861 453.54 205.182 453.54 204.334H455.201C455.201 204.771 455.347 205.127 455.639 205.4C455.935 205.674 456.331 205.811 456.828 205.811C457.343 205.811 457.749 205.674 458.045 205.4C458.341 205.127 458.489 204.73 458.489 204.211C458.489 203.687 458.334 203.284 458.024 203.001C457.715 202.718 457.254 202.577 456.644 202.577H455.666V201.265ZM468.589 202.81C468.589 204.241 468.321 205.321 467.783 206.05C467.25 206.774 466.436 207.137 465.342 207.137C464.267 207.137 463.456 206.784 462.909 206.077C462.366 205.366 462.088 204.316 462.075 202.926V201.203C462.075 199.772 462.341 198.699 462.875 197.983C463.412 197.268 464.23 196.91 465.329 196.91C466.418 196.91 467.229 197.259 467.762 197.956C468.3 198.653 468.576 199.697 468.589 201.087V202.81ZM466.928 200.95C466.928 200.016 466.801 199.332 466.546 198.899C466.29 198.462 465.885 198.243 465.329 198.243C464.786 198.243 464.388 198.451 464.132 198.865C463.877 199.275 463.743 199.918 463.729 200.793V203.049C463.729 203.979 463.859 204.671 464.119 205.127C464.379 205.583 464.786 205.811 465.342 205.811C465.876 205.811 466.27 205.601 466.525 205.182C466.78 204.758 466.915 204.097 466.928 203.199V200.95ZM476.946 202.81C476.946 204.241 476.678 205.321 476.14 206.05C475.607 206.774 474.793 207.137 473.699 207.137C472.624 207.137 471.813 206.784 471.266 206.077C470.724 205.366 470.446 204.316 470.432 202.926V201.203C470.432 199.772 470.698 198.699 471.232 197.983C471.769 197.268 472.587 196.91 473.686 196.91C474.775 196.91 475.586 197.259 476.119 197.956C476.657 198.653 476.933 199.697 476.946 201.087V202.81ZM475.285 200.95C475.285 200.016 475.158 199.332 474.903 198.899C474.647 198.462 474.242 198.243 473.686 198.243C473.143 198.243 472.745 198.451 472.489 198.865C472.234 199.275 472.1 199.918 472.086 200.793V203.049C472.086 203.979 472.216 204.671 472.476 205.127C472.736 205.583 473.143 205.811 473.699 205.811C474.233 205.811 474.627 205.601 474.882 205.182C475.137 204.758 475.272 204.097 475.285 203.199V200.95Z" fill="black" fill-opacity="0.87"/>
<path d="M459.364 159.452H460.602V160.785H459.364V163H457.703V160.785H453.403L453.355 159.773L457.648 153.047H459.364V159.452ZM455.099 159.452H457.703V155.296L457.58 155.515L455.099 159.452ZM468.589 158.81C468.589 160.241 468.321 161.321 467.783 162.05C467.25 162.774 466.436 163.137 465.342 163.137C464.267 163.137 463.456 162.784 462.909 162.077C462.366 161.366 462.088 160.316 462.075 158.926V157.203C462.075 155.772 462.341 154.699 462.875 153.983C463.412 153.268 464.23 152.91 465.329 152.91C466.418 152.91 467.229 153.259 467.762 153.956C468.3 154.653 468.576 155.697 468.589 157.087V158.81ZM466.928 156.95C466.928 156.016 466.801 155.332 466.546 154.899C466.29 154.462 465.885 154.243 465.329 154.243C464.786 154.243 464.388 154.451 464.132 154.865C463.877 155.275 463.743 155.918 463.729 156.793V159.049C463.729 159.979 463.859 160.671 464.119 161.127C464.379 161.583 464.786 161.811 465.342 161.811C465.876 161.811 466.27 161.601 466.525 161.182C466.78 160.758 466.915 160.097 466.928 159.199V156.95ZM476.946 158.81C476.946 160.241 476.678 161.321 476.14 162.05C475.607 162.774 474.793 163.137 473.699 163.137C472.624 163.137 471.813 162.784 471.266 162.077C470.724 161.366 470.446 160.316 470.432 158.926V157.203C470.432 155.772 470.698 154.699 471.232 153.983C471.769 153.268 472.587 152.91 473.686 152.91C474.775 152.91 475.586 153.259 476.119 153.956C476.657 154.653 476.933 155.697 476.946 157.087V158.81ZM475.285 156.95C475.285 156.016 475.158 155.332 474.903 154.899C474.647 154.462 474.242 154.243 473.686 154.243C473.143 154.243 472.745 154.451 472.489 154.865C472.234 155.275 472.1 155.918 472.086 156.793V159.049C472.086 159.979 472.216 160.671 472.476 161.127C472.736 161.583 473.143 161.811 473.699 161.811C474.233 161.811 474.627 161.601 474.882 161.182C475.137 160.758 475.272 160.097 475.285 159.199V156.95Z" fill="black" fill-opacity="0.87"/>
<defs>
<linearGradient id="paint0_linear_242_26684" x1="656" y1="224" x2="656" y2="268" gradientUnits="userSpaceOnUse">
<stop offset="0.182292" stop-color="#6200EE"/>
<stop offset="0.635417" stop-color="#6200EE" stop-opacity="0.414634"/>
<stop offset="1" stop-color="#6200EE" stop-opacity="0"/>
</linearGradient>
</defs>
</svg>
