<svg xmlns="http://www.w3.org/2000/svg" width="90" height="90" viewBox="0 0 90 90" fill="none">
  <path d="M45 60C49.6875 60 53.6719 58.3594 56.9531 55.0781C60.2344 51.7969 61.875 47.8125 61.875 43.125C61.875 38.4375 60.2344 34.4531 56.9531 31.1719C53.6719 27.8906 49.6875 26.25 45 26.25C40.3125 26.25 36.3281 27.8906 33.0469 31.1719C29.7656 34.4531 28.125 38.4375 28.125 43.125C28.125 47.8125 29.7656 51.7969 33.0469 55.0781C36.3281 58.3594 40.3125 60 45 60ZM45 53.25C42.1875 53.25 39.7969 52.2656 37.8281 50.2969C35.8594 48.3281 34.875 45.9375 34.875 43.125C34.875 40.3125 35.8594 37.9219 37.8281 35.9531C39.7969 33.9844 42.1875 33 45 33C47.8125 33 50.2031 33.9844 52.1719 35.9531C54.1406 37.9219 55.125 40.3125 55.125 43.125C55.125 45.9375 54.1406 48.3281 52.1719 50.2969C50.2031 52.2656 47.8125 53.25 45 53.25ZM45 71.25C35.875 71.25 27.5625 68.7031 20.0625 63.6094C12.5625 58.5156 7.125 51.6875 3.75 43.125C7.125 34.5625 12.5625 27.7344 20.0625 22.6406C27.5625 17.5469 35.875 15 45 15C54.125 15 62.4375 17.5469 69.9375 22.6406C77.4375 27.7344 82.875 34.5625 86.25 43.125C82.875 51.6875 77.4375 58.5156 69.9375 63.6094C62.4375 68.7031 54.125 71.25 45 71.25ZM45 63.75C52.0625 63.75 58.5469 61.8906 64.4531 58.1719C70.3594 54.4531 74.875 49.4375 78 43.125C74.875 36.8125 70.3594 31.7969 64.4531 28.0781C58.5469 24.3594 52.0625 22.5 45 22.5C37.9375 22.5 31.4531 24.3594 25.5469 28.0781C19.6406 31.7969 15.125 36.8125 12 43.125C15.125 49.4375 19.6406 54.4531 25.5469 58.1719C31.4531 61.8906 37.9375 63.75 45 63.75Z" fill="black"/>
</svg>