<svg xmlns="http://www.w3.org/2000/svg" xmlns:xlink="http://www.w3.org/1999/xlink" xmlns:lucid="lucid" width="1056" height="1248"><g transform="translate(-172 0)" lucid:page-tab-id=".Q4MUjXso07N"><path d="M0 0h1360v1760H0z" fill="#fff"/><path d="M402.78 145a5 5 0 0 1 5-5h543.54a5 5 0 0 1 5 5v1030a5 5 0 0 1-5 5H407.78a5 5 0 0 1-5-5z" stroke="#333" fill-opacity="0"/><use xlink:href="#a" transform="matrix(1,0,0,1,410.7771404371331,148) translate(226.43827160493828 15.11111111111111)"/><path d="M295.26 290c0 10.9-8.84 19.75-19.75 19.75-10.9 0-19.74-8.84-19.74-19.75 0-10.9 8.84-19.75 19.75-19.75 10.92 0 19.76 8.84 19.76 19.75z" stroke="#d916a8" fill="#fff"/><path d="M275.5 309.75v50.3a17.25 17.25 0 0 0 2.7 9.22l37.3 58.98m-40-63.2l-40 63.2m0-98.75h80" stroke="#d916a8" fill="none"/><path d="M235.5 275.25a5 5 0 0 1 5-5h70a5 5 0 0 1 5 5v170a5 5 0 0 1-5 5h-70a5 5 0 0 1-5-5z" fill="none"/><use xlink:href="#b" transform="matrix(1,0,0,1,155.5107284677096,428.25000000000006) translate(76.59259259259258 14.888888888888888)"/><path d="M1093.28 329.75c0 10.9-8.84 19.75-19.75 19.75-10.9 0-19.75-8.84-19.75-19.75 0-10.9 8.84-19.75 19.75-19.75 10.9 0 19.75 8.84 19.75 19.75z" stroke="#e81313" fill="#fff"/><path d="M1073.53 349.5v50.3a17.25 17.25 0 0 0 2.67 9.22l37.33 58.98m-40-63.2l-40 63.2m0-98.75h80" stroke="#e81313" fill="none"/><path d="M1033.53 315a5 5 0 0 1 5-5h70a5 5 0 0 1 5 5v170a5 5 0 0 1-5 5h-70a5 5 0 0 1-5-5z" fill="none"/><use xlink:href="#c" transform="matrix(1,0,0,1,953.530450332184,467.99896332548343) translate(83.97530864197532 14.888888888888888)"/><path d="M253.15 78a8 8 0 0 1 8-8h836.75a8 8 0 0 1 8 8v25.16a8 8 0 0 1-8 8H261.15a8 8 0 0 1-8-8z" stroke="#000" stroke-opacity="0" stroke-width="2" fill="#fff" fill-opacity="0"/><use xlink:href="#d" transform="matrix(1,0,0,1,273.14655278534315,69.99999999994924) translate(184.40814814814817 27.584444444444443)"/><use xlink:href="#e" transform="matrix(1,0,0,1,273.14655278534315,69.99999999994924) translate(311.0032098765432 27.584444444444443)"/><use xlink:href="#f" transform="matrix(1,0,0,1,273.14655278534315,69.99999999994924) translate(348.80691358024694 27.584444444444443)"/><use xlink:href="#g" transform="matrix(1,0,0,1,273.14655278534315,69.99999999994924) translate(415.74641975308646 27.584444444444443)"/><use xlink:href="#h" transform="matrix(1,0,0,1,273.14655278534315,69.99999999994924) translate(453.5501234567902 27.584444444444443)"/><use xlink:href="#i" transform="matrix(1,0,0,1,273.14655278534315,69.99999999994924) translate(507.30567901234565 27.584444444444443)"/><use xlink:href="#j" transform="matrix(1,0,0,1,273.14655278534315,69.99999999994924) translate(539.3550617283951 27.584444444444443)"/><use xlink:href="#k" transform="matrix(1,0,0,1,273.14655278534315,69.99999999994924) translate(620.643950617284 27.584444444444443)"/><path d="M486.4 109.8H878.8M486.42 109.8h-1.03M878.8 109.8h1.02" stroke="#a9afb8" stroke-width="2" fill="none"/><path d="M253.15 119.16a8 8 0 0 1 8-8h837.7a8 8 0 0 1 8 8V122a8 8 0 0 1-8 8h-837.7a8 8 0 0 1-8-8z" stroke="#000" stroke-opacity="0" stroke-width="2" fill="#fff" fill-opacity="0"/><use xlink:href="#l" transform="matrix(1,0,0,1,273.1465527853436,111.15522395684805) translate(270.0089711934156 14.917037037037037)"/><use xlink:href="#m" transform="matrix(1,0,0,1,273.1465527853436,111.15522395684805) translate(314.92059670781896 14.917037037037037)"/><use xlink:href="#n" transform="matrix(1,0,0,1,273.1465527853436,111.15522395684805) translate(347.17028806584364 14.917037037037037)"/><use xlink:href="#o" transform="matrix(1,0,0,1,273.1465527853436,111.15522395684805) translate(404.0215226337449 14.917037037037037)"/><use xlink:href="#p" transform="matrix(1,0,0,1,273.1465527853436,111.15522395684805) translate(416.47100823045264 14.917037037037037)"/><use xlink:href="#q" transform="matrix(1,0,0,1,273.1465527853436,111.15522395684805) translate(491.12543209876543 14.917037037037037)"/><use xlink:href="#r" transform="matrix(1,0,0,1,273.1465527853436,111.15522395684805) translate(516.6192592592593 14.917037037037037)"/><path d="M1099.75 539.75c0 10.9-8.84 19.75-19.75 19.75-10.9 0-19.75-8.84-19.75-19.75 0-10.9 8.84-19.75 19.75-19.75 10.9 0 19.75 8.84 19.75 19.75z" stroke="#008a0e" fill="#fff"/><path d="M1080 559.5v50.3a17.25 17.25 0 0 0 2.67 9.23L1120 678m-40-63.2l-40 63.2m0-98.75h80" stroke="#008a0e" fill="none"/><path d="M1040 525a5 5 0 0 1 5-5h70a5 5 0 0 1 5 5v170a5 5 0 0 1-5 5h-70a5 5 0 0 1-5-5z" fill="none"/><use xlink:href="#s" transform="matrix(1,0,0,1,960,678) translate(64.2716049382716 14.888888888888888)"/><path d="M1099.75 739.75c0 10.9-8.84 19.75-19.75 19.75-10.9 0-19.75-8.84-19.75-19.75 0-10.9 8.84-19.75 19.75-19.75 10.9 0 19.75 8.84 19.75 19.75z" stroke="#1071e5" fill="#fff"/><path d="M1080 759.5v50.3a17.25 17.25 0 0 0 2.67 9.23L1120 878m-40-63.2l-40 63.2m0-98.75h80" stroke="#1071e5" fill="none"/><path d="M1040 725a5 5 0 0 1 5-5h70a5 5 0 0 1 5 5v170a5 5 0 0 1-5 5h-70a5 5 0 0 1-5-5z" fill="none"/><use xlink:href="#t" transform="matrix(1,0,0,1,960,878) translate(89.4320987654321 14.888888888888888)"/><path d="M759.52 225.63c0 19.26-35.82 34.87-80 34.87s-80-15.6-80-34.88c0-19.26 35.82-34.87 80-34.87s80 15.6 80 34.88z" stroke="#333" fill="#fff"/><use xlink:href="#u" transform="matrix(1,0,0,1,623.5213070194006,204.70000000000022) translate(7.049999999999997 14.4)"/><use xlink:href="#v" transform="matrix(1,0,0,1,623.5213070194006,204.70000000000022) translate(84.95 14.4)"/><use xlink:href="#w" transform="matrix(1,0,0,1,623.5213070194006,204.70000000000022) translate(22.049999999999997 36)"/><path d="M760 405.38c0 19.26-35.82 34.87-80 34.87s-80-15.6-80-34.88c0-19.26 35.82-34.87 80-34.87s80 15.6 80 34.88z" stroke="#333" fill="#fff"/><use xlink:href="#x" transform="matrix(1,0,0,1,624.0000000000002,384.4500000000001) translate(18.549999999999997 14.4)"/><use xlink:href="#v" transform="matrix(1,0,0,1,624.0000000000002,384.4500000000001) translate(73.45 14.4)"/><use xlink:href="#y" transform="matrix(1,0,0,1,624.0000000000002,384.4500000000001) translate(28.55 36)"/><path d="M760 585.13c0 19.26-35.82 34.87-80 34.87s-80-15.6-80-34.88c0-19.26 35.82-34.87 80-34.87s80 15.6 80 34.88z" stroke="#333" fill="#fff"/><use xlink:href="#z" transform="matrix(1,0,0,1,624.0000000000002,564.1999999999999) translate(9.024999999999999 14.4)"/><use xlink:href="#v" transform="matrix(1,0,0,1,624.0000000000002,564.1999999999999) translate(82.975 14.4)"/><use xlink:href="#A" transform="matrix(1,0,0,1,624.0000000000002,564.1999999999999) translate(19 36)"/><path d="M760 765.13c0 19.26-35.82 34.87-80 34.87s-80-15.6-80-34.88c0-19.26 35.82-34.87 80-34.87s80 15.6 80 34.88z" stroke="#333" fill="#fff"/><use xlink:href="#B" transform="matrix(1,0,0,1,624.0000000000002,744.1999999999999) translate(-6.875000000000007 14.4)"/><use xlink:href="#C" transform="matrix(1,0,0,1,624.0000000000002,744.1999999999999) translate(6.5 36)"/><use xlink:href="#A" transform="matrix(1,0,0,1,624.0000000000002,744.1999999999999) translate(31.5 36)"/><path d="M760 945.13c0 19.26-35.82 34.87-80 34.87s-80-15.6-80-34.88c0-19.26 35.82-34.87 80-34.87s80 15.6 80 34.88z" stroke="#333" fill="#fff"/><use xlink:href="#D" transform="matrix(1,0,0,1,624.0000000000002,924.1999999999999) translate(8.049999999999997 14.4)"/><use xlink:href="#v" transform="matrix(1,0,0,1,624.0000000000002,924.1999999999999) translate(83.95 14.4)"/><use xlink:href="#E" transform="matrix(1,0,0,1,624.0000000000002,924.1999999999999) translate(15.549999999999997 36)"/><path d="M760 1125.13c0 19.26-35.82 34.87-80 34.87s-80-15.6-80-34.88c0-19.26 35.82-34.87 80-34.87s80 15.6 80 34.88z" stroke="#333" fill="#fff"/><use xlink:href="#F" transform="matrix(1,0,0,1,624.0000000000002,1104.2) translate(23.099999999999994 14.4)"/><use xlink:href="#G" transform="matrix(1,0,0,1,624.0000000000002,1104.2) translate(28.525 36)"/><path d="M276.5 349.18h149.02a12 12 0 0 0 12-12v-99.56a12 12 0 0 1 12-12h149M276.52 349.18h-3.5" stroke="#d916a8" fill="none"/><path d="M599.02 225.62v.14l.02.37h-.53v-1h.54z" stroke="#d916a8" stroke-width=".05" fill="#d916a8"/><path d="M1072.53 388.93h-144a12 12 0 0 1-12-12v-139.3a12 12 0 0 0-12-12h-144M1072.52 388.93h3.5" stroke="#e81313" fill="none"/><path d="M760.53 226.13H760l.02-.5v-.52h.5z" stroke="#e81313" stroke-width=".05" fill="#e81313"/><path d="M1079 598.93H931.76a12 12 0 0 1-12-12v-193c-2.76 0-5-2.24-5-5s2.24-5 5-5v-146.3a12 12 0 0 0-12-12H760.52M1079 598.93h3.5" stroke="#54c45e" fill="none"/><path d="M760.53 226.13H760l.02-.5v-.52h.5z" stroke="#54c45e" stroke-width=".05" fill="#54c45e"/><path d="M1079 598.93H932a12 12 0 0 1-12-12V410.37c2.67-.13 4.76-2.32 4.76-5 0-2.76-2.24-5-5-5s-5 2.24-5 5H761M1079 598.93h3.5" stroke="#54c45e" fill="none"/><path d="M761 405.88h-.5v-1.01h.5z" stroke="#54c45e" stroke-width=".05" fill="#54c45e"/><path d="M1079 598.93H924.4a4.4 4.4 0 0 1-4.4-4.4v-4.4c2.67-.14 4.76-2.33 4.76-5 0-2.77-2.24-5-5-5s-5 2.23-5 5H761M1079 598.93h3.5" stroke="#54c45e" fill="none"/><path d="M761 585.63h-.5v-1.02h.5z" stroke="#54c45e" stroke-width=".05" fill="#54c45e"/><path d="M1079 598.93H932a12 12 0 0 0-12 12v142.2a12 12 0 0 1-12 12H761M1079 598.93h3.5" stroke="#54c45e" fill="none"/><path d="M761 765.63h-.5v-1.02h.5z" stroke="#54c45e" stroke-width=".05" fill="#54c45e"/><path d="M1079 598.93H932a12 12 0 0 0-12 12v322.2a12 12 0 0 1-12 12H761M1079 598.93h3.5" stroke="#54c45e" fill="none"/><path d="M761 945.63h-.5v-1.02h.5z" stroke="#54c45e" stroke-width=".05" fill="#54c45e"/><path d="M1079 798.93H932a12 12 0 0 0-12 12v122.2a12 12 0 0 1-12 12H761M1079 798.93h3.5" stroke="#1071e5" fill="none"/><path d="M761 945.63h-.5v-1.02h.5z" stroke="#1071e5" stroke-width=".05" fill="#1071e5"/><path d="M1079 798.93H932a12 12 0 0 0-12 12v302.2a12 12 0 0 1-12 12H761M1079 798.93h3.5" stroke="#1071e5" fill="none"/><path d="M761 1125.63h-.5v-1.01h.5z" stroke="#1071e5" stroke-width=".05" fill="#1071e5"/><path d="M276.5 349.18h149.25a12 12 0 0 1 12 12v211.94a12 12 0 0 0 12 12H599M276.52 349.18h-3.5" stroke="#d916a8" fill="none"/><path d="M599.5 585.12v.51h-.5v-1h.5z" stroke="#d916a8" stroke-width=".05" fill="#d916a8"/><defs><path fill="#333" d="M178-136c88 48 22 151-73 140C49-3 12-15 4-64l51-9c1 50 111 53 115 3-16-63-132-20-133-112 0-93 190-91 199-10l-50 12c-4-41-93-50-97-4 7 38 59 32 89 48" id="H"/><path fill="#333" d="M50-224l7-37h49l-7 37H50zM6 0l37-190h49L55 0H6" id="I"/><path fill="#333" d="M144-137c-1-29-70-35-71-2 16 41 103 10 103 80C176 9 79 16 32-9 18-17 9-31 4-48l44-6c3 32 80 36 82 1-15-42-103-11-103-82 0-77 157-79 161-8" id="J"/><path fill="#333" d="M72-63c-8 23 5 39 32 30L98-1C54 14 12-6 23-64l18-93H15l7-33h28l24-45h31l-8 45h35l-6 33H90" id="K"/><path fill="#333" d="M114-194c63-2 87 48 72 110H63c-3 28 1 55 31 54 21-1 32-13 37-29l44 13C160-14 137 4 91 4 41 4 11-22 11-73c0-71 33-119 103-121zm30 77c14-47-50-61-67-22-3 6-6 13-8 22h75" id="L"/><path fill="#333" d="M255-194c90 0 29 129 24 194h-49l25-136c-7-39-53-14-60 9-12 38-18 85-28 127h-49l25-136c2-29-39-23-50-7C69-108 68-47 56 0H6l36-190h48c-1 10-6 24-4 32 12-20 27-36 57-36s46 15 50 41c14-21 29-41 62-41" id="M"/><path fill="#333" d="M166-52c-4 17 5 29 24 23l-3 27c-30 11-74 1-67-34C105-15 91 4 56 4 23 4 3-15 2-49c0-64 63-67 128-67 10-22 3-53-29-45-13 3-22 10-25 24l-46-5c5-64 156-77 153 0-1 33-11 60-17 90zM97-88c-44-9-64 57-19 57 31 0 42-28 47-57H97" id="N"/><g id="a"><use transform="matrix(0.06172839506172839,0,0,0.06172839506172839,0,0)" xlink:href="#H"/><use transform="matrix(0.06172839506172839,0,0,0.06172839506172839,14.814814814814813,0)" xlink:href="#I"/><use transform="matrix(0.06172839506172839,0,0,0.06172839506172839,20.98765432098765,0)" xlink:href="#J"/><use transform="matrix(0.06172839506172839,0,0,0.06172839506172839,33.33333333333333,0)" xlink:href="#K"/><use transform="matrix(0.06172839506172839,0,0,0.06172839506172839,40.679012345679006,0)" xlink:href="#L"/><use transform="matrix(0.06172839506172839,0,0,0.06172839506172839,53.02469135802468,0)" xlink:href="#M"/><use transform="matrix(0.06172839506172839,0,0,0.06172839506172839,72.77777777777777,0)" xlink:href="#N"/></g><path fill="#333" d="M11 0l48-248h184l-5 28H87l-15 79h140l-5 27H67L50-27h158l-5 27H11" id="O"/><path fill="#333" d="M222 0l43-216c-8 16-17 34-26 49L143 0h-22L81-216 41 0H11l48-248h42l38 208 116-208h45L252 0h-30" id="P"/><path fill="#333" d="M238-179c0 84-86 86-175 82L45 0H11l48-248c82 0 179-12 179 69zm-34 1c0-53-64-42-116-43l-19 98c63 0 135 9 135-55" id="Q"/><path fill="#333" d="M249-183c0 48-29 72-75 77L221 0h-36l-43-103H65L45 0H11l48-248c83 2 190-17 190 65zm-34 3c0-55-74-39-127-41l-18 92c63-1 145 13 145-51" id="R"/><path fill="#333" d="M194-120c59 52 2 134-86 124-53-6-90-18-98-63l31-7c8 30 29 43 70 43 46 0 84-17 71-62-32-43-135-20-137-98-3-89 178-90 191-16l-30 9c-8-48-127-53-127 5 0 53 81 35 115 65" id="S"/><path fill="#333" d="M187 0l-14-72H61L19 0h-37l149-248h38L221 0h-34zm-19-99l-22-123L76-99h92" id="T"/><g id="b"><use transform="matrix(0.04938271604938272,0,0,0.04938271604938272,0,0)" xlink:href="#O"/><use transform="matrix(0.04938271604938272,0,0,0.04938271604938272,11.851851851851853,0)" xlink:href="#P"/><use transform="matrix(0.04938271604938272,0,0,0.04938271604938272,26.617283950617285,0)" xlink:href="#Q"/><use transform="matrix(0.04938271604938272,0,0,0.04938271604938272,38.46913580246914,0)" xlink:href="#R"/><use transform="matrix(0.04938271604938272,0,0,0.04938271604938272,51.25925925925927,0)" xlink:href="#O"/><use transform="matrix(0.04938271604938272,0,0,0.04938271604938272,63.111111111111114,0)" xlink:href="#S"/><use transform="matrix(0.04938271604938272,0,0,0.04938271604938272,74.96296296296298,0)" xlink:href="#T"/></g><path fill="#333" d="M125-24c46 0 70-25 89-51l25 16C214-24 183 4 123 4 8 4-5-146 60-208c32-50 158-61 191-5 5 7 9 14 11 22l-32 10c-9-28-33-43-69-43-74 0-108 51-108 125 0 46 24 75 72 75" id="U"/><path fill="#333" d="M20-101c0-91 52-143 145-150 126-9 127 168 53 223-23 17-55 32-93 32C57 4 20-33 20-101zm216-33c5-57-18-91-73-90-77 1-110 51-110 125 0 49 23 75 73 75 72-1 104-45 110-110" id="V"/><path fill="#333" d="M11 0l48-248h34L50-27h125l-5 27H11" id="W"/><g id="c"><use transform="matrix(0.04938271604938272,0,0,0.04938271604938272,0,0)" xlink:href="#O"/><use transform="matrix(0.04938271604938272,0,0,0.04938271604938272,11.851851851851853,0)" xlink:href="#S"/><use transform="matrix(0.04938271604938272,0,0,0.04938271604938272,23.703703703703706,0)" xlink:href="#U"/><use transform="matrix(0.04938271604938272,0,0,0.04938271604938272,36.49382716049383,0)" xlink:href="#V"/><use transform="matrix(0.04938271604938272,0,0,0.04938271604938272,50.32098765432099,0)" xlink:href="#W"/><use transform="matrix(0.04938271604938272,0,0,0.04938271604938272,60.19753086419754,0)" xlink:href="#T"/></g><path fill="#a9afb8" d="M24-248c120-7 223 5 221 122C244-46 201 0 124 0H24v-248zM76-40c74 7 117-18 117-86 0-67-45-88-117-82v168" id="X"/><path fill="#a9afb8" d="M25-224v-37h50v37H25zM25 0v-190h50V0H25" id="Y"/><path fill="#a9afb8" d="M133-34C117-15 103 5 69 4 32 3 11-16 11-54c-1-60 55-63 116-61 1-26-3-47-28-47-18 1-26 9-28 27l-52-2c7-38 36-58 82-57s74 22 75 68l1 82c-1 14 12 18 25 15v27c-30 8-71 5-69-32zm-48 3c29 0 43-24 42-57-32 0-66-3-65 30 0 17 8 27 23 27" id="Z"/><path fill="#a9afb8" d="M195-6C206 82 75 100 31 46c-4-6-6-13-8-21l49-6c3 16 16 24 34 25 40 0 42-37 40-79-11 22-30 35-61 35-53 0-70-43-70-97 0-56 18-96 73-97 30 0 46 14 59 34l2-30h47zm-90-29c32 0 41-27 41-63 0-35-9-62-40-62-32 0-39 29-40 63 0 36 9 62 39 62" id="aa"/><path fill="#a9afb8" d="M135-150c-39-12-60 13-60 57V0H25l-1-190h47c2 13-1 29 3 40 6-28 27-53 61-41v41" id="ab"/><path fill="#a9afb8" d="M220-157c-53 9-28 100-34 157h-49v-107c1-27-5-49-29-50C55-147 81-57 75 0H25l-1-190h47c2 12-1 28 3 38 10-53 101-56 108 0 13-22 24-43 59-42 82 1 51 116 57 194h-49v-107c-1-25-5-48-29-50" id="ac"/><g id="d"><use transform="matrix(0.0728395061728395,0,0,0.0728395061728395,0,0)" xlink:href="#X"/><use transform="matrix(0.0728395061728395,0,0,0.0728395061728395,18.86543209876543,0)" xlink:href="#Y"/><use transform="matrix(0.0728395061728395,0,0,0.0728395061728395,26.14938271604938,0)" xlink:href="#Z"/><use transform="matrix(0.0728395061728395,0,0,0.0728395061728395,40.717283950617286,0)" xlink:href="#aa"/><use transform="matrix(0.0728395061728395,0,0,0.0728395061728395,56.66913580246913,0)" xlink:href="#ab"/><use transform="matrix(0.0728395061728395,0,0,0.0728395061728395,66.86666666666666,0)" xlink:href="#Z"/><use transform="matrix(0.0728395061728395,0,0,0.0728395061728395,81.43456790123457,0)" xlink:href="#ac"/><use transform="matrix(0.0728395061728395,0,0,0.0728395061728395,104.7432098765432,0)" xlink:href="#Z"/></g><path fill="#a9afb8" d="M88-194c31-1 46 15 58 34l-1-101h50l1 261h-48c-2-10 0-23-3-31C134-8 116 4 84 4 32 4 16-41 15-95c0-56 19-97 73-99zm17 164c33 0 40-30 41-66 1-37-9-64-41-64s-38 30-39 65c0 43 13 65 39 65" id="ad"/><path fill="#a9afb8" d="M185-48c-13 30-37 53-82 52C43 2 14-33 14-96s30-98 90-98c62 0 83 45 84 108H66c0 31 8 55 39 56 18 0 30-7 34-22zm-45-69c5-46-57-63-70-21-2 6-4 13-4 21h74" id="ae"/><g id="e"><use transform="matrix(0.0728395061728395,0,0,0.0728395061728395,0,0)" xlink:href="#ad"/><use transform="matrix(0.0728395061728395,0,0,0.0728395061728395,15.95185185185185,0)" xlink:href="#ae"/></g><path fill="#a9afb8" d="M190-63c-7 42-38 67-86 67-59 0-84-38-90-98-12-110 154-137 174-36l-49 2c-2-19-15-32-35-32-30 0-35 28-38 64-6 74 65 87 74 30" id="af"/><path fill="#a9afb8" d="M137-138c1-29-70-34-71-4 15 46 118 7 119 86 1 83-164 76-172 9l43-7c4 19 20 25 44 25 33 8 57-30 24-41C81-84 22-81 20-136c-2-80 154-74 161-7" id="ag"/><path fill="#a9afb8" d="M110-194c64 0 96 36 96 99 0 64-35 99-97 99-61 0-95-36-95-99 0-62 34-99 96-99zm-1 164c35 0 45-28 45-65 0-40-10-65-43-65-34 0-45 26-45 65 0 36 10 65 43 65" id="ah"/><g id="f"><use transform="matrix(0.0728395061728395,0,0,0.0728395061728395,0,0)" xlink:href="#af"/><use transform="matrix(0.0728395061728395,0,0,0.0728395061728395,14.5679012345679,0)" xlink:href="#Z"/><use transform="matrix(0.0728395061728395,0,0,0.0728395061728395,29.1358024691358,0)" xlink:href="#ag"/><use transform="matrix(0.0728395061728395,0,0,0.0728395061728395,43.7037037037037,0)" xlink:href="#ah"/></g><g id="g"><use transform="matrix(0.0728395061728395,0,0,0.0728395061728395,0,0)" xlink:href="#ad"/><use transform="matrix(0.0728395061728395,0,0,0.0728395061728395,15.95185185185185,0)" xlink:href="#ae"/></g><path fill="#a9afb8" d="M85 4C-2 5 27-109 22-190h50c7 57-23 150 33 157 60-5 35-97 40-157h50l1 190h-47c-2-12 1-28-3-38-12 25-28 42-61 42" id="ai"/><g id="h"><use transform="matrix(0.0728395061728395,0,0,0.0728395061728395,0,0)" xlink:href="#ai"/><use transform="matrix(0.0728395061728395,0,0,0.0728395061728395,15.95185185185185,0)" xlink:href="#ag"/><use transform="matrix(0.0728395061728395,0,0,0.0728395061728395,30.51975308641975,0)" xlink:href="#ah"/></g><path fill="#a9afb8" d="M24-248c93 1 206-16 204 79-1 75-69 88-152 82V0H24v-248zm52 121c47 0 100 7 100-41 0-47-54-39-100-39v80" id="aj"/><path fill="#a9afb8" d="M24 0v-248h52V0H24" id="ak"/><g id="i"><use transform="matrix(0.0728395061728395,0,0,0.0728395061728395,0,0)" xlink:href="#aj"/><use transform="matrix(0.0728395061728395,0,0,0.0728395061728395,17.48148148148148,0)" xlink:href="#ak"/></g><path fill="#a9afb8" d="M135-194c53 0 70 44 70 98 0 56-19 98-73 100-31 1-45-17-59-34 3 33 2 69 2 105H25l-1-265h48c2 10 0 23 3 31 11-24 29-35 60-35zM114-30c33 0 39-31 40-66 0-38-9-64-40-64-56 0-55 130 0 130" id="al"/><g id="j"><use transform="matrix(0.0728395061728395,0,0,0.0728395061728395,0,0)" xlink:href="#aa"/><use transform="matrix(0.0728395061728395,0,0,0.0728395061728395,15.95185185185185,0)" xlink:href="#ab"/><use transform="matrix(0.0728395061728395,0,0,0.0728395061728395,26.14938271604938,0)" xlink:href="#ai"/><use transform="matrix(0.0728395061728395,0,0,0.0728395061728395,42.10123456790124,0)" xlink:href="#al"/><use transform="matrix(0.0728395061728395,0,0,0.0728395061728395,58.05308641975308,0)" xlink:href="#ah"/></g><path fill="#a9afb8" d="M139-81c0-46-55-55-73-27H18l9-140h149v37H72l-4 63c44-38 133-4 122 66C201 21 21 35 11-62l49-4c5 18 15 30 39 30 26 0 40-18 40-45" id="am"/><use transform="matrix(0.0728395061728395,0,0,0.0728395061728395,0,0)" xlink:href="#am" id="k"/><path fill="#a9afb8" d="M63-220v92h138v28H63V0H30v-248h175v28H63" id="an"/><path fill="#a9afb8" d="M24 0v-261h32V0H24" id="ao"/><path fill="#a9afb8" d="M141-36C126-15 110 5 73 4 37 3 15-17 15-53c-1-64 63-63 125-63 3-35-9-54-41-54-24 1-41 7-42 31l-33-3c5-37 33-52 76-52 45 0 72 20 72 64v82c-1 20 7 32 28 27v20c-31 9-61-2-59-35zM48-53c0 20 12 33 32 33 41-3 63-29 60-74-43 2-92-5-92 41zm25-158c8-23 27-35 38-54h36v5l-58 49H73" id="ap"/><path fill="#a9afb8" d="M108 0H70L1-190h34L89-25l56-165h34" id="aq"/><path fill="#a9afb8" d="M24-231v-30h32v30H24zM24 0v-190h32V0H24" id="ar"/><path fill="#a9afb8" d="M100-194c62-1 85 37 85 99 1 63-27 99-86 99S16-35 15-95c0-66 28-99 85-99zM99-20c44 1 53-31 53-75 0-43-8-75-51-75s-53 32-53 75 10 74 51 75" id="as"/><g id="l"><use transform="matrix(0.04248971193415638,0,0,0.04248971193415638,0,0)" xlink:href="#an"/><use transform="matrix(0.04248971193415638,0,0,0.04248971193415638,9.305246913580246,0)" xlink:href="#ao"/><use transform="matrix(0.04248971193415638,0,0,0.04248971193415638,12.6619341563786,0)" xlink:href="#ap"/><use transform="matrix(0.04248971193415638,0,0,0.04248971193415638,21.159876543209876,0)" xlink:href="#aq"/><use transform="matrix(0.04248971193415638,0,0,0.04248971193415638,28.808024691358025,0)" xlink:href="#ar"/><use transform="matrix(0.04248971193415638,0,0,0.04248971193415638,32.16471193415638,0)" xlink:href="#as"/></g><path fill="#a9afb8" d="M30 0v-248h33v221h125V0H30" id="at"/><path fill="#a9afb8" d="M84 4C-5 8 30-112 23-190h32v120c0 31 7 50 39 49 72-2 45-101 50-169h31l1 190h-30c-1-10 1-25-2-33-11 22-28 36-60 37" id="au"/><path fill="#a9afb8" d="M135-143c-3-34-86-38-87 0 15 53 115 12 119 90S17 21 10-45l28-5c4 36 97 45 98 0-10-56-113-15-118-90-4-57 82-63 122-42 12 7 21 19 24 35" id="av"/><g id="m"><use transform="matrix(0.04248971193415638,0,0,0.04248971193415638,0,0)" xlink:href="#at"/><use transform="matrix(0.04248971193415638,0,0,0.04248971193415638,8.497942386831275,0)" xlink:href="#au"/><use transform="matrix(0.04248971193415638,0,0,0.04248971193415638,16.99588477366255,0)" xlink:href="#ar"/><use transform="matrix(0.04248971193415638,0,0,0.04248971193415638,20.352572016460904,0)" xlink:href="#av"/></g><path fill="#a9afb8" d="M212-179c-10-28-35-45-73-45-59 0-87 40-87 99 0 60 29 101 89 101 43 0 62-24 78-52l27 14C228-24 195 4 139 4 59 4 22-46 18-125c-6-104 99-153 187-111 19 9 31 26 39 46" id="aw"/><path fill="#a9afb8" d="M100-194c63 0 86 42 84 106H49c0 40 14 67 53 68 26 1 43-12 49-29l28 8c-11 28-37 45-77 45C44 4 14-33 15-96c1-61 26-98 85-98zm52 81c6-60-76-77-97-28-3 7-6 17-6 28h103" id="ax"/><path fill="#a9afb8" d="M106-169C34-169 62-67 57 0H25v-261h32l-1 103c12-21 28-36 61-36 89 0 53 116 60 194h-32v-121c2-32-8-49-39-48" id="ay"/><g id="n"><use transform="matrix(0.04248971193415638,0,0,0.04248971193415638,0,0)" xlink:href="#aw"/><use transform="matrix(0.04248971193415638,0,0,0.04248971193415638,11.004835390946502,0)" xlink:href="#as"/><use transform="matrix(0.04248971193415638,0,0,0.04248971193415638,19.502777777777776,0)" xlink:href="#ax"/><use transform="matrix(0.04248971193415638,0,0,0.04248971193415638,28.000720164609046,0)" xlink:href="#ao"/><use transform="matrix(0.04248971193415638,0,0,0.04248971193415638,31.357407407407408,0)" xlink:href="#ay"/><use transform="matrix(0.04248971193415638,0,0,0.04248971193415638,39.85534979423868,0)" xlink:href="#as"/></g><path fill="#a9afb8" d="M32 76v-337h29V76H32" id="az"/><use transform="matrix(0.04248971193415638,0,0,0.04248971193415638,0,0)" xlink:href="#az" id="o"/><path fill="#a9afb8" d="M190 0L58-211 59 0H30v-248h39L202-35l-2-213h31V0h-41" id="aA"/><path fill="#a9afb8" d="M210-169c-67 3-38 105-44 169h-31v-121c0-29-5-50-35-48C34-165 62-65 56 0H25l-1-190h30c1 10-1 24 2 32 10-44 99-50 107 0 11-21 27-35 58-36 85-2 47 119 55 194h-31v-121c0-29-5-49-35-48" id="aB"/><path fill="#a9afb8" d="M115-194c53 0 69 39 70 98 0 66-23 100-70 100C84 3 66-7 56-30L54 0H23l1-261h32v101c10-23 28-34 59-34zm-8 174c40 0 45-34 45-75 0-40-5-75-45-74-42 0-51 32-51 76 0 43 10 73 51 73" id="aC"/><path fill="#a9afb8" d="M114-163C36-179 61-72 57 0H25l-1-190h30c1 12-1 29 2 39 6-27 23-49 58-41v29" id="aD"/><g id="p"><use transform="matrix(0.04248971193415638,0,0,0.04248971193415638,0,0)" xlink:href="#aA"/><use transform="matrix(0.04248971193415638,0,0,0.04248971193415638,11.004835390946502,0)" xlink:href="#as"/><use transform="matrix(0.04248971193415638,0,0,0.04248971193415638,19.502777777777776,0)" xlink:href="#aq"/><use transform="matrix(0.04248971193415638,0,0,0.04248971193415638,27.150925925925925,0)" xlink:href="#ax"/><use transform="matrix(0.04248971193415638,0,0,0.04248971193415638,35.6488683127572,0)" xlink:href="#aB"/><use transform="matrix(0.04248971193415638,0,0,0.04248971193415638,48.35329218106995,0)" xlink:href="#aC"/><use transform="matrix(0.04248971193415638,0,0,0.04248971193415638,56.851234567901244,0)" xlink:href="#ax"/><use transform="matrix(0.04248971193415638,0,0,0.04248971193415638,65.34917695473251,0)" xlink:href="#aD"/></g><path fill="#a9afb8" d="M101-251c82-7 93 87 43 132L82-64C71-53 59-42 53-27h129V0H18c2-99 128-94 128-182 0-28-16-43-45-43s-46 15-49 41l-32-3c6-41 34-60 81-64" id="aE"/><path fill="#a9afb8" d="M134-131c28 9 52 24 51 62-1 50-34 73-85 73S17-19 16-69c0-36 21-54 49-61-75-25-45-126 34-121 46 3 78 18 79 63 0 33-17 51-44 57zm-34-11c31 1 46-15 46-44 0-28-17-43-47-42-29 0-46 13-45 42 1 28 16 44 46 44zm1 122c35 0 51-18 51-52 0-30-18-46-53-46-33 0-51 17-51 47 0 34 19 51 53 51" id="aF"/><path fill="#a9afb8" d="M68-38c1 34 0 65-14 84H32c9-13 17-26 17-46H33v-38h35" id="aG"/><g id="q"><use transform="matrix(0.04248971193415638,0,0,0.04248971193415638,0,0)" xlink:href="#aE"/><use transform="matrix(0.04248971193415638,0,0,0.04248971193415638,8.497942386831275,0)" xlink:href="#aF"/><use transform="matrix(0.04248971193415638,0,0,0.04248971193415638,16.99588477366255,0)" xlink:href="#aG"/></g><path fill="#a9afb8" d="M101-251c68 0 85 55 85 127S166 4 100 4C33 4 14-52 14-124c0-73 17-127 87-127zm-1 229c47 0 54-49 54-102s-4-102-53-102c-51 0-55 48-55 102 0 53 5 102 54 102" id="aH"/><path fill="#a9afb8" d="M126-127c33 6 58 20 58 59 0 88-139 92-164 29-3-8-5-16-6-25l32-3c6 27 21 44 54 44 32 0 52-15 52-46 0-38-36-46-79-43v-28c39 1 72-4 72-42 0-27-17-43-46-43-28 0-47 15-49 41l-32-3c6-42 35-63 81-64 48-1 79 21 79 65 0 36-21 52-52 59" id="aI"/><g id="r"><use transform="matrix(0.04248971193415638,0,0,0.04248971193415638,0,0)" xlink:href="#aE"/><use transform="matrix(0.04248971193415638,0,0,0.04248971193415638,8.497942386831275,0)" xlink:href="#aH"/><use transform="matrix(0.04248971193415638,0,0,0.04248971193415638,16.99588477366255,0)" xlink:href="#aE"/><use transform="matrix(0.04248971193415638,0,0,0.04248971193415638,25.493827160493822,0)" xlink:href="#aI"/></g><path fill="#333" d="M87-220l-18 92h140l-5 28H64L45 0H11l48-248h178l-5 28H87" id="aJ"/><g id="s"><use transform="matrix(0.04938271604938272,0,0,0.04938271604938272,0,0)" xlink:href="#Q"/><use transform="matrix(0.04938271604938272,0,0,0.04938271604938272,11.851851851851853,0)" xlink:href="#R"/><use transform="matrix(0.04938271604938272,0,0,0.04938271604938272,24.641975308641978,0)" xlink:href="#V"/><use transform="matrix(0.04938271604938272,0,0,0.04938271604938272,38.46913580246914,0)" xlink:href="#aJ"/><use transform="matrix(0.04938271604938272,0,0,0.04938271604938272,49.283950617283956,0)" xlink:href="#O"/><use transform="matrix(0.04938271604938272,0,0,0.04938271604938272,61.13580246913581,0)" xlink:href="#S"/><use transform="matrix(0.04938271604938272,0,0,0.04938271604938272,72.98765432098766,0)" xlink:href="#S"/><use transform="matrix(0.04938271604938272,0,0,0.04938271604938272,84.8395061728395,0)" xlink:href="#V"/><use transform="matrix(0.04938271604938272,0,0,0.04938271604938272,98.66666666666667,0)" xlink:href="#R"/></g><path fill="#333" d="M62-99C39-31 123 0 170-40s38-139 58-208h34C234-144 253 4 115 4 49 4 18-43 31-112l26-136h34" id="aK"/><path fill="#333" d="M173 0L80-213 41 0H11l48-248h37l94 214 40-214h30L212 0h-39" id="aL"/><g id="t"><use transform="matrix(0.04938271604938272,0,0,0.04938271604938272,0,0)" xlink:href="#T"/><use transform="matrix(0.04938271604938272,0,0,0.04938271604938272,11.851851851851853,0)" xlink:href="#W"/><use transform="matrix(0.04938271604938272,0,0,0.04938271604938272,21.7283950617284,0)" xlink:href="#aK"/><use transform="matrix(0.04938271604938272,0,0,0.04938271604938272,34.518518518518526,0)" xlink:href="#aL"/><use transform="matrix(0.04938271604938272,0,0,0.04938271604938272,47.30864197530865,0)" xlink:href="#V"/></g><path d="M212-179c-10-28-35-45-73-45-59 0-87 40-87 99 0 60 29 101 89 101 43 0 62-24 78-52l27 14C228-24 195 4 139 4 59 4 22-46 18-125c-6-104 99-153 187-111 19 9 31 26 39 46" id="aM"/><path d="M141-36C126-15 110 5 73 4 37 3 15-17 15-53c-1-64 63-63 125-63 3-35-9-54-41-54-24 1-41 7-42 31l-33-3c5-37 33-52 76-52 45 0 72 20 72 64v82c-1 20 7 32 28 27v20c-31 9-61-2-59-35zM48-53c0 20 12 33 32 33 41-3 63-29 60-74-43 2-92-5-92 41" id="aN"/><path d="M85-194c31 0 48 13 60 33l-1-100h32l1 261h-30c-2-10 0-23-3-31C134-8 116 4 85 4 32 4 16-35 15-94c0-66 23-100 70-100zm9 24c-40 0-46 34-46 75 0 40 6 74 45 74 42 0 51-32 51-76 0-42-9-74-50-73" id="aO"/><path d="M135-143c-3-34-86-38-87 0 15 53 115 12 119 90S17 21 10-45l28-5c4 36 97 45 98 0-10-56-113-15-118-90-4-57 82-63 122-42 12 7 21 19 24 35" id="aP"/><path d="M59-47c-2 24 18 29 38 22v24C64 9 27 4 27-40v-127H5v-23h24l9-43h21v43h35v23H59v120" id="aQ"/><path d="M114-163C36-179 61-72 57 0H25l-1-190h30c1 12-1 29 2 39 6-27 23-49 58-41v29" id="aR"/><path d="M100-194c62-1 85 37 85 99 1 63-27 99-86 99S16-35 15-95c0-66 28-99 85-99zM99-20c44 1 53-31 53-75 0-43-8-75-51-75s-53 32-53 75 10 74 51 75" id="aS"/><g id="u"><use transform="matrix(0.05,0,0,0.05,0,0)" xlink:href="#aM"/><use transform="matrix(0.05,0,0,0.05,12.950000000000001,0)" xlink:href="#aN"/><use transform="matrix(0.05,0,0,0.05,22.950000000000003,0)" xlink:href="#aO"/><use transform="matrix(0.05,0,0,0.05,32.95,0)" xlink:href="#aN"/><use transform="matrix(0.05,0,0,0.05,42.95,0)" xlink:href="#aP"/><use transform="matrix(0.05,0,0,0.05,51.95,0)" xlink:href="#aQ"/><use transform="matrix(0.05,0,0,0.05,56.95,0)" xlink:href="#aR"/><use transform="matrix(0.05,0,0,0.05,62.900000000000006,0)" xlink:href="#aS"/></g><path d="M100-194c63 0 86 42 84 106H49c0 40 14 67 53 68 26 1 43-12 49-29l28 8c-11 28-37 45-77 45C44 4 14-33 15-96c1-61 26-98 85-98zm52 81c6-60-76-77-97-28-3 7-6 17-6 28h103" id="aT"/><g id="v"><use transform="matrix(0.05,0,0,0.05,0,0)" xlink:href="#aO"/><use transform="matrix(0.05,0,0,0.05,10,0)" xlink:href="#aT"/></g><path d="M84 4C-5 8 30-112 23-190h32v120c0 31 7 50 39 49 72-2 45-101 50-169h31l1 190h-30c-1-10 1-25-2-33-11 22-28 36-60 37" id="aU"/><path d="M141-36C126-15 110 5 73 4 37 3 15-17 15-53c-1-64 63-63 125-63 3-35-9-54-41-54-24 1-41 7-42 31l-33-3c5-37 33-52 76-52 45 0 72 20 72 64v82c-1 20 7 32 28 27v20c-31 9-61-2-59-35zM48-53c0 20 12 33 32 33 41-3 63-29 60-74-43 2-92-5-92 41zm25-158c8-23 27-35 38-54h36v5l-58 49H73" id="aV"/><path d="M24-231v-30h32v30H24zM24 0v-190h32V0H24" id="aW"/><g id="w"><use transform="matrix(0.05,0,0,0.05,0,0)" xlink:href="#aU"/><use transform="matrix(0.05,0,0,0.05,10,0)" xlink:href="#aP"/><use transform="matrix(0.05,0,0,0.05,19,0)" xlink:href="#aU"/><use transform="matrix(0.05,0,0,0.05,29,0)" xlink:href="#aV"/><use transform="matrix(0.05,0,0,0.05,39,0)" xlink:href="#aR"/><use transform="matrix(0.05,0,0,0.05,44.95,0)" xlink:href="#aW"/><use transform="matrix(0.05,0,0,0.05,48.900000000000006,0)" xlink:href="#aS"/><use transform="matrix(0.05,0,0,0.05,58.900000000000006,0)" xlink:href="#aP"/></g><path d="M30-248c87 1 191-15 191 75 0 78-77 80-158 76V0H30v-248zm33 125c57 0 124 11 124-50 0-59-68-47-124-48v98" id="aX"/><path d="M117-194c89-4 53 116 60 194h-32v-121c0-31-8-49-39-48C34-167 62-67 57 0H25l-1-190h30c1 10-1 24 2 32 11-22 29-35 61-36" id="aY"/><path d="M24 0v-261h32V0H24" id="aZ"/><g id="x"><use transform="matrix(0.05,0,0,0.05,0,0)" xlink:href="#aX"/><use transform="matrix(0.05,0,0,0.05,12,0)" xlink:href="#aN"/><use transform="matrix(0.05,0,0,0.05,22,0)" xlink:href="#aW"/><use transform="matrix(0.05,0,0,0.05,25.950000000000003,0)" xlink:href="#aY"/><use transform="matrix(0.05,0,0,0.05,35.95,0)" xlink:href="#aT"/><use transform="matrix(0.05,0,0,0.05,45.95,0)" xlink:href="#aZ"/></g><path d="M210-169c-67 3-38 105-44 169h-31v-121c0-29-5-50-35-48C34-165 62-65 56 0H25l-1-190h30c1 10-1 24 2 32 10-44 99-50 107 0 11-21 27-35 58-36 85-2 47 119 55 194h-31v-121c0-29-5-49-35-48" id="ba"/><g id="y"><use transform="matrix(0.05,0,0,0.05,0,0)" xlink:href="#aQ"/><use transform="matrix(0.05,0,0,0.05,5,0)" xlink:href="#aU"/><use transform="matrix(0.05,0,0,0.05,15,0)" xlink:href="#aR"/><use transform="matrix(0.05,0,0,0.05,20.95,0)" xlink:href="#ba"/><use transform="matrix(0.05,0,0,0.05,35.9,0)" xlink:href="#aN"/><use transform="matrix(0.05,0,0,0.05,45.9,0)" xlink:href="#aP"/></g><path d="M96-169c-40 0-48 33-48 73s9 75 48 75c24 0 41-14 43-38l32 2c-6 37-31 61-74 61-59 0-76-41-82-99-10-93 101-131 147-64 4 7 5 14 7 22l-32 3c-4-21-16-35-41-35" id="bb"/><g id="z"><use transform="matrix(0.05,0,0,0.05,0,0)" xlink:href="#bb"/><use transform="matrix(0.05,0,0,0.05,9,0)" xlink:href="#aN"/><use transform="matrix(0.05,0,0,0.05,19,0)" xlink:href="#aO"/><use transform="matrix(0.05,0,0,0.05,29,0)" xlink:href="#aN"/><use transform="matrix(0.05,0,0,0.05,39,0)" xlink:href="#aP"/><use transform="matrix(0.05,0,0,0.05,48,0)" xlink:href="#aQ"/><use transform="matrix(0.05,0,0,0.05,53,0)" xlink:href="#aR"/><use transform="matrix(0.05,0,0,0.05,58.95,0)" xlink:href="#aS"/></g><path d="M85 4C-4 8 31-112 24-190h32v120c0 31 7 50 39 49 72-2 45-101 50-169h31l1 190h-30c-1-10 1-25-2-33-11 22-28 36-60 37zM73-211c8-23 27-35 38-54h36v5l-58 49H73" id="bc"/><g id="A"><use transform="matrix(0.05,0,0,0.05,0,0)" xlink:href="#bb"/><use transform="matrix(0.05,0,0,0.05,9,0)" xlink:href="#aS"/><use transform="matrix(0.05,0,0,0.05,19,0)" xlink:href="#aY"/><use transform="matrix(0.05,0,0,0.05,29,0)" xlink:href="#aQ"/><use transform="matrix(0.05,0,0,0.05,34,0)" xlink:href="#aT"/><use transform="matrix(0.05,0,0,0.05,44,0)" xlink:href="#bc"/><use transform="matrix(0.05,0,0,0.05,54,0)" xlink:href="#aO"/><use transform="matrix(0.05,0,0,0.05,64,0)" xlink:href="#aS"/></g><path d="M30-248c118-7 216 8 213 122C240-48 200 0 122 0H30v-248zM63-27c89 8 146-16 146-99s-60-101-146-95v194" id="bd"/><g id="B"><use transform="matrix(0.05,0,0,0.05,0,0)" xlink:href="#bd"/><use transform="matrix(0.05,0,0,0.05,12.950000000000001,0)" xlink:href="#aW"/><use transform="matrix(0.05,0,0,0.05,16.900000000000002,0)" xlink:href="#aR"/><use transform="matrix(0.05,0,0,0.05,22.85,0)" xlink:href="#aT"/><use transform="matrix(0.05,0,0,0.05,32.85,0)" xlink:href="#bb"/><use transform="matrix(0.05,0,0,0.05,41.85,0)" xlink:href="#aW"/><use transform="matrix(0.05,0,0,0.05,45.800000000000004,0)" xlink:href="#aS"/><use transform="matrix(0.05,0,0,0.05,55.800000000000004,0)" xlink:href="#aY"/><use transform="matrix(0.05,0,0,0.05,65.80000000000001,0)" xlink:href="#aN"/><use transform="matrix(0.05,0,0,0.05,75.80000000000001,0)" xlink:href="#ba"/><use transform="matrix(0.05,0,0,0.05,90.75000000000001,0)" xlink:href="#aT"/><use transform="matrix(0.05,0,0,0.05,100.75000000000001,0)" xlink:href="#aY"/><use transform="matrix(0.05,0,0,0.05,110.75,0)" xlink:href="#aQ"/><use transform="matrix(0.05,0,0,0.05,115.75,0)" xlink:href="#aS"/></g><g id="C"><use transform="matrix(0.05,0,0,0.05,0,0)" xlink:href="#aO"/><use transform="matrix(0.05,0,0,0.05,10,0)" xlink:href="#aT"/></g><g id="D"><use transform="matrix(0.05,0,0,0.05,0,0)" xlink:href="#aM"/><use transform="matrix(0.05,0,0,0.05,12.950000000000001,0)" xlink:href="#aS"/><use transform="matrix(0.05,0,0,0.05,22.950000000000003,0)" xlink:href="#aY"/><use transform="matrix(0.05,0,0,0.05,32.95,0)" xlink:href="#aP"/><use transform="matrix(0.05,0,0,0.05,41.95,0)" xlink:href="#aU"/><use transform="matrix(0.05,0,0,0.05,51.95,0)" xlink:href="#aZ"/><use transform="matrix(0.05,0,0,0.05,55.900000000000006,0)" xlink:href="#aQ"/><use transform="matrix(0.05,0,0,0.05,60.900000000000006,0)" xlink:href="#aN"/></g><path d="M108 0H70L1-190h34L89-25l56-165h34" id="be"/><g id="E"><use transform="matrix(0.05,0,0,0.05,0,0)" xlink:href="#aN"/><use transform="matrix(0.05,0,0,0.05,10,0)" xlink:href="#aQ"/><use transform="matrix(0.05,0,0,0.05,15,0)" xlink:href="#aW"/><use transform="matrix(0.05,0,0,0.05,18.95,0)" xlink:href="#be"/><use transform="matrix(0.05,0,0,0.05,27.950000000000003,0)" xlink:href="#aW"/><use transform="matrix(0.05,0,0,0.05,31.899999999999995,0)" xlink:href="#aO"/><use transform="matrix(0.05,0,0,0.05,41.9,0)" xlink:href="#aN"/><use transform="matrix(0.05,0,0,0.05,51.900000000000006,0)" xlink:href="#aO"/><use transform="matrix(0.05,0,0,0.05,61.900000000000006,0)" xlink:href="#aT"/><use transform="matrix(0.05,0,0,0.05,71.9,0)" xlink:href="#aP"/></g><path d="M233-177c-1 41-23 64-60 70L243 0h-38l-65-103H63V0H30v-248c88 3 205-21 203 71zM63-129c60-2 137 13 137-47 0-61-80-42-137-45v92" id="bf"/><path d="M9 0v-24l116-142H16v-24h144v24L44-24h123V0H9" id="bg"/><g id="F"><use transform="matrix(0.05,0,0,0.05,0,0)" xlink:href="#bf"/><use transform="matrix(0.05,0,0,0.05,12.950000000000001,0)" xlink:href="#aT"/><use transform="matrix(0.05,0,0,0.05,22.950000000000003,0)" xlink:href="#aN"/><use transform="matrix(0.05,0,0,0.05,32.95,0)" xlink:href="#aZ"/><use transform="matrix(0.05,0,0,0.05,36.900000000000006,0)" xlink:href="#aW"/><use transform="matrix(0.05,0,0,0.05,40.85000000000001,0)" xlink:href="#bg"/><use transform="matrix(0.05,0,0,0.05,49.85000000000001,0)" xlink:href="#aN"/><use transform="matrix(0.05,0,0,0.05,59.85,0)" xlink:href="#aR"/></g><path d="M101-234c-31-9-42 10-38 44h38v23H63V0H32v-167H5v-23h27c-7-52 17-82 69-68v24" id="bh"/><g id="G"><use transform="matrix(0.05,0,0,0.05,0,0)" xlink:href="#aQ"/><use transform="matrix(0.05,0,0,0.05,5,0)" xlink:href="#aN"/><use transform="matrix(0.05,0,0,0.05,15,0)" xlink:href="#aR"/><use transform="matrix(0.05,0,0,0.05,20.95,0)" xlink:href="#aT"/><use transform="matrix(0.05,0,0,0.05,30.950000000000003,0)" xlink:href="#bh"/><use transform="matrix(0.05,0,0,0.05,35.95,0)" xlink:href="#aN"/><use transform="matrix(0.05,0,0,0.05,45.95,0)" xlink:href="#aP"/></g></defs></g></svg>